<?xml version="1.0" standalone="no"?><!DOCTYPE svg PUBLIC "-//W3C//DTD SVG 1.1//EN" "http://www.w3.org/Graphics/SVG/1.1/DTD/svg11.dtd"><svg t="1611543372493" class="icon" viewBox="0 0 1024 1024" version="1.1" xmlns="http://www.w3.org/2000/svg" p-id="8056" xmlns:xlink="http://www.w3.org/1999/xlink" width="128" height="128"><defs><style type="text/css"></style></defs><path d="M719.872 153.6q34.816 0 53.248 9.728t31.744 37.376q5.12 11.264 16.384 34.816t25.6 53.248 29.696 62.976 29.184 62.976 24.576 52.736 14.848 33.28q5.12 11.264 8.704 16.896t6.144 12.288 3.584 15.872 1.024 25.6q0 12.288-0.512 37.888t-0.512 54.272l0 57.344 0 39.936q0 28.672-16.896 48.64t-48.64 19.968l-786.432 0q-29.696 0-45.056-18.944t-16.384-48.64l0-35.84q0-23.552 0.512-50.176t0.512-53.248l0-43.008q0-17.408 0.512-27.648t2.56-17.92 4.608-15.872 7.68-20.48q3.072-8.192 13.312-31.232t24.576-52.736 31.232-63.488 31.744-64 27.136-53.76l16.384-33.792q13.312-26.624 32.768-35.84t46.08-9.216l430.08 0zM897.024 589.824q0-30.72-28.672-30.72l-724.992 1.024q-17.408 0-26.624 9.728t-9.216 25.088l0 145.408q0 12.288 6.656 20.48t20.992 8.192l729.088 1.024q20.48 0 26.624-9.728t6.144-24.064l0-146.432zM293.888 206.848q-14.336 0-24.064 9.728t-9.728 24.064 9.728 24.064 24.064 9.728 23.552-9.728 9.216-24.064-9.216-24.064-23.552-9.728zM215.04 391.168q-14.336 0-24.064 9.728t-9.728 24.064 9.728 24.064 24.064 9.728 24.064-9.728 9.728-24.064-9.728-24.064-24.064-9.728zM686.08 240.64q0 14.336 9.216 24.064t23.552 9.728 24.064-9.728 9.728-24.064-9.728-24.064-24.064-9.728-23.552 9.728-9.216 24.064zM763.904 424.96q0 14.336 9.728 24.064t24.064 9.728 23.552-9.728 9.216-24.064-9.216-24.064-23.552-9.728-24.064 9.728-9.728 24.064zM233.472 740.352l-30.72 0 0-145.408 30.72 0 0 145.408zM326.656 740.352l-30.72 0 0-145.408 30.72 0 0 145.408zM420.864 740.352l-30.72 0 0-145.408 30.72 0 0 145.408zM514.048 740.352l-30.72 0 0-145.408 30.72 0 0 145.408zM610.304 740.352l-30.72 0 0-145.408 30.72 0 0 145.408zM705.536 740.352l-30.72 0 0-145.408 30.72 0 0 145.408zM795.648 740.352l-30.72 0 0-145.408 30.72 0 0 145.408z" p-id="8057" fill="#f4ea2a"></path></svg>