<?xml version="1.0" encoding="UTF-8"?>
<svg id="Layer_2" data-name="Layer 2" xmlns="http://www.w3.org/2000/svg" viewBox="0 0 286 62">
  <defs>
    <style>
      .cls-1 {
        fill: #f79133;
      }

      .cls-2 {
        fill: #fff;
      }
    </style>
  </defs>
  <g id="Layer_1-2" data-name="Layer 1">
    <path class="cls-1" d="M20.36,44.95l-2.11,3.64h43.44l2.11-3.64H20.36ZM5.06,39.73l2.08,3.59h.05l2.11-3.64h-4.22l-.03.05ZM6.03,38.05h4.22L32.31,0h-4.22L6.03,38.05ZM12.14,38.05h4.22L38.42,0h-4.22L12.14,38.05ZM14.25,55.49l-.03.05,3.75,6.46h35.94s3.77-6.51,3.77-6.51H14.25ZM23.42,39.68l-2.11,3.64h43.44l2.11-3.64H23.42ZM4.14,38.05L26.2,0h-8.22L0,31l4.09,7.05h.05ZM60.74,50.22H17.31l-2.11,3.64h43.44l2.11-3.64ZM11.2,50.22l-.03.05,2.08,3.59h.05l2.11-3.64h-4.22ZM8.14,44.95l-.03.05,2.08,3.59h.05l2.11-3.64h-4.22ZM24.36,38.05h43.44l4.09-7.05L53.91,0h-7.49l-22.06,38.05ZM44.53,0h-4.22l-22.06,38.05h4.22L44.53,0ZM21.52,39.68h-4.22l-2.11,3.64h4.22l2.11-3.64ZM15.41,39.68h-4.22l-2.11,3.64h4.22l2.11-3.64ZM18.47,44.95h-4.22l-2.11,3.64h4.22l2.11-3.64Z"/>
    <path class="cls-2" d="M254.6,16.56v-6.51h31.4v6.51h-11.71v35.4h-8.22V16.56h-11.46ZM238.33,10.04h8.22v41.91h-8.22V10.04ZM203.27,45.68h6.42c1.04,0,2.18-.07,3.39-.21,1.22-.14,2.34-.42,3.36-.86,1.02-.43,1.87-1.07,2.55-1.89.67-.83,1.01-1.93,1.01-3.31,0-2.21-.83-3.75-2.48-4.62-1.65-.87-4.16-1.3-7.51-1.3h-6.75v12.19h0ZM203.27,27.09h6.35c2.74,0,4.83-.49,6.27-1.48,1.44-.99,2.15-2.39,2.15-4.2s-.74-3.24-2.22-4.03c-1.48-.79-3.79-1.18-6.92-1.18h-5.64v10.89ZM195.05,10.04h17.06c1.74,0,3.46.19,5.16.56,1.7.38,3.21.99,4.54,1.83,1.33.85,2.4,1.94,3.23,3.29.83,1.34,1.24,2.96,1.24,4.85,0,2.37-.74,4.32-2.22,5.86-1.48,1.54-3.42,2.64-5.81,3.31v.12c2.91.35,5.31,1.38,7.18,3.08,1.87,1.7,2.81,3.97,2.81,6.81,0,2.29-.5,4.21-1.5,5.77-1,1.56-2.32,2.81-3.95,3.76s-3.5,1.63-5.61,2.04c-2.11.41-4.25.62-6.43.62h-15.69V10.04ZM146.76,10.04h10.9l17.65,31.37h.13V10.04h8.22v41.91h-10.44l-18.11-32.38h-.13v32.38h-8.22V10.04ZM126.71,10.04h8.22v41.91h-8.22V10.04ZM92.33,10.04h8.22v35.28h17.75v6.63h-25.97V10.04Z"/>
  </g>
</svg>