<svg fill="none" height="619" viewBox="0 0 522 619" width="522" xmlns="http://www.w3.org/2000/svg" xmlns:xlink="http://www.w3.org/1999/xlink"><linearGradient id="a"><stop offset="0" stop-color="#f1f4fe"/><stop offset=".58" stop-color="#f6f8fe"/><stop offset="1" stop-color="#fff"/></linearGradient><linearGradient id="b" gradientUnits="userSpaceOnUse" x1="262.125" x2="277.466" xlink:href="#a" y1="354.45" y2="312.319"/><linearGradient id="c" gradientUnits="userSpaceOnUse" x1="366.322" x2="165.848" xlink:href="#a" y1="158.292" y2="158.292"/><linearGradient id="d" gradientUnits="userSpaceOnUse" x1="300.061" x2="239.072" y1="341.027" y2="116.026"><stop offset="0" stop-color="#f79133"/><stop offset=".2" stop-color="#f79f50"/><stop offset=".56" stop-color="#f7b780"/><stop offset=".84" stop-color="#f7c69d"/><stop offset="1" stop-color="#f7cca9"/></linearGradient><linearGradient id="e" gradientUnits="userSpaceOnUse" x1="169.616" x2="157.804" y1="208.774" y2="229.245"><stop offset="0" stop-color="#fff"/><stop offset=".73" stop-color="#eceefc"/><stop offset="1" stop-color="#e4e7fb"/></linearGradient><linearGradient id="f" gradientUnits="userSpaceOnUse" x1="247.588" x2="331.413" xlink:href="#a" y1="345.916" y2="345.916"/><clipPath id="g"><path d="m0 8c0-4.41828 3.58172-8 8-8h514v619h-514c-4.41828 0-8-3.582-8-8z"/></clipPath><mask id="h" height="29" maskUnits="userSpaceOnUse" width="49" x="257" y="272"><path d="m303.444 272.855-46.367 26.949c.533-.313 1.263-.232 2.004.197l46.368-26.949c-.742-.429-1.472-.51-1.993-.186z" fill="#fff"/></mask><mask id="i" height="34" maskUnits="userSpaceOnUse" width="50" x="259" y="273"><path d="m261.537 306.118 46.367-26.938c.73-1.158.209-3.406-1.158-5.028-.417-.487-.858-.857-1.286-1.112l-46.368 26.949c.429.255.869.626 1.286 1.112 1.356 1.622 1.889 3.87 1.159 5.017z" fill="#fff"/></mask><g clip-path="url(#g)"><path d="m0 8c0-4.41828 3.58172-8 8-8h514v619h-514c-4.41828 0-8-3.582-8-8z" fill="#666"/><g fill="#f2f2f2" fill-opacity=".2" opacity=".5"><path d="m205.477 834.936h268.409l.157-.281 134.048-232.326-.157-.281-134.048-232.326h-268.409l-.157.28-134.0475 232.327.1572.281zm267.769-1.124h-267.118l-133.5528-231.483 133.5528-231.484h267.118l133.553 231.484z"/><path d="m-85.1245 646.382h268.4095l.157-.281 134.047-232.326-.157-.281-134.047-232.326h-268.4095l-.1572.281-134.0473 232.326.157.281zm267.7695-1.124h-267.1181l-133.5529-231.483 133.5529-231.483h267.1181l133.553 231.483z"/><path d="m425.989 360.27h268.409l.157-.281 134.048-232.326-.158-.281-134.047-232.326h-268.409l-.157.281-134.048 232.326.157.281zm267.769-1.123h-267.118l-133.564-231.484 133.564-231.483h267.118l133.553 231.483z"/><path d="m576.79 805.009h219.478l.157-.281 109.576-189.914-.157-.28-109.576-189.914h-219.478l-.157.281-109.576 189.913.157.281zm218.826-1.124h-218.175l-109.093-189.071 109.093-189.07h218.175l109.082 189.07-109.093 189.071z"/><path d="m155.715 549.745h168.895l.158-.281 84.285-146.085-.158-.281-84.285-146.084h-168.895l-.158.281-84.2845 146.084.1572.281zm168.244-1.124h-167.604l-83.8023-145.242 83.8023-145.241h167.604l83.802 145.241z"/><path d="m-180.774 379.712h168.8955l.1573-.281 84.285-146.085-.1572-.281-84.2851-146.0846h-168.8955l-.157.281-84.297 146.0846.158.281 84.285 146.085zm168.2442-1.124h-167.6042l-83.802-145.242 83.802-145.2418h167.6042l83.802 145.2418z"/><path d="m-58.9671 547.037h90.035l.1572-.281 44.8547-77.746-45.0231-78.026h-90.0351l-.1572.281-44.8544 77.745zm89.3948-1.124h-88.7435l-44.3722-76.903 44.3722-76.903h88.7435l44.3718 76.903z"/><path d="m371.331 296.214h90.035l45.023-78.027-.157-.281-44.855-77.745h-90.035l-45.023 78.026.158.281zm89.395-1.124h-88.743l-44.372-76.903 44.372-76.903h88.743l44.372 76.903z"/><path d="m411.735 580.494h57.815l28.907-50.1-28.907-50.1h-57.815l-28.907 50.1zm57.164-1.124h-56.523l-28.256-48.976 28.256-48.976h56.523l28.256 48.976z"/><path d="m103.704 345.75h57.815l.157-.281 28.75-49.819-28.907-50.1h-57.815l-.157.281-28.7501 49.819zm57.164-1.124h-56.524l-28.2556-48.976 28.2556-48.976h56.524l28.256 48.976z"/><path d="m174.346 622.647h84.779l.157-.281 42.227-73.183-.157-.281-42.227-73.183h-84.779l-.157.281-42.227 73.183zm84.128-1.124h-83.477l-41.732-72.34 41.732-72.34h83.477l41.732 72.34z"/><path d="m544.808 688.278h84.779l42.384-73.464-.157-.281-42.227-73.183h-84.779l-42.384 73.464.157.281zm84.128-1.124h-83.477l-41.744-72.34 41.744-72.34h83.477l41.732 72.34z"/><path d="m460.689 452.614h84.779l42.384-73.464-.158-.281-42.226-73.183h-84.779l-42.384 73.464.157.281zm84.127-1.124h-83.476l-41.733-72.34 41.733-72.34h83.476l41.733 72.34z"/><path d="m416.353 370.272c0 4.394 3.56 7.968 7.962 7.968s7.962-3.562 7.962-7.968c0-4.405-3.56-7.968-7.962-7.968s-7.962 3.563-7.962 7.968z"/><path d="m514.115 452.052c0 4.394 3.56 7.968 7.963 7.968 4.402 0 7.962-3.563 7.962-7.968 0-4.406-3.56-7.968-7.962-7.968-4.403 0-7.963 3.562-7.963 7.968z"/><path d="m385.546 295.651c0 2.641 2.134 4.776 4.773 4.776s4.773-2.135 4.773-4.776-2.134-4.776-4.773-4.776-4.773 2.135-4.773 4.776z"/><path d="m162.622 257.575c0 2.641 2.134 4.777 4.773 4.777s4.773-2.136 4.773-4.777-2.134-4.776-4.773-4.776-4.773 2.135-4.773 4.776z"/><path d="m140.161 528.493c0 2.641 2.134 4.777 4.773 4.777s4.773-2.136 4.773-4.777-2.134-4.776-4.773-4.776-4.773 2.135-4.773 4.776z"/><path d="m264.707 494.431c0 2.641 2.134 4.777 4.773 4.777s4.773-2.136 4.773-4.777-2.134-4.776-4.773-4.776-4.773 2.135-4.773 4.776z"/><path d="m296.085 549.869c0 2.641 2.134 4.777 4.773 4.777s4.773-2.136 4.773-4.777-2.134-4.776-4.773-4.776-4.773 2.135-4.773 4.776z"/><path d="m406.795 579.931c0 2.641 2.134 4.777 4.773 4.777s4.773-2.136 4.773-4.777-2.134-4.776-4.773-4.776-4.773 2.135-4.773 4.776z"/><path d="m493.033 529.618c0 2.641 2.134 4.776 4.773 4.776s4.773-2.135 4.773-4.776-2.134-4.776-4.773-4.776-4.773 2.135-4.773 4.776z"/><path d="m124.182 503.32c0 2.641 2.133 4.777 4.773 4.777 2.639 0 4.773-2.136 4.773-4.777 0-2.64-2.134-4.776-4.773-4.776-2.64 0-4.773 2.136-4.773 4.776z"/><path d="m282.023 370.272c0 4.394 3.561 7.968 7.963 7.968s7.962-3.562 7.962-7.968c0-4.405-3.56-7.968-7.962-7.968s-7.963 3.563-7.963 7.968z"/><path d="m104.382 337.22c4.398 0 7.963 3.567 7.963 7.968 0 4.4-3.565 7.968-7.963 7.968-4.3972 0-7.9621-3.568-7.9621-7.968 0-4.401 3.5649-7.968 7.9621-7.968z"/><path d="m218.73 257.576c0 4.394 3.561 7.968 7.963 7.968s7.962-3.563 7.962-7.968c0-4.406-3.56-7.968-7.962-7.968s-7.963 3.562-7.963 7.968z"/><path d="m326.956 203.071c0 4.394 3.56 7.968 7.963 7.968 4.402 0 7.962-3.563 7.962-7.968 0-4.406-3.56-7.968-7.962-7.968-4.403 0-7.963 3.562-7.963 7.968z"/><path d="m186.396 622.086c0 4.394 3.56 7.967 7.962 7.967s7.962-3.562 7.962-7.967c0-4.406-3.56-7.968-7.962-7.968s-7.962 3.562-7.962 7.968z"/><path d="m230.195 549.184c0 4.394 3.56 7.968 7.963 7.968 4.402 0 7.962-3.563 7.962-7.968s-3.56-7.968-7.962-7.968c-4.403 0-7.963 3.563-7.963 7.968z"/></g><path d="m120.095 241.051c8.098-1.993 27.435 21.793 45.591 49.009 2.583 3.87 5.074 7.879 7.589 11.783 20.391 31.676 38.361 64.28 39.103 65.067 0 0-22.64 4.392-47.063 7.392-24.423 3.001-51.048 4.739-59.216-.139-3.175-1.9-58.3711-36.473-60.7231-38.651-.1853-.174 4.9357-20.426 16.7535-42.15 5.9784-10.984 14.2161-22.709 23.763-32.14 9.35-9.234 21.0636-16.915 34.1906-20.16z" fill="#fdfdfd" opacity=".01"/><path d="m124.474 243.183c7.913-1.935 27.737 21.608 45.371 48.221 2.537 3.823 4.913 7.867 7.346 11.679 19.766 30.958 36.867 62.993 37.585 63.758 0 0-22.315 4.426-46.124 7.346-23.81 2.919-49.994 4.657-58.035.046-3.372-1.935-57.4205-35.697-59.8651-37.933-.3708-.347 4.5417-20.264 16.0583-41.455 5.8278-10.705 14.4362-22.477 23.7514-31.676 9.1183-9.003 21.1094-16.835 33.9124-19.998z" fill="#fbfbfb" opacity=".02"/><path d="m128.865 245.315c7.716-1.889 28.027 21.411 45.139 47.445 2.491 3.788 4.739 7.855 7.091 11.574 19.14 30.24 35.372 61.696 36.079 62.449 0 0-21.99 4.449-45.186 7.299-23.195 2.851-48.951 4.6-56.853.22-3.568-1.981-56.4818-34.908-59.0076-37.214-.5561-.51 4.1478-20.102 15.3632-40.76 5.6771-10.427 14.6563-22.245 23.7398-31.201 8.8866-8.771 21.1556-16.777 33.6346-19.824z" fill="#f8f9f9" opacity=".04"/><path d="m133.256 247.458c7.52-1.831 28.317 21.226 44.92 46.669 2.444 3.742 4.564 7.844 6.847 11.482 18.514 29.521 33.878 60.409 34.561 61.139 0 0-21.666 4.484-44.259 7.253-22.592 2.769-47.92 4.553-55.671.406-3.765-2.016-55.5433-34.133-58.1502-36.496-.7531-.684 3.7538-19.94 14.6795-40.054 5.5265-10.161 14.888-22.013 23.7166-30.737 8.6431-8.539 21.2021-16.696 33.3561-19.662z" fill="#f6f7f7" opacity=".05"/><path d="m137.648 249.59c7.322-1.784 28.606 21.029 44.687 45.892 2.399 3.696 4.391 7.833 6.593 11.378 17.889 28.803 32.371 59.112 33.043 59.83 0 0-21.33 4.519-43.32 7.219-21.979 2.699-46.9 4.53-54.489.579-3.963-2.062-54.6055-33.345-57.2935-35.778-.9384-.846 3.3599-19.777 13.9844-39.358 5.3759-9.883 15.1082-21.782 23.7051-30.274 8.597-8.493 21.26-16.615 33.078-19.488z" fill="#f4f5f5" opacity=".06"/><path d="m142.039 251.722c7.137-1.727 28.895 20.843 44.456 45.116 2.351 3.661 4.217 7.82 6.349 11.273 17.263 28.073 30.877 57.826 31.525 58.521 0 0-21.005 4.542-42.381 7.172-21.377 2.63-45.881 4.507-53.308.765-4.171-2.109-53.6553-32.569-56.4359-35.06-1.1355-1.008 2.9777-19.615 13.2893-38.662 5.2253-9.605 15.3286-21.55 23.6816-29.8 8.354-8.249 21.307-16.545 32.801-19.325z" fill="#f2f2f3" opacity=".07"/><path d="m146.418 253.854c6.94-1.669 29.174 20.658 44.236 44.339 2.305 3.627 4.055 7.809 6.094 11.181 16.637 27.355 29.382 56.54 30.019 57.2 0 0-20.681 4.577-41.443 7.126s-44.873 4.507-52.126.938c-4.368-2.155-52.7165-31.78-55.5783-34.341-1.3208-1.182 2.5837-19.453 12.5941-37.956 5.0863-9.327 15.5482-21.318 23.6702-29.336 8.122-8.017 21.353-16.463 32.522-19.151z" fill="#f0f0f2" opacity=".09"/><path d="m150.81 255.997c6.743-1.61 29.463 20.473 44.004 43.564 2.259 3.58 3.881 7.797 5.851 11.076 16.012 26.636 27.887 55.242 28.501 55.891 0 0-20.356 4.612-40.504 7.079-20.149 2.468-43.865 4.507-50.933 1.113-4.576-2.19-51.7781-31.005-54.721-33.623-1.5178-1.344 2.1898-19.291 11.8989-37.261 4.9357-9.06 15.7691-21.087 23.6591-28.873 7.716-7.623 21.399-16.382 32.255-18.989z" fill="#edeef0" opacity=".1"/><path d="m155.201 258.129c6.546-1.564 29.741 20.299 43.784 42.787 2.212 3.545 3.707 7.798 5.596 10.984 15.386 25.918 26.393 53.956 26.984 54.582 0 0-20.033 4.634-39.567 7.032-19.534 2.399-42.868 4.519-49.75 1.298-4.785-2.236-50.8285-30.216-53.8641-32.904-1.7032-1.507 1.7959-19.129 11.2038-36.566 4.7853-8.782 16.0003-20.855 23.6353-28.398 7.635-7.542 21.458-16.313 31.978-18.815z" fill="#ebecee" opacity=".11"/><path d="m159.591 260.261c6.361-1.507 30.02 20.113 43.552 42.011 2.167 3.499 3.534 7.774 5.353 10.879 14.761 25.188 24.898 52.659 25.466 53.273 0 0-19.696 4.669-38.628 6.998-18.932 2.317-41.872 4.542-48.569 1.471-4.993-2.282-49.8894-29.44-53.006-32.174-1.9001-1.669 1.3671-18.99 10.508-35.871 4.612-8.515 16.221-20.623 23.625-27.934 7.241-7.16 21.503-16.232 31.699-18.653z" fill="#e9eaec" opacity=".12"/><path d="m163.971 262.393c6.164-1.449 30.297 19.939 43.32 41.223 2.12 3.464 3.36 7.763 5.098 10.775 14.135 24.47 23.404 51.373 23.96 51.963 0 0-19.372 4.704-37.689 6.952-18.318 2.248-40.888 4.577-47.388 1.657-5.19-2.329-48.951-28.652-52.1485-31.456-2.0971-1.831.9735-18.828 9.8245-35.164 4.461-8.249 16.441-20.391 23.613-27.471 7.009-6.928 21.55-16.151 31.421-18.479z" fill="#e7e8ea" opacity=".13"/><path d="m168.362 264.536c5.967-1.402 30.575 19.766 43.1 40.447 2.074 3.418 3.186 7.751 4.855 10.682 13.497 23.74 21.897 50.075 22.442 50.655 0 0-19.048 4.727-36.751 6.905-17.704 2.167-39.903 4.611-46.206 1.831-5.41-2.376-48.001-27.877-51.291-30.738-2.282-1.993.579-18.677 9.13-34.469 4.31-7.971 16.661-20.16 23.589-26.995 6.778-6.697 21.597-16.082 31.143-18.318z" fill="#e5e6e8" opacity=".15"/><path d="m172.754 266.668c5.781-1.344 30.842 19.592 42.868 39.671 2.028 3.383 3.013 7.739 4.6 10.578 12.872 23.01 20.403 48.789 20.924 49.345 0 0-18.723 4.762-35.812 6.859-17.101 2.097-38.918 4.657-45.024 2.016-5.619-2.433-47.062-27.089-50.434-30.02-2.479-2.155.185-18.514 8.435-33.773 4.159-7.693 16.892-19.928 23.577-26.532 6.686-6.604 21.655-16.001 30.866-18.144z" fill="#e2e4e6" opacity=".16"/><path d="m177.144 268.8c5.585-1.286 31.109 19.418 42.637 38.894 1.981 3.348 2.839 7.728 4.356 10.474 12.247 22.292 18.909 47.503 19.407 48.036 0 0-18.387 4.796-34.874 6.812-16.487 2.028-37.944 4.704-43.842 2.19-5.897-2.514-46.124-26.312-49.577-29.301-2.676-2.317-.208-18.352 7.74-33.067 4.009-7.426 17.113-19.696 23.554-26.057 6.442-6.361 21.701-15.919 30.588-17.981z" fill="#e0e2e4" opacity=".17"/><path d="m181.536 270.932c5.387-1.24 31.375 19.256 42.416 38.118 1.935 3.302 2.665 7.716 4.102 10.381 11.609 21.562 17.414 46.205 17.9 46.715 0 0-18.063 4.82-33.935 6.778-15.873 1.958-36.96 4.75-42.66 2.363-6.037-2.525-45.186-25.524-48.72-28.583-2.873-2.479-.602-18.19 7.045-32.371 3.858-7.149 17.332-19.465 23.542-25.594 6.211-6.129 21.747-15.838 30.321-17.807z" fill="#dee0e2" opacity=".18"/><path d="m185.915 273.075c5.202-1.182 31.642 19.082 42.185 37.342 1.888 3.267 2.491 7.704 3.858 10.277 10.984 20.82 15.919 44.919 16.383 45.405 0 0-17.738 4.855-33.009 6.732-15.27 1.877-35.986 4.808-41.478 2.549-6.245-2.572-44.236-24.748-47.862-27.865-3.07-2.641-1.008-18.028 6.349-31.676 3.708-6.882 17.553-19.233 23.531-25.13 5.979-5.898 21.805-15.769 30.043-17.646z" fill="#dcdde0" opacity=".2"/><path d="m190.306 275.207c5.005-1.124 31.896 18.92 41.965 36.565 1.842 3.233 2.317 7.682 3.603 10.185 10.358 20.09 14.425 43.621 14.865 44.096 0 0-17.414 4.89-32.07 6.685-14.657 1.796-35.013 4.867-40.297 2.723-6.465-2.618-43.297-23.96-47.004-27.146-3.268-2.804-1.402-17.877 5.654-30.97 3.557-6.604 17.784-19.001 23.508-24.655 5.607-5.538 21.851-15.687 29.764-17.472z" fill="#dadbde" opacity=".21"/><path d="m194.697 277.338c4.808-1.077 32.152 18.758 41.733 35.79 1.796 3.186 2.144 7.67 3.36 10.08 9.721 19.36 12.93 42.335 13.347 42.787 0 0-17.089 4.913-31.131 6.639-14.043 1.726-34.481 5.805-39.115 2.908-7.044-1.448-42.359-23.184-46.147-26.428-3.465-2.966-1.796-17.715 4.959-30.274 3.406-6.326 18.004-18.77 23.496-24.192s21.898-15.606 29.487-17.31z" fill="#d7d9dc" opacity=".22"/><path d="m199.088 279.47c4.623-1.019 32.395 18.608 41.501 35.014 1.75 3.151 1.97 7.658 3.106 9.975 9.095 18.619 11.423 41.05 11.84 41.478 0 0-16.753 4.948-30.193 6.593s-33.495 5.851-37.933 3.082c-7.264-1.425-41.408-22.396-45.29-25.71-3.661-3.116-2.189-17.553 4.276-29.579 3.255-6.06 18.224-18.538 23.473-23.728 5.248-5.191 21.944-15.537 29.209-17.136z" fill="#d5d7da" opacity=".23"/><path d="m203.48 281.614c4.426-.962 32.649 18.456 41.281 34.237 1.703 3.116 1.796 7.635 2.862 9.883 8.469 17.877 9.929 39.751 10.323 40.169 0 0-16.429 4.982-29.255 6.557-12.826 1.576-32.522 5.909-36.751 3.268-7.496-1.402-40.47-21.62-44.433-24.992-3.962-3.371-2.583-17.39 3.58-28.884 3.106-5.781 18.445-18.306 23.462-23.253s22.002-15.456 28.931-16.974z" fill="#d3d5d8" opacity=".24"/><path d="m207.859 283.746c4.229-.915 32.893 18.294 41.049 33.449 1.657 3.082 1.622 7.612 2.607 9.778 7.832 17.125 8.435 38.466 8.806 38.86 0 0-16.105 5.005-28.317 6.512-12.212 1.494-31.537 5.955-35.569 3.441-7.716-1.379-39.532-20.832-43.575-24.273-4.044-3.441-2.978-17.24 2.885-28.178 2.954-5.515 18.665-18.074 23.45-22.789 4.785-4.716 22.048-15.375 28.652-16.8z" fill="#d1d3d7" opacity=".26"/><path d="m212.25 285.878c4.044-.858 33.125 18.155 40.83 32.672 1.61 3.036 1.448 7.601 2.363 9.675 7.207 16.371 6.94 37.168 7.288 37.55 0 0-15.78 5.04-27.378 6.465s-30.552 6.013-34.387 3.615c-7.937-1.356-38.582-20.055-42.718-23.554-4.137-3.499-3.372-17.078 2.189-27.483 2.804-5.236 18.897-17.842 23.427-22.326 4.531-4.484 22.095-15.294 28.375-16.638z" fill="#cfd1d5" opacity=".27"/><path d="m216.641 288.009c3.847-.799 33.357 18.005 40.598 31.897 1.564 3.001 1.633 7.461 2.108 9.581 9.223 14.217 5.446 35.883 5.782 36.242 0 0-15.444 5.074-26.439 6.418-10.996 1.344-29.58 6.071-33.206 3.801-8.168-1.333-37.643-19.268-41.861-22.837-4.449-3.753-3.777-16.915 1.495-26.787 2.653-4.958 19.117-17.61 23.415-21.851 4.206-4.159 22.153-15.224 28.108-16.464z" fill="#cdcfd3" opacity=".28"/><path d="m221.032 290.153c3.662-.753 33.588 17.865 40.366 31.12 1.518 2.966 1.472 7.438 1.866 9.477 8.712 13.429 3.95 34.585 4.263 34.921 0 0-15.12 5.098-25.501 6.372-10.381 1.275-28.594 6.118-32.024 3.974-8.388-1.309-36.704-18.491-40.991-22.118-4.646-3.916-4.171-16.753.799-26.08 2.503-4.692 19.337-17.379 23.404-21.388 3.974-3.927 22.199-15.143 27.83-16.301z" fill="#cacdd1" opacity=".29"/><path d="m225.412 292.285c3.464-.696 33.808 17.726 40.146 30.344 1.471 2.931 1.32 7.426 1.61 9.384 8.203 12.641 2.457 33.299 2.746 33.611 0 0-14.795 5.133-24.562 6.338s-27.622 6.175-30.843 4.159c-8.62-1.286-35.754-17.703-40.134-21.399-4.843-4.067-4.565-16.591.105-25.385 2.351-4.414 19.557-17.148 23.38-20.925 3.824-3.777 22.246-15.061 27.552-16.127z" fill="#c8cbcf" opacity=".3"/><path d="m229.803 294.417c3.267-.638 34.028 17.587 39.914 29.567 1.425 2.897 1.159 7.404 1.367 9.281 7.693 11.852.95 32.012 1.228 32.302 0 0-14.471 5.167-23.624 6.291-9.164 1.124-26.636 6.222-29.66 4.333-8.84-1.263-34.816-16.927-39.277-20.669-5.04-4.229-4.959-16.441-.591-24.69 2.19-4.148 19.789-16.916 23.37-20.45 3.58-3.534 22.303-14.981 27.273-15.965z" fill="#c6c8cd" opacity=".32"/><path d="m234.194 296.548c3.082-.591 34.237 17.461 39.683 28.792 1.379 2.861 1.008 7.38 1.112 9.176 7.172 11.065-.545 30.715-.278 30.993 0 0-14.147 5.19-22.686 6.245-8.538 1.054-25.651 6.279-28.478 4.518-9.072-1.24-33.878-16.139-38.42-19.951-5.236-4.38-5.352-16.279-1.274-23.983 2.039-3.87 20.009-16.684 23.346-19.986s22.349-14.9 26.995-15.792z" fill="#c4c6cb" opacity=".33"/><path d="m238.585 298.68c2.885-.533 34.446 17.333 39.462 28.015 1.333 2.827.846 7.369.869 9.084 6.662 10.265-2.039 29.428-1.795 29.683 0 0-13.811 5.226-21.759 6.199-7.937.973-24.679 6.326-27.297 4.692-9.292-1.216-32.928-15.363-37.562-19.233-5.434-4.542-5.747-16.116-1.97-23.288 1.889-3.591 20.23-16.452 23.335-19.522 3.105-3.071 22.396-14.819 26.717-15.63z" fill="#c2c4c9" opacity=".34"/><path d="m242.977 300.823c2.699-.486 34.642 17.217 39.23 27.239 1.286 2.793.695 7.346.614 8.98 6.152 9.477-3.534 28.131-3.314 28.374 0 0-13.486 5.26-20.82 6.152s-23.693 6.384-26.115 4.866c-9.512-1.193-31.989-14.575-36.704-18.514-5.631-4.704-6.141-15.954-2.665-22.593 1.738-3.325 20.449-16.221 23.322-19.048 2.874-2.827 22.454-14.749 26.44-15.456z" fill="#bfc2c7" opacity=".35"/><path d="m247.356 302.955c2.503-.428 34.828 17.09 39.01 26.451 1.229 2.758.533 7.334.371 8.887 5.643 8.689-5.028 26.845-4.831 27.065 0 0-13.162 5.283-19.882 6.117-6.72.823-22.709 6.431-24.933 5.052-9.744-1.17-31.039-13.799-35.847-17.796-5.84-4.855-6.547-15.804-3.36-21.898 1.587-3.047 20.669-15.989 23.299-18.584s22.5-14.668 26.173-15.294z" fill="#bdc0c5" opacity=".37"/><path d="m251.747 305.087c2.317-.37 35.013 16.986 38.779 25.675 1.182 2.734.371 7.311.116 8.782 5.121 7.902-6.523 25.559-6.338 25.756 0 0-12.837 5.318-18.943 6.071s-21.736 6.488-23.752 5.226c-9.964-1.147-30.1-13.012-34.989-17.078-6.037-5.017-6.941-15.641-4.056-21.191 1.437-2.769 20.902-15.757 23.288-18.121 2.387-2.363 22.558-14.587 25.895-15.12z" fill="#bbbec3" opacity=".38"/><path d="m256.138 307.219c2.132-.324 35.187 16.869 38.547 24.899 1.136 2.699.22 7.287-.127 8.678 4.611 7.113-8.018 24.261-7.856 24.435 0 0-12.513 5.352-18.004 6.024-5.492.672-20.751 6.546-22.57 5.411-10.196-1.124-29.162-12.235-34.133-16.36-6.233-5.167-7.334-15.479-4.75-20.495 1.286-2.503 21.122-15.526 23.265-17.646s22.604-14.494 25.617-14.958z" fill="#b9bcc1" opacity=".39"/><path d="m260.529 309.363c1.935-.267 35.35 16.765 38.327 24.122 1.078 2.665.058 7.276-.371 8.585 4.102 6.326-9.523 22.975-9.373 23.126 0 0-12.177 5.376-17.066 5.978-4.889.603-19.766 6.593-21.376 5.585-10.416-1.101-28.212-11.447-33.276-15.641-6.43-5.33-7.727-15.317-5.445-19.801 1.135-2.225 21.341-15.294 23.253-17.182 1.912-1.889 22.663-14.413 25.339-14.784z" fill="#b7babf" opacity=".4"/><path d="m264.909 311.494c1.749-.208 35.511 16.661 38.095 23.346 1.019 2.642-.093 7.253-.626 8.481 3.592 5.527-11.018 21.678-10.891 21.817 0 0-11.852 5.41-16.128 5.932-4.275.521-18.792 6.65-20.194 5.77-10.648-1.078-27.274-10.671-32.418-14.923-6.627-5.48-8.122-15.155-6.14-19.094.984-1.958 21.561-15.062 23.241-16.707s22.709-14.332 25.061-14.622z" fill="#b4b8bd" opacity=".41"/><path d="m269.3 313.626c1.552.278 35.662 16.568 37.875 22.57.961 2.607-.255 7.241-.869 8.377 3.07 4.738-12.513 20.391-12.397 20.507 0 0-11.529 5.445-15.19 5.897s-17.808 6.697-19.013 5.944c-10.867-1.066-26.335-9.883-31.56-14.205-6.836-5.63-8.516-14.992-6.824-18.398.834-1.68 21.793-14.83 23.218-16.244 1.425-1.413 22.79-14.807 24.783-14.448z" fill="#b2b6bc" opacity=".43"/><path d="m273.691 315.758c1.344.348 35.79 16.475 37.644 21.793.903 2.584-.406 7.219-1.124 8.284 2.56 3.951-14.008 19.094-13.915 19.199 0 0-11.204 5.468-14.251 5.851-3.047.382-16.823 6.754-17.831 6.117-11.088-1.043-25.385-9.107-30.703-13.486-7.033-5.793-8.921-14.83-7.519-17.704.683-1.402 22.013-14.598 23.206-15.78 1.194-1.182 22.871-14.703 24.505-14.286z" fill="#b0b3ba" opacity=".44"/><path d="m278.083 317.901c1.193.174 35.916 16.383 37.411 21.018.823 2.56-.568 7.194-1.367 8.179 2.051 3.163-15.502 17.808-15.433 17.889 0 0-10.867 5.504-13.312 5.805s-15.85 6.801-16.649 6.303c-11.32-1.02-24.447-8.319-29.846-12.768-7.23-5.944-9.315-14.668-8.215-16.997.533-1.135 22.234-14.367 23.184-15.305.95-.939 22.917-13.788 24.227-14.112z" fill="#aeb1b8" opacity=".45"/><path d="m282.474 320.033c.996.244 36.032 16.29 37.191 20.241.741 2.538-.73 7.184-1.622 8.087 1.541 2.375-16.997 16.522-16.951 16.58 0 0-10.543 5.538-12.374 5.758-1.83.22-14.865 6.859-15.467 6.477-11.54-.997-23.508-7.543-28.988-12.05-7.427-6.106-9.709-14.505-8.91-16.301.382-.858 22.454-14.135 23.172-14.842s22.975-13.706 23.96-13.95z" fill="#acafb6" opacity=".46"/><path d="m286.853 322.165c.799.301 36.125 16.209 36.959 19.465.649 2.525-.88 7.16-1.865 7.982 1.02 1.576-18.491 15.224-18.456 15.271 0 0-10.219 5.561-11.436 5.712-1.216.15-13.88 6.905-14.286 6.662-11.771-.973-22.569-6.755-28.13-11.331-7.636-6.245-10.115-14.344-9.605-15.607.231-.579 22.674-13.903 23.16-14.378.487-.475 23.022-13.614 23.682-13.776z" fill="#a9adb4" opacity=".48"/><path d="m291.244 324.297c.614.359 36.218 16.116 36.728 18.677.51 2.56-1.043 7.148-2.121 7.878.51.788-19.997 13.938-19.974 13.95 0 0-9.894 5.596-10.508 5.677-.615.081-12.907 6.963-13.104 6.836-11.992-.95-21.62-5.967-27.274-10.613-7.832-6.407-10.346-14.123-10.3-14.911.151-.278 22.906-13.672 23.137-13.904.232-.231 23.068-13.532 23.404-13.613z" fill="#a7abb2" opacity=".49"/><path d="m329.768 352.127c1.17-.661 2.665-5.283 2.363-7.786-.231-1.9-36.09-17.483-36.507-17.901l-23.126 13.44-23.126 13.44c.429.417 8.099 21.875 37.412 24.099l21.492-12.64 21.492-12.641z" fill="#a5a9b0" opacity=".5"/><path d="m246.823 319.929c4.542-9.663 9.721-17.993 9.779-18.063.498-.811 1.471-.88 2.491-.301.428.255.869.625 1.286 1.112 1.355 1.622 1.888 3.87 1.158 5.017-.046.093-5.329 8.585-9.825 18.283-4.576 9.848-5.746 14.181-6.059 17.576-.244 2.549.22 5.631 3.418 7.473 3.186 1.83 33.46 19.314 35.059 20.241.336.197.661.463.962.753-.104-.093-.197-.197-.255-.244l46.414-26.891c.104.104.637.672.718.765.058.081.44.649.498.73.047.081.093.162.128.231.046.082.197.406.231.487.035.081.07.162.105.255.023.093.231.753.255.869.034.127.046.255.069.382.023.174.035.359.035.545 0 .869-.313 1.494-.823 1.784l-46.367 26.949c.116-.081-1.043.348-1.993-.197l-38.269-22.083c-2.166-1.251-3.928-3.371-4.97-6.001-1.715-4.264-2.584-11.471 5.967-29.684z" fill="#b7c0eb"/><path d="m331.239 343.321c.104.104.382.371.486.487.082.092.163.185.232.289.058.082.116.163.186.255.058.081.115.163.162.244.058.069.104.15.15.231.047.081.093.163.128.232.046.081.081.151.116.232.034.081.069.162.116.243.034.081.069.162.104.243.023.093.058.174.093.267.034.093.057.185.081.29.034.104.058.208.081.312.035.128.046.255.069.383.023.185.035.37.035.544 0 .869-.313 1.495-.823 1.785l-46.367 26.949c.498-.29.811-.904.811-1.796 0-.174-.012-.359-.035-.545-.023-.127-.035-.266-.069-.382-.024-.104-.047-.22-.081-.324-.024-.093-.058-.186-.093-.278-.023-.093-.058-.174-.093-.255s-.069-.174-.104-.255-.07-.162-.104-.244c-.035-.081-.082-.15-.128-.231s-.081-.163-.127-.232c-.047-.093-.093-.162-.151-.243-.046-.081-.104-.163-.162-.244-.058-.092-.128-.162-.186-.255-.069-.092-.15-.185-.22-.278-.104-.104-.428-.428-.533-.533l46.414-26.891z" fill="#eff1fe"/><path d="m291.985 317.032c.035.221.105.777.151.997.035.15.07.301.104.452.035.116.07.231.116.347.035.093.07.197.104.302.035.081.07.173.116.254.035.082.07.163.105.244.034.081.081.162.116.231.034.082.081.151.127.221.046.069.081.139.127.22.047.069.105.15.151.22.058.093.116.174.185.255.07.092.151.185.232.278.104.127.649.625.776.753l-46.437 26.903c-.116-.116-.602-.58-.706-.695-.082-.093-.151-.186-.232-.278-.07-.093-.128-.174-.185-.255-.047-.07-.105-.151-.151-.22-.046-.07-.093-.151-.139-.221-.046-.069-.081-.15-.116-.22-.046-.081-.081-.15-.116-.231-.035-.07-.069-.151-.116-.232-.035-.081-.069-.174-.104-.255-.035-.093-.081-.197-.104-.301-.035-.116-.07-.232-.105-.348-.034-.151-.069-.301-.104-.44-.046-.22-.116-.753-.139-.985l46.356-26.961z" fill="url(#b)"/><path d="m245.664 344.329 46.368-26.949c-.104-.8-.093-1.599-.023-2.352.312-3.395 1.494-7.728 6.071-17.576 4.495-9.698 9.778-18.19 9.825-18.283l-46.368 26.938c-.046.092-5.329 8.585-9.825 18.282-4.576 9.849-5.746 14.182-6.059 17.576-.081.742-.081 1.541.011 2.341z" fill="#eff1fe"/><g mask="url(#h)"><path d="m259.081 299.989 46.367-26.949c-.127-.069-.266-.127-.393-.185l-46.368 26.937c.127.058.255.116.394.197z" fill="#ccc"/><path d="m258.687 299.793 46.367-26.938c-.116-.058-.22-.093-.324-.116l-46.368 26.938c.105.023.22.069.325.116z" fill="#c7c7c7"/><path d="m258.363 299.677 46.367-26.938c-.081-.035-.173-.046-.255-.058l-46.367 26.938c.081.011.162.034.255.058z" fill="#c2c2c2"/><path d="m258.108 299.619 46.367-26.938c-.069-.012-.139-.023-.209-.023l-46.367 26.937c.069 0 .139 0 .209.012z" fill="#bdbdbd"/><path d="m257.9 299.607 46.367-26.938c-.069 0-.127 0-.185 0l-46.368 26.938z" fill="#b8b8b8"/><path d="m257.714 299.607 46.367-26.938c-.058 0-.116 0-.173.024l-46.368 26.937c.058 0 .116 0 .174-.011z" fill="#b3b3b3"/><path d="m257.54 299.619 46.368-26.938s-.105.012-.151.035l-46.367 26.937s.104-.023.15-.034z" fill="#adadad"/><path d="m257.378 299.665 46.367-26.938s-.104.024-.15.058l-46.368 26.95s.093-.035.151-.058z" fill="#a8a8a8"/><path d="m257.239 299.723 46.367-26.949s-.093.035-.139.069l-46.367 26.95s.092-.058.139-.07z" fill="#a3a3a3"/><path d="m257.1 299.792 46.356-26.949-.012.012-46.367 26.937z" fill="#9e9e9e"/></g><path d="m259.081 299.989c-1.008-.579-1.981-.521-2.491.302-.058.069-5.237 8.399-9.779 18.062-8.539 18.214-7.681 25.432-5.967 29.684 1.043 2.63 2.804 4.762 4.971 6.001l38.269 22.083c1.541.893 2.803.186 2.815-1.587 0-1.773-1.251-3.939-2.792-4.831-1.599-.916-31.873-18.411-35.06-20.241-3.186-1.842-3.661-4.924-3.418-7.473.313-3.395 1.483-7.728 6.06-17.576 4.495-9.698 9.779-18.202 9.825-18.283.73-1.147.197-3.395-1.159-5.017-.417-.486-.857-.857-1.286-1.112z" fill="#e4e7fb"/><g mask="url(#i)"><path d="m261.537 306.118 46.368-26.938c.301-.475.394-1.123.289-1.842l-46.356 26.949c.093.719 0 1.368-.301 1.843z" fill="#858585"/><path d="m261.827 304.276 46.356-26.949c-.012-.128-.035-.267-.07-.394l-46.367 26.938c.034.127.057.266.069.393z" fill="#8a8a8a"/><path d="m261.757 303.882 46.368-26.938c-.023-.104-.058-.22-.081-.336l-46.368 26.95c.023.116.047.22.081.324z" fill="#8f8f8f"/><path d="m261.676 303.558 46.368-26.95c-.024-.092-.058-.185-.093-.278l-46.368 26.95c.035.092.07.185.093.289z" fill="#949494"/><path d="m261.595 303.268 46.368-26.949c-.024-.093-.058-.186-.093-.267l-46.368 26.95c.024.081.07.173.093.266z" fill="#999"/><path d="m261.491 303.013 46.368-26.949c-.035-.081-.07-.163-.105-.255l-46.367 26.949c.034.081.069.174.092.255z" fill="#9e9e9e"/><path d="m261.398 302.758 46.368-26.949c-.035-.07-.07-.151-.116-.232l-46.368 26.938c.035.081.081.162.116.243z" fill="#a3a3a3"/><path d="m261.282 302.515 46.367-26.938c-.046-.081-.081-.162-.115-.232l-46.368 26.95c.046.081.081.162.116.231z" fill="#a8a8a8"/><path d="m261.166 302.283 46.368-26.949c-.046-.081-.093-.162-.127-.232l-46.368 26.949c.046.07.081.163.127.232z" fill="#adadad"/><path d="m261.039 302.04 46.368-26.949c-.046-.081-.093-.163-.139-.244l-46.368 26.95c.058.081.105.162.151.243z" fill="#b3b3b3"/><path d="m260.888 301.808 46.368-26.949c-.058-.081-.104-.151-.162-.243l-46.368 26.949c.058.081.116.162.162.243z" fill="#b8b8b8"/><path d="m260.726 301.565 46.367-26.95c-.057-.081-.127-.162-.185-.254l-46.367 26.949c.069.081.127.162.185.255z" fill="#bdbdbd"/><path d="m260.541 301.31 46.367-26.949c-.058-.07-.116-.139-.173-.209-.024-.012-.035-.035-.047-.058l-46.367 26.949s.034.035.058.058c.058.07.116.139.162.209z" fill="#c2c2c2"/><path d="m260.321 301.043 46.367-26.949c-.104-.116-.208-.232-.313-.336l-46.367 26.949c.104.105.208.209.301.336z" fill="#c7c7c7"/><path d="m260.008 300.707 46.367-26.949c-.301-.301-.614-.544-.926-.73l-46.368 26.95c.313.173.626.428.927.718z" fill="#ccc"/></g><path d="m353.044 108.379c.163-.093.325-.186.487-.267.116-.058.232-.104.348-.162.034-.012.069-.035.092-.046.023 0 .035-.012.047-.023.162-.07.324-.151.498-.209.081-.035.174-.07.255-.093.046-.023.081-.034.139-.058.034-.011.081-.034.116-.046.173-.069.347-.116.521-.151.046-.023.081-.023.127-.034.058-.012.105-.035.163-.047.081-.023.162-.034.231-.058.186-.034.359-.069.545-.092h.011s.035 0 .07-.012c.174-.023.336-.046.51-.058h.185c.081 0 .174 0 .255-.011.07 0 .127-.012.185-.012.139 0 .267.012.394.012h.209.069c.151.011.302.034.452.058.104.011.209.023.301.046h.012c.267.046.521.093.776.174 2.086.567 4.171 1.124 6.268 1.703-.255-.07-.521-.128-.799-.174-.093-.012-.186-.023-.267-.035-.185-.023-.37-.046-.556-.058-.069 0-.139 0-.208 0-.197-.011-.394-.011-.591 0-.081 0-.151 0-.232.012-.243.011-.487.035-.741.069-.012 0-.023 0-.023 0-.279.047-.545.093-.8.163-.058.011-.104.023-.162.046-.244.069-.498.139-.753.232-.058.023-.116.046-.174.069-.266.093-.51.197-.765.313-.035.012-.069.035-.116.058-.278.127-.544.278-.822.429l-187.196 99.547-6.269-1.703 187.197-99.547z" fill="url(#c)"/><path d="m163.82 230.195 3.592 130.806c.116.58.266 1.124.429 1.634.011.046.023.07.034.104.174.51.348.997.568 1.46 0 .023.023.058.035.093.209.44.44.869.684 1.274.034.047.069.081.092.139.197.313.417.614.637.904.082.104.174.209.255.313.174.208.36.394.545.591.139.139.278.278.429.405.197.174.405.325.614.475.15.105.289.232.44.325.232.15.475.278.707.394.139.081.278.162.417.22.394.174.788.324 1.193.44-2.085-.568-4.182-1.135-6.268-1.703-.405-.116-.811-.255-1.193-.44-.128-.058-.244-.128-.36-.197-.254-.139-.509-.267-.764-.429-.139-.093-.267-.197-.406-.301-.22-.151-.44-.325-.637-.498-.139-.128-.266-.267-.394-.406-.15-.139-.301-.278-.44-.429-.046-.046-.081-.115-.127-.162-.093-.093-.163-.208-.244-.301-.104-.139-.22-.255-.324-.406-.105-.162-.209-.324-.313-.498-.035-.058-.07-.092-.104-.15-.024-.035-.035-.058-.047-.082-.139-.22-.266-.451-.382-.683-.081-.162-.162-.324-.232-.487-.011-.034-.035-.058-.046-.104-.012-.023-.023-.035-.035-.07-.081-.196-.174-.405-.255-.625-.081-.197-.162-.406-.231-.614-.012-.047-.024-.093-.047-.139-.011-.035-.023-.081-.046-.128-.035-.116-.07-.231-.104-.347-.058-.197-.105-.406-.163-.614-.046-.197-.092-.406-.139-.626 0-.023 0-.023 0-.035l-3.591-130.807 6.268 1.704z" fill="#e4e7fb"/><path d="m251.701 324.413c4.495-9.698 9.778-18.202 9.825-18.283l46.367-26.938c-.046.093-5.329 8.585-9.825 18.283-.915 1.958-2.12 4.843-2.792 6.395l-46.425 27.17c.637-1.506 1.981-4.762 2.85-6.616z" fill="#b7c0eb"/><path d="m172.104 209.618c-6.152 3.557-9.895 12.803-8.284 20.577l3.592 130.807c1.61 7.774 7.959 11.192 14.111 7.646l185.725-107.229c6.164-3.557 9.883-12.802 8.284-20.565l-2.12-123.125c-1.61-7.763-7.96-11.204-14.112-7.647l-187.196 99.548z" fill="#eff1fe"/><path d="m367.608 239.232c1.031-.707 2.711-4.264 2.143-7.044 0 0 0-110.497-.579-113.15-1.448-6.616-9.721-3.986-9.721-3.986l-184.288 97.984c-5.341 3.591-6.801 6.025-6.801 15.456 0 0 1.217 107.217 2.318 112.153 2.212 9.836 10.091 6.453 10.091 6.453z" fill="url(#d)"/><path d="m157.204 225.317c-.011-.232-.011-.464-.011-.695 0-.232 0-.383.011-.568v-.151c.012-.255.035-.509.058-.764.012-.186.035-.371.058-.545 0-.046 0-.081.012-.116 0-.046 0-.092 0-.139.035-.289.081-.591.127-.88.012-.105.035-.197.058-.313.023-.104.035-.197.047-.301.023-.128.046-.255.069-.383.058-.231.104-.463.174-.706.023-.105.046-.209.069-.325.012-.046.024-.104.035-.151.047-.15.093-.289.139-.451.105-.336.209-.684.313-1.02.023-.069.046-.139.07-.197.046-.139.104-.255.139-.382.127-.336.266-.684.405-1.008.081-.209.174-.406.267-.603.15-.324.312-.649.486-.973.07-.127.116-.255.186-.359.023-.046.057-.104.092-.151.244-.44.51-.869.788-1.297.023-.047.046-.081.081-.128.232-.336.475-.672.718-.996.035-.047.07-.081.093-.128.058-.058.105-.116.151-.185.127-.151.243-.301.371-.452.115-.139.243-.266.37-.405.047-.035.081-.082.116-.116.035-.035.058-.07.093-.105.174-.185.371-.359.544-.544.082-.081.174-.151.267-.232.035-.035.069-.069.104-.093.047-.046.093-.092.139-.127.174-.139.336-.29.51-.417.104-.081.209-.151.313-.232.023-.011.046-.035.081-.058s.07-.058.116-.081c.15-.116.324-.22.487-.336.162-.104.324-.197.498-.301l6.268 1.703h-.023c-.36.22-.707.452-1.055.707-.035.023-.069.046-.116.081-.324.232-.637.487-.938.753-.046.035-.093.07-.128.116-.301.266-.591.544-.88.846-.058.058-.104.116-.151.173-.243.255-.486.533-.707.812-.057.081-.115.139-.173.208-.244.301-.464.614-.695.939-.047.057-.082.115-.128.185-.313.452-.602.938-.869 1.425-.093.162-.174.324-.255.487-.174.336-.347.66-.498 1.008-.093.185-.174.37-.243.556-.139.336-.278.672-.406 1.031-.069.197-.139.382-.208.568-.128.359-.22.718-.325 1.066-.046.173-.104.347-.15.532-.047.14-.07.267-.105.406-.081.336-.15.672-.22 1.008-.023.116-.035.22-.058.324-.081.429-.139.858-.197 1.298 0 .058 0 .116-.011.162-.047.464-.081.916-.093 1.379v.104c-.012.464-.012.927 0 1.391v.127c.023.452.07.904.104 1.356 0 .034.012.081.024.127.058.487.127.95.22 1.414l-6.268-1.704c-.035-.197-.082-.394-.116-.579-.035-.22-.07-.417-.093-.637-.011-.058-.023-.139-.035-.197 0-.035 0-.081 0-.128-.011-.104-.034-.208-.034-.312-.024-.22-.035-.441-.058-.649 0-.128-.012-.267-.024-.394 0-.035 0-.07 0-.116 0-.058 0-.104 0-.162z" fill="url(#e)"/><path d="m285.057 370.421 46.367-26.938c-.289-.289-.614-.533-.938-.73-1.599-.915-31.873-18.398-35.048-20.241-.579-.336-1.066-.706-1.472-1.112l-46.367 26.949c.417.406.904.777 1.471 1.101 3.187 1.831 33.461 19.326 35.06 20.241.324.185.649.429.938.718z" fill="url(#f)"/><g fill="#787f88" opacity=".5"><path d="m255.628 280.733v-.591c0-.614.499-1.112 1.113-1.112s1.112.498 1.112 1.112v.591c0 .614-.498 1.113-1.112 1.113s-1.113-.499-1.113-1.113zm0-6.5v-.59c0-.614.499-1.113 1.113-1.113s1.112.499 1.112 1.113v.59c0 .615-.498 1.113-1.112 1.113s-1.113-.498-1.113-1.113zm0-6.499v-.591c0-.614.499-1.112 1.113-1.112s1.112.498 1.112 1.112v.591c0 .614-.498 1.112-1.112 1.112s-1.113-.498-1.113-1.112zm0-6.5v-.591c0-.614.499-1.112 1.113-1.112s1.112.498 1.112 1.112v.591c0 .614-.498 1.112-1.112 1.112s-1.113-.498-1.113-1.112zm0-6.5v-.591c0-.614.499-1.112 1.113-1.112s1.112.498 1.112 1.112v.591c0 .614-.498 1.112-1.112 1.112s-1.113-.498-1.113-1.112zm0-6.5v-.591c0-.614.499-1.112 1.113-1.112s1.112.498 1.112 1.112v.591c0 .614-.498 1.113-1.112 1.113s-1.113-.499-1.113-1.113zm0-6.499v-.591c0-.614.499-1.113 1.113-1.113s1.112.499 1.112 1.113v.591c0 .614-.498 1.112-1.112 1.112s-1.113-.498-1.113-1.112zm0-6.5v-.591c0-.614.499-1.112 1.113-1.112s1.112.498 1.112 1.112v.591c0 .614-.498 1.112-1.112 1.112s-1.113-.498-1.113-1.112zm0-6.5v-.591c0-.614.499-1.112 1.113-1.112s1.112.498 1.112 1.112v.591c0 .614-.498 1.112-1.112 1.112s-1.113-.498-1.113-1.112zm0-6.5v-.591c0-.614.499-1.112 1.113-1.112s1.112.498 1.112 1.112v.591c0 .614-.498 1.112-1.112 1.112s-1.113-.498-1.113-1.112zm0-6.5v-.591c0-.614.499-1.112 1.113-1.112s1.112.498 1.112 1.112v.591c0 .614-.498 1.113-1.112 1.113s-1.113-.499-1.113-1.113zm0-6.499v-.591c0-.614.499-1.113 1.113-1.113s1.112.499 1.112 1.113v.591c0 .614-.498 1.112-1.112 1.112s-1.113-.498-1.113-1.112zm0-6.5v-.591c0-.614.499-1.112 1.113-1.112s1.112.498 1.112 1.112v.591c0 .614-.498 1.112-1.112 1.112s-1.113-.498-1.113-1.112zm0-6.5v-.591c0-.614.499-1.112 1.113-1.112s1.112.498 1.112 1.112v.591c0 .614-.498 1.112-1.112 1.112s-1.113-.498-1.113-1.112z"/><path d="m263.6 215.689v-.591c0-.614.498-1.112 1.112-1.112s1.112.498 1.112 1.112v.591c0 .614-.498 1.112-1.112 1.112s-1.112-.498-1.112-1.112zm0-6.5v-.591c0-.614.498-1.112 1.112-1.112s1.112.498 1.112 1.112v.591c0 .614-.498 1.112-1.112 1.112s-1.112-.498-1.112-1.112zm0-6.5v-.59c0-.615.498-1.113 1.112-1.113s1.112.498 1.112 1.113v.59c0 .614-.498 1.113-1.112 1.113s-1.112-.499-1.112-1.113zm0-6.499v-.591c0-.614.498-1.113 1.112-1.113s1.112.499 1.112 1.113v.591c0 .614-.498 1.112-1.112 1.112s-1.112-.498-1.112-1.112z"/><path d="m270.83 275.184v-.591c0-.614.498-1.113 1.112-1.113s1.112.499 1.112 1.113v.591c0 .614-.498 1.112-1.112 1.112s-1.112-.498-1.112-1.112zm0-6.512v-.591c0-.614.498-1.112 1.112-1.112s1.112.498 1.112 1.112v.591c0 .614-.498 1.112-1.112 1.112s-1.112-.498-1.112-1.112zm0-6.5v-.591c0-.614.498-1.112 1.112-1.112s1.112.498 1.112 1.112v.591c0 .614-.498 1.113-1.112 1.113s-1.112-.499-1.112-1.113zm0-6.499v-.591c0-.614.498-1.113 1.112-1.113s1.112.499 1.112 1.113v.591c0 .614-.498 1.112-1.112 1.112s-1.112-.498-1.112-1.112zm0-6.5v-.591c0-.614.498-1.112 1.112-1.112s1.112.498 1.112 1.112v.591c0 .614-.498 1.112-1.112 1.112s-1.112-.498-1.112-1.112zm0-6.5v-.591c0-.614.498-1.112 1.112-1.112s1.112.498 1.112 1.112v.591c0 .614-.498 1.112-1.112 1.112s-1.112-.498-1.112-1.112zm0-6.5v-.591c0-.614.498-1.112 1.112-1.112s1.112.498 1.112 1.112v.591c0 .614-.498 1.112-1.112 1.112s-1.112-.498-1.112-1.112zm0-6.5v-.59c0-.615.498-1.113 1.112-1.113s1.112.498 1.112 1.113v.59c0 .614-.498 1.113-1.112 1.113s-1.112-.499-1.112-1.113zm0-6.499v-.591c0-.614.498-1.113 1.112-1.113s1.112.499 1.112 1.113v.591c0 .614-.498 1.112-1.112 1.112s-1.112-.498-1.112-1.112zm0-6.5v-.591c0-.614.498-1.112 1.112-1.112s1.112.498 1.112 1.112v.591c0 .614-.498 1.112-1.112 1.112s-1.112-.498-1.112-1.112zm0-6.5v-.591c0-.614.498-1.112 1.112-1.112s1.112.498 1.112 1.112v.591c0 .614-.498 1.112-1.112 1.112s-1.112-.498-1.112-1.112zm0-6.5v-.591c0-.614.498-1.112 1.112-1.112s1.112.498 1.112 1.112v.591c0 .614-.498 1.113-1.112 1.113s-1.112-.499-1.112-1.113zm0-6.5v-.59c0-.614.498-1.113 1.112-1.113s1.112.499 1.112 1.113v.59c0 .615-.498 1.113-1.112 1.113s-1.112-.498-1.112-1.113zm0-6.499v-.591c0-.614.498-1.112 1.112-1.112s1.112.498 1.112 1.112v.591c0 .614-.498 1.112-1.112 1.112s-1.112-.498-1.112-1.112zm0-6.5v-.591c0-.614.498-1.112 1.112-1.112s1.112.498 1.112 1.112v.591c0 .614-.498 1.112-1.112 1.112s-1.112-.498-1.112-1.112zm0-6.5v-.591c0-.614.498-1.112 1.112-1.112s1.112.498 1.112 1.112v.591c0 .614-.498 1.112-1.112 1.112s-1.112-.498-1.112-1.112zm0-6.5v-.591c0-.614.498-1.112 1.112-1.112s1.112.498 1.112 1.112v.591c0 .614-.498 1.113-1.112 1.113s-1.112-.499-1.112-1.113z"/><path d="m278.905 273.944v-.591c0-.614.498-1.112 1.112-1.112s1.112.498 1.112 1.112v.591c0 .614-.498 1.112-1.112 1.112s-1.112-.498-1.112-1.112zm0-6.5v-.591c0-.614.498-1.112 1.112-1.112s1.112.498 1.112 1.112v.591c0 .614-.498 1.112-1.112 1.112s-1.112-.498-1.112-1.112zm0-6.5v-.591c0-.614.498-1.112 1.112-1.112s1.112.498 1.112 1.112v.591c0 .614-.498 1.112-1.112 1.112s-1.112-.498-1.112-1.112zm0-6.5v-.59c0-.615.498-1.113 1.112-1.113s1.112.498 1.112 1.113v.59c0 .614-.498 1.113-1.112 1.113s-1.112-.499-1.112-1.113zm0-6.499v-.591c0-.614.498-1.113 1.112-1.113s1.112.499 1.112 1.113v.591c0 .614-.498 1.112-1.112 1.112s-1.112-.498-1.112-1.112zm0-6.5v-.591c0-.614.498-1.112 1.112-1.112s1.112.498 1.112 1.112v.591c0 .614-.498 1.112-1.112 1.112s-1.112-.498-1.112-1.112zm0-6.5v-.591c0-.614.498-1.112 1.112-1.112s1.112.498 1.112 1.112v.591c0 .614-.498 1.112-1.112 1.112s-1.112-.498-1.112-1.112zm0-6.5v-.591c0-.614.498-1.112 1.112-1.112s1.112.498 1.112 1.112v.591c0 .614-.498 1.113-1.112 1.113s-1.112-.499-1.112-1.113zm0-6.5v-.59c0-.614.498-1.113 1.112-1.113s1.112.499 1.112 1.113v.59c0 .615-.498 1.113-1.112 1.113s-1.112-.498-1.112-1.113zm0-6.499v-.591c0-.614.498-1.112 1.112-1.112s1.112.498 1.112 1.112v.591c0 .614-.498 1.112-1.112 1.112s-1.112-.498-1.112-1.112zm0-6.5v-.591c0-.614.498-1.112 1.112-1.112s1.112.498 1.112 1.112v.591c0 .614-.498 1.112-1.112 1.112s-1.112-.498-1.112-1.112zm0-6.5v-.591c0-.614.498-1.112 1.112-1.112s1.112.498 1.112 1.112v.591c0 .614-.498 1.112-1.112 1.112s-1.112-.498-1.112-1.112zm0-6.5v-.591c0-.614.498-1.112 1.112-1.112s1.112.498 1.112 1.112v.591c0 .614-.498 1.113-1.112 1.113s-1.112-.499-1.112-1.113zm0-6.499v-.591c0-.614.498-1.113 1.112-1.113s1.112.499 1.112 1.113v.591c0 .614-.498 1.112-1.112 1.112s-1.112-.498-1.112-1.112zm0-6.5v-.591c0-.614.498-1.112 1.112-1.112s1.112.498 1.112 1.112v.591c0 .614-.498 1.112-1.112 1.112s-1.112-.498-1.112-1.112zm0-6.5v-.591c0-.614.498-1.112 1.112-1.112s1.112.498 1.112 1.112v.591c0 .614-.498 1.112-1.112 1.112s-1.112-.498-1.112-1.112zm0-6.5v-.591c0-.614.498-1.112 1.112-1.112s1.112.498 1.112 1.112v.591c0 .614-.498 1.112-1.112 1.112s-1.112-.498-1.112-1.112zm0-6.5v-.591c0-.614.498-1.112 1.112-1.112s1.112.498 1.112 1.112v.591c0 .614-.498 1.113-1.112 1.113s-1.112-.499-1.112-1.113z"/><path d="m287.78 269.031v-.591c0-.614.498-1.112 1.112-1.112s1.112.498 1.112 1.112v.591c0 .614-.498 1.113-1.112 1.113s-1.112-.499-1.112-1.113zm0-6.499v-.591c0-.614.498-1.113 1.112-1.113s1.112.499 1.112 1.113v.591c0 .614-.498 1.112-1.112 1.112s-1.112-.498-1.112-1.112zm0-6.5v-.591c0-.614.498-1.112 1.112-1.112s1.112.498 1.112 1.112v.591c0 .614-.498 1.112-1.112 1.112s-1.112-.498-1.112-1.112zm0-6.5v-.591c0-.614.498-1.112 1.112-1.112s1.112.498 1.112 1.112v.591c0 .614-.498 1.112-1.112 1.112s-1.112-.498-1.112-1.112zm0-6.5v-.591c0-.614.498-1.112 1.112-1.112s1.112.498 1.112 1.112v.591c0 .614-.498 1.112-1.112 1.112s-1.112-.498-1.112-1.112zm0-6.5v-.591c0-.614.498-1.112 1.112-1.112s1.112.498 1.112 1.112v.591c0 .614-.498 1.113-1.112 1.113s-1.112-.499-1.112-1.113zm0-6.499v-.591c0-.614.498-1.113 1.112-1.113s1.112.499 1.112 1.113v.591c0 .614-.498 1.112-1.112 1.112s-1.112-.498-1.112-1.112zm0-6.5v-.591c0-.614.498-1.112 1.112-1.112s1.112.498 1.112 1.112v.591c0 .614-.498 1.112-1.112 1.112s-1.112-.498-1.112-1.112zm0-6.5v-.591c0-.614.498-1.112 1.112-1.112s1.112.498 1.112 1.112v.591c0 .614-.498 1.112-1.112 1.112s-1.112-.498-1.112-1.112zm0-6.5v-.591c0-.614.498-1.112 1.112-1.112s1.112.498 1.112 1.112v.591c0 .614-.498 1.112-1.112 1.112s-1.112-.498-1.112-1.112zm0-6.5v-.59c0-.615.498-1.113 1.112-1.113s1.112.498 1.112 1.113v.59c0 .614-.498 1.113-1.112 1.113s-1.112-.499-1.112-1.113zm0-6.499v-.591c0-.614.498-1.113 1.112-1.113s1.112.499 1.112 1.113v.591c0 .614-.498 1.112-1.112 1.112s-1.112-.498-1.112-1.112zm0-6.5v-.591c0-.614.498-1.112 1.112-1.112s1.112.498 1.112 1.112v.591c0 .614-.498 1.112-1.112 1.112s-1.112-.498-1.112-1.112zm0-6.5v-.591c0-.614.498-1.112 1.112-1.112s1.112.498 1.112 1.112v.591c0 .614-.498 1.112-1.112 1.112s-1.112-.498-1.112-1.112zm0-6.5v-.591c0-.614.498-1.112 1.112-1.112s1.112.498 1.112 1.112v.591c0 .614-.498 1.113-1.112 1.113s-1.112-.499-1.112-1.113zm0-6.5v-.59c0-.614.498-1.113 1.112-1.113s1.112.499 1.112 1.113v.59c0 .615-.498 1.113-1.112 1.113s-1.112-.498-1.112-1.113zm0-6.499v-.591c0-.614.498-1.112 1.112-1.112s1.112.498 1.112 1.112v.591c0 .614-.498 1.112-1.112 1.112s-1.112-.498-1.112-1.112zm0-6.5v-.591c0-.614.498-1.112 1.112-1.112s1.112.498 1.112 1.112v.591c0 .614-.498 1.112-1.112 1.112s-1.112-.498-1.112-1.112z"/><path d="m294.824 249.509v-.591c0-.614.498-1.112 1.112-1.112s1.113.498 1.113 1.112v.591c0 .614-.499 1.112-1.113 1.112s-1.112-.498-1.112-1.112zm0-6.5v-.591c0-.614.498-1.112 1.112-1.112s1.113.498 1.113 1.112v.591c0 .614-.499 1.112-1.113 1.112s-1.112-.498-1.112-1.112zm0-6.5v-.591c0-.614.498-1.112 1.112-1.112s1.113.498 1.113 1.112v.591c0 .614-.499 1.112-1.113 1.112s-1.112-.498-1.112-1.112zm0-6.5v-.591c0-.614.498-1.112 1.112-1.112s1.113.498 1.113 1.112v.591c0 .614-.499 1.113-1.113 1.113s-1.112-.499-1.112-1.113zm0-6.499v-.591c0-.614.498-1.113 1.112-1.113s1.113.499 1.113 1.113v.591c0 .614-.499 1.112-1.113 1.112s-1.112-.498-1.112-1.112zm0-6.5v-.591c0-.614.498-1.112 1.112-1.112s1.113.498 1.113 1.112v.591c0 .614-.499 1.112-1.113 1.112s-1.112-.498-1.112-1.112zm0-6.5v-.591c0-.614.498-1.112 1.112-1.112s1.113.498 1.113 1.112v.591c0 .614-.499 1.112-1.113 1.112s-1.112-.498-1.112-1.112zm0-6.5v-.591c0-.614.498-1.112 1.112-1.112s1.113.498 1.113 1.112v.591c0 .614-.499 1.112-1.113 1.112s-1.112-.498-1.112-1.112zm0-6.5v-.59c0-.615.498-1.113 1.112-1.113s1.113.498 1.113 1.113v.59c0 .614-.499 1.113-1.113 1.113s-1.112-.499-1.112-1.113zm0-6.499v-.591c0-.614.498-1.113 1.112-1.113s1.113.499 1.113 1.113v.591c0 .614-.499 1.112-1.113 1.112s-1.112-.498-1.112-1.112zm0-6.5v-.591c0-.614.498-1.112 1.112-1.112s1.113.498 1.113 1.112v.591c0 .614-.499 1.112-1.113 1.112s-1.112-.498-1.112-1.112zm0-6.5v-.591c0-.614.498-1.112 1.112-1.112s1.113.498 1.113 1.112v.591c0 .614-.499 1.112-1.113 1.112s-1.112-.498-1.112-1.112zm0-6.5v-.591c0-.614.498-1.112 1.112-1.112s1.113.498 1.113 1.112v.591c0 .614-.499 1.113-1.113 1.113s-1.112-.499-1.112-1.113zm0-6.5v-.59c0-.614.498-1.113 1.112-1.113s1.113.499 1.113 1.113v.59c0 .615-.499 1.113-1.113 1.113s-1.112-.498-1.112-1.113zm0-6.499v-.591c0-.614.498-1.112 1.112-1.112s1.113.498 1.113 1.112v.591c0 .614-.499 1.112-1.113 1.112s-1.112-.498-1.112-1.112z"/><path d="m303.062 243.472v-.59c0-.615.498-1.113 1.112-1.113s1.112.498 1.112 1.113v.59c0 .615-.498 1.113-1.112 1.113s-1.112-.498-1.112-1.113zm0-6.499v-.591c0-.614.498-1.113 1.112-1.113s1.112.499 1.112 1.113v.591c0 .614-.498 1.112-1.112 1.112s-1.112-.498-1.112-1.112zm0-6.5v-.591c0-.614.498-1.112 1.112-1.112s1.112.498 1.112 1.112v.591c0 .614-.498 1.112-1.112 1.112s-1.112-.498-1.112-1.112zm0-6.5v-.591c0-.614.498-1.112 1.112-1.112s1.112.498 1.112 1.112v.591c0 .614-.498 1.112-1.112 1.112s-1.112-.498-1.112-1.112zm0-6.5v-.591c0-.614.498-1.112 1.112-1.112s1.112.498 1.112 1.112v.591c0 .614-.498 1.113-1.112 1.113s-1.112-.499-1.112-1.113zm0-6.5v-.59c0-.614.498-1.113 1.112-1.113s1.112.499 1.112 1.113v.59c0 .615-.498 1.113-1.112 1.113s-1.112-.498-1.112-1.113zm0-6.499v-.591c0-.614.498-1.112 1.112-1.112s1.112.498 1.112 1.112v.591c0 .614-.498 1.112-1.112 1.112s-1.112-.498-1.112-1.112zm0-6.5v-.591c0-.614.498-1.112 1.112-1.112s1.112.498 1.112 1.112v.591c0 .614-.498 1.112-1.112 1.112s-1.112-.498-1.112-1.112zm0-6.5v-.591c0-.614.498-1.112 1.112-1.112s1.112.498 1.112 1.112v.591c0 .614-.498 1.112-1.112 1.112s-1.112-.498-1.112-1.112zm0-6.5v-.591c0-.614.498-1.112 1.112-1.112s1.112.498 1.112 1.112v.591c0 .614-.498 1.113-1.112 1.113s-1.112-.499-1.112-1.113zm0-6.499v-.591c0-.614.498-1.113 1.112-1.113s1.112.499 1.112 1.113v.591c0 .614-.498 1.112-1.112 1.112s-1.112-.498-1.112-1.112zm0-6.5v-.591c0-.614.498-1.112 1.112-1.112s1.112.498 1.112 1.112v.591c0 .614-.498 1.112-1.112 1.112s-1.112-.498-1.112-1.112zm0-6.5v-.591c0-.614.498-1.112 1.112-1.112s1.112.498 1.112 1.112v.591c0 .614-.498 1.112-1.112 1.112s-1.112-.498-1.112-1.112zm0-6.5v-.591c0-.614.498-1.112 1.112-1.112s1.112.498 1.112 1.112v.591c0 .614-.498 1.112-1.112 1.112s-1.112-.498-1.112-1.112z"/><path d="m318.726 163.436v-.591c0-.614.498-1.112 1.112-1.112s1.113.498 1.113 1.112v.591c0 .614-.499 1.112-1.113 1.112s-1.112-.498-1.112-1.112zm0-6.5v-.591c0-.614.498-1.112 1.112-1.112s1.113.498 1.113 1.112v.591c0 .614-.499 1.112-1.113 1.112s-1.112-.498-1.112-1.112zm0-6.5v-.591c0-.614.498-1.112 1.112-1.112s1.113.498 1.113 1.112v.591c0 .614-.499 1.112-1.113 1.112s-1.112-.498-1.112-1.112zm0-6.5v-.59c0-.615.498-1.113 1.112-1.113s1.113.498 1.113 1.113v.59c0 .614-.499 1.113-1.113 1.113s-1.112-.499-1.112-1.113z"/><path d="m325.782 241.132v-.591c0-.614.498-1.112 1.112-1.112.615 0 1.113.498 1.113 1.112v.591c0 .614-.498 1.112-1.113 1.112-.614 0-1.112-.498-1.112-1.112zm0-6.5v-.591c0-.614.498-1.112 1.112-1.112.615 0 1.113.498 1.113 1.112v.591c0 .614-.498 1.113-1.113 1.113-.614 0-1.112-.499-1.112-1.113zm0-6.5v-.59c0-.614.498-1.113 1.112-1.113.615 0 1.113.499 1.113 1.113v.59c0 .615-.498 1.113-1.113 1.113-.614 0-1.112-.498-1.112-1.113zm0-6.499v-.591c0-.614.498-1.112 1.112-1.112.615 0 1.113.498 1.113 1.112v.591c0 .614-.498 1.112-1.113 1.112-.614 0-1.112-.498-1.112-1.112zm0-6.5v-.591c0-.614.498-1.112 1.112-1.112.615 0 1.113.498 1.113 1.112v.591c0 .614-.498 1.112-1.113 1.112-.614 0-1.112-.498-1.112-1.112zm0-6.5v-.591c0-.614.498-1.112 1.112-1.112.615 0 1.113.498 1.113 1.112v.591c0 .614-.498 1.112-1.113 1.112-.614 0-1.112-.498-1.112-1.112zm0-6.5v-.591c0-.614.498-1.112 1.112-1.112.615 0 1.113.498 1.113 1.112v.591c0 .614-.498 1.113-1.113 1.113-.614 0-1.112-.499-1.112-1.113zm0-6.499v-.591c0-.614.498-1.113 1.112-1.113.615 0 1.113.499 1.113 1.113v.591c0 .614-.498 1.112-1.113 1.112-.614 0-1.112-.498-1.112-1.112zm0-6.5v-.591c0-.614.498-1.112 1.112-1.112.615 0 1.113.498 1.113 1.112v.591c0 .614-.498 1.112-1.113 1.112-.614 0-1.112-.498-1.112-1.112zm0-6.5v-.591c0-.614.498-1.112 1.112-1.112.615 0 1.113.498 1.113 1.112v.591c0 .614-.498 1.112-1.113 1.112-.614 0-1.112-.498-1.112-1.112zm0-6.5v-.591c0-.614.498-1.112 1.112-1.112.615 0 1.113.498 1.113 1.112v.591c0 .614-.498 1.112-1.113 1.112-.614 0-1.112-.498-1.112-1.112zm0-6.5v-.591c0-.614.498-1.112 1.112-1.112.615 0 1.113.498 1.113 1.112v.591c0 .614-.498 1.113-1.113 1.113-.614 0-1.112-.499-1.112-1.113zm0-6.499v-.591c0-.614.498-1.113 1.112-1.113.615 0 1.113.499 1.113 1.113v.591c0 .614-.498 1.112-1.113 1.112-.614 0-1.112-.498-1.112-1.112zm0-6.5v-.591c0-.614.498-1.112 1.112-1.112.615 0 1.113.498 1.113 1.112v.591c0 .614-.498 1.112-1.113 1.112-.614 0-1.112-.498-1.112-1.112zm0-6.5v-.591c0-.614.498-1.112 1.112-1.112.615 0 1.113.498 1.113 1.112v.591c0 .614-.498 1.112-1.113 1.112-.614 0-1.112-.498-1.112-1.112zm0-6.5v-.591c0-.614.498-1.112 1.112-1.112.615 0 1.113.498 1.113 1.112v.591c0 .614-.498 1.112-1.113 1.112-.614 0-1.112-.498-1.112-1.112zm0-6.5v-.59c0-.615.498-1.113 1.112-1.113.615 0 1.113.498 1.113 1.113v.59c0 .614-.498 1.113-1.113 1.113-.614 0-1.112-.499-1.112-1.113z"/><path d="m331.378 226.846v-.59c0-.615.498-1.113 1.112-1.113s1.113.498 1.113 1.113v.59c0 .615-.499 1.113-1.113 1.113s-1.112-.498-1.112-1.113zm0-6.499v-.591c0-.614.498-1.112 1.112-1.112s1.113.498 1.113 1.112v.591c0 .614-.499 1.112-1.113 1.112s-1.112-.498-1.112-1.112zm0-6.5v-.591c0-.614.498-1.112 1.112-1.112s1.113.498 1.113 1.112v.591c0 .614-.499 1.112-1.113 1.112s-1.112-.498-1.112-1.112zm0-6.5v-.591c0-.614.498-1.112 1.112-1.112s1.113.498 1.113 1.112v.591c0 .614-.499 1.112-1.113 1.112s-1.112-.498-1.112-1.112zm0-6.5v-.591c0-.614.498-1.112 1.112-1.112s1.113.498 1.113 1.112v.591c0 .614-.499 1.113-1.113 1.113s-1.112-.499-1.112-1.113zm0-6.5v-.59c0-.614.498-1.113 1.112-1.113s1.113.499 1.113 1.113v.59c0 .615-.499 1.113-1.113 1.113s-1.112-.498-1.112-1.113zm0-6.499v-.591c0-.614.498-1.112 1.112-1.112s1.113.498 1.113 1.112v.591c0 .614-.499 1.112-1.113 1.112s-1.112-.498-1.112-1.112zm0-6.5v-.591c0-.614.498-1.112 1.112-1.112s1.113.498 1.113 1.112v.591c0 .614-.499 1.112-1.113 1.112s-1.112-.498-1.112-1.112zm0-6.5v-.591c0-.614.498-1.112 1.112-1.112s1.113.498 1.113 1.112v.591c0 .614-.499 1.112-1.113 1.112s-1.112-.498-1.112-1.112zm0-6.5v-.591c0-.614.498-1.112 1.112-1.112s1.113.498 1.113 1.112v.591c0 .614-.499 1.113-1.113 1.113s-1.112-.499-1.112-1.113zm0-6.499v-.591c0-.614.498-1.113 1.112-1.113s1.113.499 1.113 1.113v.591c0 .614-.499 1.112-1.113 1.112s-1.112-.498-1.112-1.112zm0-6.5v-.591c0-.614.498-1.112 1.112-1.112s1.113.498 1.113 1.112v.591c0 .614-.499 1.112-1.113 1.112s-1.112-.498-1.112-1.112zm0-6.5v-.591c0-.614.498-1.112 1.112-1.112s1.113.498 1.113 1.112v.591c0 .614-.499 1.112-1.113 1.112s-1.112-.498-1.112-1.112zm0-6.5v-.591c0-.614.498-1.112 1.112-1.112s1.113.498 1.113 1.112v.591c0 .614-.499 1.112-1.113 1.112s-1.112-.498-1.112-1.112zm0-6.5v-.59c0-.615.498-1.113 1.112-1.113s1.113.498 1.113 1.113v.59c0 .614-.499 1.113-1.113 1.113s-1.112-.499-1.112-1.113z"/><path d="m338.805 133.938c.614 0 1.112-.498 1.112-1.113v-.59c0-.614-.498-1.113-1.112-1.113s-1.113.499-1.113 1.113v.59c0 .615.499 1.113 1.113 1.113z"/><path d="m345.003 171.847v-.59c0-.615.499-1.113 1.113-1.113s1.112.498 1.112 1.113v.59c0 .614-.498 1.113-1.112 1.113s-1.113-.499-1.113-1.113zm0-6.499v-.591c0-.614.499-1.113 1.113-1.113s1.112.499 1.112 1.113v.591c0 .614-.498 1.112-1.112 1.112s-1.113-.498-1.113-1.112zm0-6.5v-.591c0-.614.499-1.112 1.113-1.112s1.112.498 1.112 1.112v.591c0 .614-.498 1.112-1.112 1.112s-1.113-.498-1.113-1.112zm0-6.5v-.591c0-.614.499-1.112 1.113-1.112s1.112.498 1.112 1.112v.591c0 .614-.498 1.112-1.112 1.112s-1.113-.498-1.113-1.112zm0-6.5v-.591c0-.614.499-1.112 1.113-1.112s1.112.498 1.112 1.112v.591c0 .614-.498 1.113-1.112 1.113s-1.113-.499-1.113-1.113zm0-6.5v-.59c0-.615.499-1.113 1.113-1.113s1.112.498 1.112 1.113v.59c0 .615-.498 1.113-1.112 1.113s-1.113-.498-1.113-1.113zm0-6.499v-.591c0-.614.499-1.112 1.113-1.112s1.112.498 1.112 1.112v.591c0 .614-.498 1.112-1.112 1.112s-1.113-.498-1.113-1.112z"/><path d="m351.688 234.458v-.59c0-.614.499-1.113 1.113-1.113s1.112.499 1.112 1.113v.59c0 .615-.498 1.113-1.112 1.113s-1.113-.498-1.113-1.113zm0-6.499v-.591c0-.614.499-1.112 1.113-1.112s1.112.498 1.112 1.112v.591c0 .614-.498 1.112-1.112 1.112s-1.113-.498-1.113-1.112zm0-6.5v-.591c0-.614.499-1.112 1.113-1.112s1.112.498 1.112 1.112v.591c0 .614-.498 1.112-1.112 1.112s-1.113-.498-1.113-1.112zm0-6.5v-.591c0-.614.499-1.112 1.113-1.112s1.112.498 1.112 1.112v.591c0 .614-.498 1.112-1.112 1.112s-1.113-.498-1.113-1.112zm0-6.5v-.591c0-.614.499-1.112 1.113-1.112s1.112.498 1.112 1.112v.591c0 .614-.498 1.113-1.112 1.113s-1.113-.499-1.113-1.113zm0-6.499v-.591c0-.614.499-1.113 1.113-1.113s1.112.499 1.112 1.113v.591c0 .614-.498 1.112-1.112 1.112s-1.113-.498-1.113-1.112zm0-6.5v-.591c0-.614.499-1.112 1.113-1.112s1.112.498 1.112 1.112v.591c0 .614-.498 1.112-1.112 1.112s-1.113-.498-1.113-1.112zm0-6.5v-.591c0-.614.499-1.112 1.113-1.112s1.112.498 1.112 1.112v.591c0 .614-.498 1.112-1.112 1.112s-1.113-.498-1.113-1.112zm0-6.5v-.591c0-.614.499-1.112 1.113-1.112s1.112.498 1.112 1.112v.591c0 .614-.498 1.112-1.112 1.112s-1.113-.498-1.113-1.112zm0-6.5v-.591c0-.614.499-1.112 1.113-1.112s1.112.498 1.112 1.112v.591c0 .614-.498 1.113-1.112 1.113s-1.113-.499-1.113-1.113zm0-6.499v-.591c0-.614.499-1.113 1.113-1.113s1.112.499 1.112 1.113v.591c0 .614-.498 1.112-1.112 1.112s-1.113-.498-1.113-1.112zm0-6.5v-.591c0-.614.499-1.112 1.113-1.112s1.112.498 1.112 1.112v.591c0 .614-.498 1.112-1.112 1.112s-1.113-.498-1.113-1.112zm0-6.5v-.591c0-.614.499-1.112 1.113-1.112s1.112.498 1.112 1.112v.591c0 .614-.498 1.112-1.112 1.112s-1.113-.498-1.113-1.112zm0-6.5v-.591c0-.614.499-1.112 1.113-1.112s1.112.498 1.112 1.112v.591c0 .614-.498 1.112-1.112 1.112s-1.113-.498-1.113-1.112zm0-6.5v-.59c0-.615.499-1.113 1.113-1.113s1.112.498 1.112 1.113v.59c0 .614-.498 1.113-1.112 1.113s-1.113-.499-1.113-1.113zm0-6.499v-.591c0-.614.499-1.113 1.113-1.113s1.112.499 1.112 1.113v.591c0 .614-.498 1.112-1.112 1.112s-1.113-.498-1.113-1.112zm0-6.5v-.591c0-.614.499-1.112 1.113-1.112s1.112.498 1.112 1.112v.591c0 .614-.498 1.112-1.112 1.112s-1.113-.498-1.113-1.112z"/><path d="m310.593 256.24v-.591c0-.614.498-1.112 1.112-1.112s1.112.498 1.112 1.112v.591c0 .614-.498 1.112-1.112 1.112s-1.112-.498-1.112-1.112zm0-6.5v-.59c0-.615.498-1.113 1.112-1.113s1.112.498 1.112 1.113v.59c0 .614-.498 1.113-1.112 1.113s-1.112-.499-1.112-1.113zm0-6.499v-.591c0-.614.498-1.113 1.112-1.113s1.112.499 1.112 1.113v.591c0 .614-.498 1.112-1.112 1.112s-1.112-.498-1.112-1.112zm0-6.5v-.591c0-.614.498-1.112 1.112-1.112s1.112.498 1.112 1.112v.591c0 .614-.498 1.112-1.112 1.112s-1.112-.498-1.112-1.112zm0-6.5v-.591c0-.614.498-1.112 1.112-1.112s1.112.498 1.112 1.112v.591c0 .614-.498 1.112-1.112 1.112s-1.112-.498-1.112-1.112zm0-6.5v-.591c0-.614.498-1.112 1.112-1.112s1.112.498 1.112 1.112v.591c0 .614-.498 1.113-1.112 1.113s-1.112-.499-1.112-1.113zm0-6.5v-.59c0-.614.498-1.113 1.112-1.113s1.112.499 1.112 1.113v.59c0 .615-.498 1.113-1.112 1.113s-1.112-.498-1.112-1.113zm0-6.499v-.591c0-.614.498-1.112 1.112-1.112s1.112.498 1.112 1.112v.591c0 .614-.498 1.112-1.112 1.112s-1.112-.498-1.112-1.112zm0-6.5v-.591c0-.614.498-1.112 1.112-1.112s1.112.498 1.112 1.112v.591c0 .614-.498 1.112-1.112 1.112s-1.112-.498-1.112-1.112zm0-6.5v-.591c0-.614.498-1.112 1.112-1.112s1.112.498 1.112 1.112v.591c0 .614-.498 1.112-1.112 1.112s-1.112-.498-1.112-1.112zm0-6.5v-.591c0-.614.498-1.112 1.112-1.112s1.112.498 1.112 1.112v.591c0 .614-.498 1.113-1.112 1.113s-1.112-.499-1.112-1.113zm0-6.499v-.591c0-.614.498-1.113 1.112-1.113s1.112.499 1.112 1.113v.591c0 .614-.498 1.112-1.112 1.112s-1.112-.498-1.112-1.112zm0-6.5v-.591c0-.614.498-1.112 1.112-1.112s1.112.498 1.112 1.112v.591c0 .614-.498 1.112-1.112 1.112s-1.112-.498-1.112-1.112zm0-6.5v-.591c0-.614.498-1.112 1.112-1.112s1.112.498 1.112 1.112v.591c0 .614-.498 1.112-1.112 1.112s-1.112-.498-1.112-1.112zm0-6.5v-.591c0-.614.498-1.112 1.112-1.112s1.112.498 1.112 1.112v.591c0 .614-.498 1.112-1.112 1.112s-1.112-.498-1.112-1.112zm0-6.5v-.591c0-.614.498-1.112 1.112-1.112s1.112.498 1.112 1.112v.591c0 .614-.498 1.113-1.112 1.113s-1.112-.499-1.112-1.113zm0-6.499v-.591c0-.614.498-1.113 1.112-1.113s1.112.499 1.112 1.113v.591c0 .614-.498 1.112-1.112 1.112s-1.112-.498-1.112-1.112zm0-6.5v-.591c0-.614.498-1.112 1.112-1.112s1.112.498 1.112 1.112v.591c0 .614-.498 1.112-1.112 1.112s-1.112-.498-1.112-1.112z"/></g><g fill="#787f88" opacity=".5"><path d="m185.544 314.854v-.591c0-.614.499-1.112 1.113-1.112s1.112.498 1.112 1.112v.591c0 .614-.498 1.112-1.112 1.112s-1.113-.498-1.113-1.112zm0-6.5v-.591c0-.614.499-1.112 1.113-1.112s1.112.498 1.112 1.112v.591c0 .614-.498 1.113-1.112 1.113s-1.113-.499-1.113-1.113zm0-6.499v-.591c0-.614.499-1.113 1.113-1.113s1.112.499 1.112 1.113v.591c0 .614-.498 1.112-1.112 1.112s-1.113-.498-1.113-1.112zm0-6.5v-.591c0-.614.499-1.112 1.113-1.112s1.112.498 1.112 1.112v.591c0 .614-.498 1.112-1.112 1.112s-1.113-.498-1.113-1.112zm0-6.5v-.591c0-.614.499-1.112 1.113-1.112s1.112.498 1.112 1.112v.591c0 .614-.498 1.112-1.112 1.112s-1.113-.498-1.113-1.112zm0-6.5v-.591c0-.614.499-1.112 1.113-1.112s1.112.498 1.112 1.112v.591c0 .614-.498 1.112-1.112 1.112s-1.113-.498-1.113-1.112zm0-6.5v-.59c0-.615.499-1.113 1.113-1.113s1.112.498 1.112 1.113v.59c0 .614-.498 1.113-1.112 1.113s-1.113-.499-1.113-1.113zm0-6.499v-.591c0-.614.499-1.113 1.113-1.113s1.112.499 1.112 1.113v.591c0 .614-.498 1.112-1.112 1.112s-1.113-.498-1.113-1.112zm0-6.5v-.591c0-.614.499-1.112 1.113-1.112s1.112.498 1.112 1.112v.591c0 .614-.498 1.112-1.112 1.112s-1.113-.498-1.113-1.112zm0-6.5v-.591c0-.614.499-1.112 1.113-1.112s1.112.498 1.112 1.112v.591c0 .614-.498 1.112-1.112 1.112s-1.113-.498-1.113-1.112zm0-6.5v-.591c0-.614.499-1.112 1.113-1.112s1.112.498 1.112 1.112v.591c0 .614-.498 1.113-1.112 1.113s-1.113-.499-1.113-1.113zm0-6.5v-.59c0-.614.499-1.113 1.113-1.113s1.112.499 1.112 1.113v.59c0 .615-.498 1.113-1.112 1.113s-1.113-.498-1.113-1.113zm0-6.499v-.591c0-.614.499-1.112 1.113-1.112s1.112.498 1.112 1.112v.591c0 .614-.498 1.112-1.112 1.112s-1.113-.498-1.113-1.112zm0-6.5v-.591c0-.614.499-1.112 1.113-1.112s1.112.498 1.112 1.112v.591c0 .614-.498 1.112-1.112 1.112s-1.113-.498-1.113-1.112zm0-6.5v-.591c0-.614.499-1.112 1.113-1.112s1.112.498 1.112 1.112v.591c0 .614-.498 1.112-1.112 1.112s-1.113-.498-1.113-1.112z"/><path d="m193.782 287.048v-.591c0-.614.498-1.113 1.112-1.113s1.112.499 1.112 1.113v.591c0 .614-.498 1.112-1.112 1.112s-1.112-.498-1.112-1.112zm0-6.5v-.591c0-.614.498-1.112 1.112-1.112s1.112.498 1.112 1.112v.591c0 .614-.498 1.112-1.112 1.112s-1.112-.498-1.112-1.112zm0-6.5v-.591c0-.614.498-1.112 1.112-1.112s1.112.498 1.112 1.112v.591c0 .614-.498 1.112-1.112 1.112s-1.112-.498-1.112-1.112zm0-6.5v-.591c0-.614.498-1.112 1.112-1.112s1.112.498 1.112 1.112v.591c0 .614-.498 1.112-1.112 1.112s-1.112-.498-1.112-1.112zm0-6.5v-.591c0-.614.498-1.112 1.112-1.112s1.112.498 1.112 1.112v.591c0 .614-.498 1.113-1.112 1.113s-1.112-.499-1.112-1.113zm0-6.499v-.591c0-.614.498-1.113 1.112-1.113s1.112.499 1.112 1.113v.591c0 .614-.498 1.112-1.112 1.112s-1.112-.498-1.112-1.112zm0-6.5v-.591c0-.614.498-1.112 1.112-1.112s1.112.498 1.112 1.112v.591c0 .614-.498 1.112-1.112 1.112s-1.112-.498-1.112-1.112zm0-6.5v-.591c0-.614.498-1.112 1.112-1.112s1.112.498 1.112 1.112v.591c0 .614-.498 1.112-1.112 1.112s-1.112-.498-1.112-1.112zm0-6.5v-.591c0-.614.498-1.112 1.112-1.112s1.112.498 1.112 1.112v.591c0 .614-.498 1.112-1.112 1.112s-1.112-.498-1.112-1.112zm0-6.5v-.59c0-.615.498-1.113 1.112-1.113s1.112.498 1.112 1.113v.59c0 .614-.498 1.113-1.112 1.113s-1.112-.499-1.112-1.113zm0-6.499v-.591c0-.614.498-1.113 1.112-1.113s1.112.499 1.112 1.113v.591c0 .614-.498 1.112-1.112 1.112s-1.112-.498-1.112-1.112zm0-6.5v-.591c0-.614.498-1.112 1.112-1.112s1.112.498 1.112 1.112v.591c0 .614-.498 1.112-1.112 1.112s-1.112-.498-1.112-1.112z"/><path d="m209.458 225.398v-.591c0-.614.499-1.112 1.113-1.112s1.112.498 1.112 1.112v.591c0 .614-.498 1.112-1.112 1.112s-1.113-.498-1.113-1.112zm0-6.5v-.591c0-.614.499-1.112 1.113-1.112s1.112.498 1.112 1.112v.591c0 .614-.498 1.113-1.112 1.113s-1.113-.499-1.113-1.113zm0-6.5v-.59c0-.614.499-1.113 1.113-1.113s1.112.499 1.112 1.113v.59c0 .615-.498 1.113-1.112 1.113s-1.113-.498-1.113-1.113z"/><path d="m216.514 290.083v-.591c0-.614.498-1.112 1.113-1.112.614 0 1.112.498 1.112 1.112v.591c0 .614-.498 1.112-1.112 1.112-.615 0-1.113-.498-1.113-1.112zm0-6.5v-.591c0-.614.498-1.112 1.113-1.112.614 0 1.112.498 1.112 1.112v.591c0 .614-.498 1.113-1.112 1.113-.615 0-1.113-.499-1.113-1.113zm0-6.499v-.591c0-.614.498-1.113 1.113-1.113.614 0 1.112.499 1.112 1.113v.591c0 .614-.498 1.112-1.112 1.112-.615 0-1.113-.498-1.113-1.112zm0-6.5v-.591c0-.614.498-1.112 1.113-1.112.614 0 1.112.498 1.112 1.112v.591c0 .614-.498 1.112-1.112 1.112-.615 0-1.113-.498-1.113-1.112zm0-6.5v-.591c0-.614.498-1.112 1.113-1.112.614 0 1.112.498 1.112 1.112v.591c0 .614-.498 1.112-1.112 1.112-.615 0-1.113-.498-1.113-1.112zm0-6.5v-.591c0-.614.498-1.112 1.113-1.112.614 0 1.112.498 1.112 1.112v.591c0 .614-.498 1.112-1.112 1.112-.615 0-1.113-.498-1.113-1.112zm0-6.5v-.591c0-.614.498-1.112 1.113-1.112.614 0 1.112.498 1.112 1.112v.591c0 .614-.498 1.113-1.112 1.113-.615 0-1.113-.499-1.113-1.113zm0-6.499v-.591c0-.614.498-1.113 1.113-1.113.614 0 1.112.499 1.112 1.113v.591c0 .614-.498 1.112-1.112 1.112-.615 0-1.113-.498-1.113-1.112zm0-6.5v-.591c0-.614.498-1.112 1.113-1.112.614 0 1.112.498 1.112 1.112v.591c0 .614-.498 1.112-1.112 1.112-.615 0-1.113-.498-1.113-1.112zm0-6.5v-.591c0-.614.498-1.112 1.113-1.112.614 0 1.112.498 1.112 1.112v.591c0 .614-.498 1.112-1.112 1.112-.615 0-1.113-.498-1.113-1.112zm0-6.5v-.591c0-.614.498-1.112 1.113-1.112.614 0 1.112.498 1.112 1.112v.591c0 .614-.498 1.112-1.112 1.112-.615 0-1.113-.498-1.113-1.112zm0-6.5v-.59c0-.615.498-1.113 1.113-1.113.614 0 1.112.498 1.112 1.113v.59c0 .614-.498 1.113-1.112 1.113-.615 0-1.113-.499-1.113-1.113zm0-6.499v-.591c0-.614.498-1.113 1.113-1.113.614 0 1.112.499 1.112 1.113v.591c0 .614-.498 1.112-1.112 1.112-.615 0-1.113-.498-1.113-1.112zm0-6.5v-.591c0-.614.498-1.112 1.113-1.112.614 0 1.112.498 1.112 1.112v.591c0 .614-.498 1.112-1.112 1.112-.615 0-1.113-.498-1.113-1.112z"/><path d="m222.11 279.308v-.556c0-.614.499-1.112 1.113-1.112s1.112.498 1.112 1.112v.556c0 .614-.498 1.112-1.112 1.112s-1.113-.498-1.113-1.112zm0-6.465v-.591c0-.614.499-1.112 1.113-1.112s1.112.498 1.112 1.112v.591c0 .614-.498 1.112-1.112 1.112s-1.113-.498-1.113-1.112zm0-6.5v-.591c0-.614.499-1.112 1.113-1.112s1.112.498 1.112 1.112v.591c0 .614-.498 1.112-1.112 1.112s-1.113-.498-1.113-1.112zm0-6.5v-.59c0-.615.499-1.113 1.113-1.113s1.112.498 1.112 1.113v.59c0 .614-.498 1.113-1.112 1.113s-1.113-.499-1.113-1.113zm0-6.499v-.591c0-.614.499-1.113 1.113-1.113s1.112.499 1.112 1.113v.591c0 .614-.498 1.112-1.112 1.112s-1.113-.498-1.113-1.112zm0-6.5v-.591c0-.614.499-1.112 1.113-1.112s1.112.498 1.112 1.112v.591c0 .614-.498 1.112-1.112 1.112s-1.113-.498-1.113-1.112zm0-6.5v-.591c0-.614.499-1.112 1.113-1.112s1.112.498 1.112 1.112v.591c0 .614-.498 1.112-1.112 1.112s-1.113-.498-1.113-1.112zm0-6.5v-.591c0-.614.499-1.112 1.113-1.112s1.112.498 1.112 1.112v.591c0 .614-.498 1.113-1.112 1.113s-1.113-.499-1.113-1.113zm0-6.5v-.59c0-.614.499-1.113 1.113-1.113s1.112.499 1.112 1.113v.59c0 .615-.498 1.113-1.112 1.113s-1.113-.498-1.113-1.113zm0-6.499v-.591c0-.614.499-1.112 1.113-1.112s1.112.498 1.112 1.112v.591c0 .614-.498 1.112-1.112 1.112s-1.113-.498-1.113-1.112zm0-6.5v-.591c0-.614.499-1.112 1.113-1.112s1.112.498 1.112 1.112v.591c0 .614-.498 1.112-1.112 1.112s-1.113-.498-1.113-1.112zm0-6.5v-.591c0-.614.499-1.112 1.113-1.112s1.112.498 1.112 1.112v.591c0 .614-.498 1.112-1.112 1.112s-1.113-.498-1.113-1.112zm0-6.5v-.591c0-.614.499-1.112 1.113-1.112s1.112.498 1.112 1.112v.591c0 .614-.498 1.113-1.112 1.113s-1.113-.499-1.113-1.113z"/><path d="m229.537 201.809c.614 0 1.112-.498 1.112-1.112v-.591c0-.614-.498-1.113-1.112-1.113-.615 0-1.113.499-1.113 1.113v.591c0 .614.498 1.112 1.113 1.112z"/><path d="m235.736 233.809v-.59c0-.614.498-1.113 1.112-1.113s1.112.499 1.112 1.113v.59c0 .615-.498 1.113-1.112 1.113s-1.112-.498-1.112-1.113zm0-6.499v-.591c0-.614.498-1.112 1.112-1.112s1.112.498 1.112 1.112v.591c0 .614-.498 1.112-1.112 1.112s-1.112-.498-1.112-1.112zm0-6.5v-.591c0-.614.498-1.112 1.112-1.112s1.112.498 1.112 1.112v.591c0 .614-.498 1.112-1.112 1.112s-1.112-.498-1.112-1.112zm0-6.5v-.591c0-.614.498-1.112 1.112-1.112s1.112.498 1.112 1.112v.591c0 .614-.498 1.112-1.112 1.112s-1.112-.498-1.112-1.112zm0-6.5v-.591c0-.614.498-1.112 1.112-1.112s1.112.498 1.112 1.112v.591c0 .614-.498 1.113-1.112 1.113s-1.112-.499-1.112-1.113zm0-6.499v-.591c0-.614.498-1.113 1.112-1.113s1.112.499 1.112 1.113v.591c0 .614-.498 1.112-1.112 1.112s-1.112-.498-1.112-1.112z"/><path d="m242.42 276.898v-.591c0-.614.499-1.112 1.113-1.112s1.112.498 1.112 1.112v.591c0 .614-.498 1.112-1.112 1.112s-1.113-.498-1.113-1.112zm0-6.5v-.591c0-.614.499-1.112 1.113-1.112s1.112.498 1.112 1.112v.591c0 .614-.498 1.113-1.112 1.113s-1.113-.499-1.113-1.113zm0-6.499v-.591c0-.614.499-1.113 1.113-1.113s1.112.499 1.112 1.113v.591c0 .614-.498 1.112-1.112 1.112s-1.113-.498-1.113-1.112zm0-6.5v-.591c0-.614.499-1.112 1.113-1.112s1.112.498 1.112 1.112v.591c0 .614-.498 1.112-1.112 1.112s-1.113-.498-1.113-1.112zm0-6.5v-.591c0-.614.499-1.112 1.113-1.112s1.112.498 1.112 1.112v.591c0 .614-.498 1.112-1.112 1.112s-1.113-.498-1.113-1.112zm0-6.5v-.591c0-.614.499-1.112 1.113-1.112s1.112.498 1.112 1.112v.591c0 .614-.498 1.112-1.112 1.112s-1.113-.498-1.113-1.112zm0-6.5v-.59c0-.615.499-1.113 1.113-1.113s1.112.498 1.112 1.113v.59c0 .614-.498 1.113-1.112 1.113s-1.113-.499-1.113-1.113zm0-6.499v-.591c0-.614.499-1.113 1.113-1.113s1.112.499 1.112 1.113v.591c0 .614-.498 1.112-1.112 1.112s-1.113-.498-1.113-1.112zm0-6.5v-.591c0-.614.499-1.112 1.113-1.112s1.112.498 1.112 1.112v.591c0 .614-.498 1.112-1.112 1.112s-1.113-.498-1.113-1.112zm0-6.5v-.591c0-.614.499-1.112 1.113-1.112s1.112.498 1.112 1.112v.591c0 .614-.498 1.112-1.112 1.112s-1.113-.498-1.113-1.112zm0-6.5v-.591c0-.614.499-1.112 1.113-1.112s1.112.498 1.112 1.112v.591c0 .614-.498 1.113-1.112 1.113s-1.113-.499-1.113-1.113zm0-6.5v-.59c0-.615.499-1.113 1.113-1.113s1.112.498 1.112 1.113v.59c0 .615-.498 1.113-1.112 1.113s-1.113-.498-1.113-1.113zm0-6.499v-.591c0-.614.499-1.112 1.113-1.112s1.112.498 1.112 1.112v.591c0 .614-.498 1.112-1.112 1.112s-1.113-.498-1.113-1.112z"/><path d="m201.313 320.995c0-.626.498-1.112 1.112-1.112s1.113.498 1.113 1.112-.499 1.112-1.113 1.112-1.112-.498-1.112-1.112zm0-5.921v-.591c0-.614.498-1.112 1.112-1.112s1.113.498 1.113 1.112v.591c0 .614-.499 1.113-1.113 1.113s-1.112-.499-1.112-1.113zm0-6.499v-.591c0-.614.498-1.113 1.112-1.113s1.113.499 1.113 1.113v.591c0 .614-.499 1.112-1.113 1.112s-1.112-.498-1.112-1.112zm0-6.5v-.591c0-.614.498-1.112 1.112-1.112s1.113.498 1.113 1.112v.591c0 .614-.499 1.112-1.113 1.112s-1.112-.498-1.112-1.112zm0-6.5v-.591c0-.614.498-1.112 1.112-1.112s1.113.498 1.113 1.112v.591c0 .614-.499 1.112-1.113 1.112s-1.112-.498-1.112-1.112zm0-6.5v-.591c0-.614.498-1.112 1.112-1.112s1.113.498 1.113 1.112v.591c0 .614-.499 1.112-1.113 1.112s-1.112-.498-1.112-1.112zm0-6.5v-.591c0-.614.498-1.112 1.112-1.112s1.113.498 1.113 1.112v.591c0 .614-.499 1.113-1.113 1.113s-1.112-.499-1.112-1.113zm0-6.499v-.591c0-.614.498-1.113 1.112-1.113s1.113.499 1.113 1.113v.591c0 .614-.499 1.112-1.113 1.112s-1.112-.498-1.112-1.112zm0-6.5v-.591c0-.614.498-1.112 1.112-1.112s1.113.498 1.113 1.112v.591c0 .614-.499 1.112-1.113 1.112s-1.112-.498-1.112-1.112zm0-6.5v-.591c0-.614.498-1.112 1.112-1.112s1.113.498 1.113 1.112v.591c0 .614-.499 1.112-1.113 1.112s-1.112-.498-1.112-1.112zm0-6.5v-.591c0-.614.498-1.112 1.112-1.112s1.113.498 1.113 1.112v.591c0 .614-.499 1.112-1.113 1.112s-1.112-.498-1.112-1.112zm0-6.5v-.59c0-.615.498-1.113 1.112-1.113s1.113.498 1.113 1.113v.59c0 .614-.499 1.113-1.113 1.113s-1.112-.499-1.112-1.113zm0-6.499v-.591c0-.614.498-1.113 1.112-1.113s1.113.499 1.113 1.113v.591c0 .614-.499 1.112-1.113 1.112s-1.112-.498-1.112-1.112zm0-6.5v-.591c0-.614.498-1.112 1.112-1.112s1.113.498 1.113 1.112v.591c0 .614-.499 1.112-1.113 1.112s-1.112-.498-1.112-1.112zm0-6.5v-.591c0-.614.498-1.112 1.112-1.112s1.113.498 1.113 1.112v.591c0 .614-.499 1.112-1.113 1.112s-1.112-.498-1.112-1.112zm0-6.5v-.591c0-.614.498-1.112 1.112-1.112s1.113.498 1.113 1.112v.591c0 .614-.499 1.113-1.113 1.113s-1.112-.499-1.112-1.113zm0-6.5v-.59c0-.614.498-1.113 1.112-1.113s1.113.499 1.113 1.113v.59c0 .615-.499 1.113-1.113 1.113s-1.112-.498-1.112-1.113zm0-6.499v-.591c0-.614.498-1.112 1.112-1.112s1.113.498 1.113 1.112v.591c0 .614-.499 1.112-1.113 1.112s-1.112-.498-1.112-1.112z"/></g><path d="m357.609 178.718c-4.785 2.757-8.644 9.454-8.632 14.957l.301 108.62c.012 5.503 3.905 7.716 8.69 4.959l53.4-30.831c4.785-2.757 8.655-9.454 8.632-14.958l-.302-108.619c-.011-5.503-3.904-7.716-8.689-4.947l-53.4 30.83z" fill="#5fefc0" opacity=".7"/><g opacity=".5"><g fill="#8ff9ff"><path d="m269.856 192.065c-4.785 2.757-8.655 9.454-8.632 14.957l.301 43.147c.024 5.503 3.905 7.716 8.69 4.959l53.4-30.831c4.785-2.757 8.655-9.454 8.632-14.957l-.301-43.147c-.012-5.503-3.905-7.716-8.69-4.947l-53.4 30.83" opacity=".02"/><path d="m270.748 191.937c-4.785 2.758-8.655 9.455-8.632 14.958l.302 43.807c.023 5.503 3.904 7.716 8.689 4.959l53.4-30.831c4.786-2.757 8.655-9.454 8.632-14.957l-.301-43.819c-.012-5.503-3.905-7.716-8.69-4.947z" opacity=".03"/><path d="m271.629 191.798c-4.785 2.758-8.655 9.455-8.632 14.958l.301 44.467c.024 5.504 3.905 7.717 8.69 4.959l53.4-30.83c4.785-2.758 8.655-9.455 8.632-14.958l-.301-44.479c-.012-5.503-3.905-7.716-8.69-4.947z" opacity=".04"/><path d="m272.521 191.671c-4.785 2.757-8.655 9.454-8.632 14.958l.302 45.139c.023 5.503 3.904 7.716 8.689 4.959l53.4-30.831c4.785-2.757 8.655-9.454 8.632-14.957l-.301-45.14c-.012-5.503-3.905-7.716-8.69-4.947l-53.4 30.831" opacity=".05"/><path d="m273.401 191.532c-4.785 2.757-8.655 9.454-8.631 14.958l.301 45.799c.023 5.504 3.904 7.717 8.689 4.959l53.401-30.83c4.785-2.758 8.655-9.455 8.631-14.958l-.301-45.8c-.011-5.503-3.904-7.716-8.689-4.947l-53.401 30.83" opacity=".06"/><path d="m274.293 191.393c-4.785 2.757-8.654 9.454-8.631 14.957l.301 46.461c.023 5.503 3.904 7.716 8.69 4.958l53.4-30.83c4.785-2.758 8.654-9.454 8.631-14.958l-.301-46.46c-.011-5.503-3.904-7.716-8.689-4.947l-53.401 30.83" opacity=".07"/><path d="m275.174 191.265c-4.785 2.758-8.655 9.455-8.631 14.958l.301 47.121c.023 5.503 3.904 7.716 8.689 4.958l53.401-30.83c4.785-2.758 8.654-9.454 8.631-14.958l-.301-47.12c-.012-5.504-3.905-7.717-8.69-4.948l-53.4 30.831" opacity=".08"/><path d="m276.066 191.126c-4.785 2.758-8.654 9.455-8.631 14.958l.301 47.781c.023 5.503 3.904 7.716 8.689 4.959l53.401-30.831c4.785-2.757 8.654-9.454 8.631-14.957l-.301-47.781c-.012-5.504-3.905-7.717-8.69-4.948l-53.4 30.831" opacity=".09"/><path d="m276.947 190.987c-4.785 2.758-8.655 9.455-8.632 14.958l.301 48.441c.023 5.504 3.905 7.717 8.69 4.959l53.4-30.83c4.785-2.758 8.655-9.455 8.632-14.958l-.302-48.441c-.011-5.504-3.904-7.717-8.689-4.948l-53.4 30.831" opacity=".1"/><path d="m277.839 190.86c-4.785 2.757-8.655 9.454-8.632 14.957l.301 49.102c.024 5.504 3.905 7.717 8.69 4.959l53.4-30.83c4.785-2.758 8.655-9.455 8.632-14.958l-.301-49.102c-.012-5.503-3.905-7.716-8.69-4.947l-53.4 30.83" opacity=".11"/><path d="m278.72 190.721c-4.785 2.757-8.655 9.454-8.632 14.957l.301 49.763c.023 5.503 3.905 7.716 8.69 4.958l53.4-30.83c4.785-2.758 8.655-9.454 8.632-14.958l-.302-49.762c-.011-5.503-3.904-7.716-8.689-4.947l-53.4 30.83" opacity=".12"/><path d="m279.611 190.582c-4.785 2.757-8.655 9.454-8.631 14.957l.301 50.423c.023 5.503 3.904 7.716 8.689 4.959l53.401-30.831c4.785-2.757 8.654-9.454 8.631-14.957l-.301-50.423c-.012-5.503-3.904-7.716-8.69-4.947l-53.4 30.83" opacity=".13"/><path d="m280.492 190.454c-4.785 2.758-8.655 9.455-8.632 14.958l.302 51.083c.023 5.503 3.904 7.716 8.689 4.959l53.4-30.831c4.785-2.757 8.655-9.454 8.632-14.957l-.301-51.083c-.012-5.504-3.905-7.717-8.69-4.948l-53.4 30.831" opacity=".14"/><path d="m281.384 190.315c-4.785 2.758-8.655 9.455-8.631 14.958l.301 51.743c.023 5.504 3.904 7.717 8.689 4.959l53.401-30.83c4.785-2.758 8.654-9.455 8.631-14.958l-.301-51.755c-.012-5.503-3.905-7.716-8.69-4.947z" opacity=".15"/><path d="m282.264 190.176c-4.785 2.758-8.654 9.455-8.631 14.958l.301 52.404c.023 5.503 3.905 7.716 8.69 4.959l53.4-30.831c4.785-2.757 8.655-9.454 8.631-14.958l-.301-52.415c-.011-5.503-3.904-7.716-8.689-4.947z" opacity=".16"/><path d="m283.157 190.049c-4.785 2.757-8.655 9.454-8.632 14.957l.302 53.076c.023 5.504 3.904 7.717 8.689 4.959l53.4-30.83c4.786-2.758 8.655-9.455 8.632-14.958l-.301-53.076c-.012-5.503-3.905-7.716-8.69-4.947l-53.4 30.83" opacity=".17"/><path d="m284.037 189.91c-4.785 2.757-8.654 9.454-8.631 14.957l.301 53.737c.023 5.503 3.905 7.716 8.69 4.959l53.4-30.831c4.785-2.758 8.655-9.454 8.631-14.958l-.301-53.736c-.011-5.503-3.904-7.716-8.689-4.947l-53.401 30.83" opacity=".18"/><path d="m284.93 189.782c-4.785 2.758-8.655 9.455-8.632 14.958l.301 54.397c.023 5.503 3.905 7.716 8.69 4.958l53.4-30.83c4.785-2.758 8.655-9.454 8.632-14.958l-.302-54.396c-.011-5.504-3.904-7.717-8.689-4.948l-53.4 30.831" opacity=".19"/><path d="m285.81 189.643c-4.785 2.758-8.655 9.455-8.632 14.958l.301 55.057c.023 5.503 3.905 7.716 8.69 4.959l53.4-30.831c4.785-2.757 8.655-9.454 8.632-14.957l-.302-55.057c-.011-5.504-3.904-7.717-8.689-4.948l-53.4 30.831" opacity=".2"/><path d="m286.702 189.504c-4.785 2.758-8.643 9.455-8.632 14.958l.302 55.717c.023 5.504 3.904 7.717 8.689 4.959l53.4-30.83c4.785-2.758 8.655-9.454 8.632-14.958l-.301-55.717c-.012-5.504-3.905-7.717-8.69-4.948l-53.4 30.831" opacity=".21"/><path d="m287.583 189.377c-4.785 2.757-8.643 9.454-8.632 14.957l.301 56.378c.024 5.504 3.905 7.717 8.69 4.959l53.4-30.83c4.785-2.758 8.655-9.455 8.632-14.958l-.301-56.378c-.012-5.503-3.905-7.716-8.69-4.947l-53.4 30.83" opacity=".22"/><path d="m288.475 189.238c-4.785 2.757-8.643 9.454-8.632 14.957l.302 57.039c.023 5.503 3.904 7.716 8.689 4.958l53.4-30.83c4.785-2.758 8.655-9.454 8.632-14.958l-.301-57.038c-.012-5.503-3.905-7.716-8.69-4.947l-53.4 30.83" opacity=".23"/><path d="m289.355 189.099c-4.785 2.757-8.643 9.454-8.632 14.957l.301 57.699c.024 5.503 3.905 7.716 8.69 4.959l53.4-30.831c4.785-2.757 8.655-9.454 8.632-14.957l-.301-57.699c-.012-5.503-3.905-7.716-8.69-4.947l-53.4 30.83" opacity=".24"/><path d="m290.248 188.971c-4.785 2.758-8.643 9.455-8.632 14.958l.301 58.359c.024 5.503 3.905 7.716 8.69 4.959l53.4-30.831c4.785-2.757 8.655-9.454 8.632-14.957l-.301-58.359c-.012-5.504-3.905-7.717-8.69-4.948l-53.4 30.831" opacity=".25"/><path d="m291.128 188.832c-4.785 2.758-8.643 9.454-8.631 14.958l.301 59.019c.023 5.504 3.904 7.717 8.689 4.959l53.401-30.83c4.785-2.758 8.654-9.455 8.631-14.958l-.301-59.019c-.012-5.504-3.905-7.717-8.69-4.948l-53.4 30.831" opacity=".26"/><path d="m292.02 188.693c-4.785 2.758-8.643 9.455-8.631 14.958l.301 59.68c.023 5.503 3.904 7.716 8.69 4.959l53.4-30.831c4.785-2.757 8.655-9.454 8.631-14.958l-.301-59.679c-.011-5.504-3.904-7.717-8.689-4.948l-53.401 30.831" opacity=".27"/><path d="m292.9 188.566c-4.785 2.757-8.643 9.454-8.631 14.957l.301 60.341c.023 5.503 3.904 7.716 8.689 4.959l53.401-30.831c4.785-2.757 8.654-9.454 8.631-14.958l-.301-60.351c-.012-5.504-3.904-7.717-8.69-4.948z" opacity=".28"/><path d="m293.793 188.427c-4.785 2.757-8.643 9.454-8.632 14.957l.301 61.013c.024 5.503 3.905 7.716 8.69 4.959l53.4-30.831c4.785-2.757 8.655-9.454 8.632-14.958l-.301-61.012c-.012-5.503-3.905-7.716-8.69-4.947l-53.4 30.83" opacity=".29"/><path d="m294.674 188.299c-4.785 2.758-8.644 9.455-8.632 14.958l.301 61.673c.023 5.503 3.905 7.716 8.69 4.959l53.4-30.831c4.785-2.758 8.655-9.454 8.632-14.958l-.302-61.672c-.011-5.504-3.904-7.717-8.689-4.948l-53.4 30.831" opacity=".3"/><path d="m295.566 188.16c-4.785 2.758-8.643 9.455-8.632 14.958l.301 62.333c.024 5.503 3.905 7.716 8.69 4.959l53.4-30.831c4.785-2.757 8.655-9.454 8.632-14.957l-.301-62.333c-.012-5.504-3.905-7.717-8.69-4.948l-53.4 30.831" opacity=".31"/><path d="m296.446 188.021c-4.785 2.758-8.644 9.455-8.632 14.958l.301 62.993c.023 5.504 3.905 7.717 8.69 4.959l53.4-30.83c4.785-2.758 8.655-9.454 8.632-14.958l-.302-62.993c-.011-5.504-3.904-7.717-8.689-4.948l-53.4 30.831" opacity=".32"/><path d="m297.338 187.894c-4.785 2.757-8.643 9.454-8.631 14.958l.301 63.653c.023 5.504 3.904 7.717 8.689 4.959l53.401-30.83c4.785-2.758 8.654-9.455 8.631-14.958l-.301-63.654c-.012-5.503-3.905-7.716-8.69-4.947l-53.4 30.83" opacity=".33"/><path d="m298.219 187.755c-4.785 2.757-8.643 9.454-8.632 14.957l.302 64.315c.023 5.503 3.904 7.716 8.689 4.959l53.4-30.831c4.785-2.757 8.655-9.454 8.632-14.958l-.301-64.314c-.012-5.503-3.905-7.716-8.69-4.947l-53.4 30.83" opacity=".34"/><path d="m299.111 187.616c-4.785 2.757-8.643 9.454-8.631 14.957l.301 64.975c.023 5.504 3.904 7.716 8.689 4.959l53.401-30.831c4.785-2.757 8.654-9.454 8.631-14.957l-.301-64.975c-.012-5.503-3.905-7.716-8.69-4.947l-53.4 30.83" opacity=".35"/><path d="m299.991 187.488c-4.785 2.758-8.643 9.455-8.632 14.958l.302 65.635c.023 5.503 3.904 7.716 8.689 4.959l53.401-30.831c4.785-2.757 8.654-9.454 8.631-14.957l-.301-65.635c-.012-5.504-3.905-7.717-8.69-4.948l-53.4 30.831" opacity=".36"/><path d="m300.884 187.349c-4.785 2.758-8.644 9.454-8.632 14.958l.301 66.295c.023 5.504 3.905 7.717 8.69 4.959l53.4-30.83c4.785-2.758 8.655-9.455 8.632-14.958l-.302-66.295c-.011-5.504-3.904-7.717-8.689-4.948l-53.4 30.831" opacity=".37"/><path d="m301.764 187.21c-4.785 2.758-8.644 9.454-8.632 14.958l.301 66.956c.023 5.503 3.905 7.716 8.69 4.959l53.4-30.831c4.785-2.757 8.655-9.454 8.632-14.958l-.302-66.956c-.011-5.503-3.904-7.716-8.689-4.947l-53.4 30.831" opacity=".38"/><path d="m302.656 187.083c-4.785 2.757-8.643 9.454-8.631 14.957l.301 67.617c.023 5.503 3.905 7.716 8.69 4.959l53.4-30.831c4.785-2.757 8.655-9.454 8.632-14.958l-.302-67.616c-.011-5.503-3.904-7.716-8.689-4.947l-53.401 30.83" opacity=".39"/><path d="m303.536 186.944c-4.785 2.757-8.643 9.454-8.631 14.957l.301 68.277c.023 5.504 3.905 7.716 8.69 4.959l53.4-30.831c4.785-2.757 8.655-9.454 8.632-14.957l-.302-68.277c-.011-5.503-3.904-7.716-8.689-4.947l-53.401 30.83" opacity=".4"/><path d="m304.429 186.816c-4.785 2.758-8.643 9.455-8.632 14.958l.302 68.937c.023 5.503 3.904 7.716 8.689 4.959l53.4-30.831c4.785-2.757 8.655-9.454 8.632-14.957l-.301-68.949c-.012-5.503-3.905-7.716-8.69-4.947z" opacity=".41"/><path d="m305.31 186.677c-4.785 2.758-8.643 9.455-8.632 14.958l.301 69.609c.024 5.503 3.905 7.716 8.69 4.959l53.4-30.831c4.785-2.757 8.655-9.454 8.632-14.957l-.301-69.609c-.012-5.504-3.905-7.717-8.69-4.948l-53.4 30.831" opacity=".42"/><path d="m306.201 186.538c-4.785 2.758-8.643 9.454-8.631 14.958l.301 70.269c.023 5.504 3.904 7.717 8.69 4.959l53.4-30.83c4.785-2.758 8.655-9.455 8.631-14.958l-.301-70.269c-.011-5.504-3.904-7.717-8.689-4.948l-53.401 30.831" opacity=".43"/><path d="m307.082 186.411c-4.785 2.757-8.643 9.454-8.632 14.957l.301 70.93c.024 5.504 3.905 7.717 8.69 4.959l53.4-30.83c4.785-2.758 8.655-9.455 8.632-14.958l-.301-70.93c-.012-5.503-3.905-7.716-8.69-4.947l-53.4 30.83" opacity=".44"/><path d="m307.975 186.272c-4.786 2.757-8.644 9.454-8.632 14.957l.301 71.591c.023 5.503 3.905 7.716 8.69 4.959l53.4-30.831c4.785-2.757 8.655-9.454 8.632-14.958l-.302-71.59c-.011-5.503-3.904-7.716-8.689-4.947l-53.4 30.83" opacity=".45"/><path d="m308.854 186.133c-4.785 2.757-8.643 9.454-8.631 14.957l.301 72.251c.023 5.504 3.904 7.717 8.689 4.959l53.401-30.831c4.785-2.757 8.655-9.454 8.631-14.957l-.301-72.251c-.011-5.503-3.904-7.716-8.689-4.947l-53.401 30.83" opacity=".46"/><path d="m309.747 186.005c-4.785 2.758-8.643 9.455-8.632 14.958l.302 72.911c.023 5.504 3.904 7.716 8.689 4.959l53.4-30.831c4.785-2.757 8.655-9.454 8.632-14.957l-.301-72.911c-.012-5.504-3.905-7.717-8.69-4.948l-53.4 30.831" opacity=".47"/><path d="m310.627 185.866c-4.785 2.758-8.643 9.455-8.631 14.958l.301 73.572c.023 5.503 3.904 7.716 8.689 4.958l53.401-30.83c4.785-2.758 8.655-9.454 8.631-14.958l-.301-73.571c-.011-5.504-3.904-7.717-8.689-4.948l-53.401 30.831" opacity=".48"/><path d="m311.52 185.727c-4.785 2.758-8.643 9.455-8.632 14.958l.301 74.232c.024 5.503 3.905 7.716 8.69 4.959l53.4-30.831c4.785-2.757 8.655-9.454 8.632-14.957l-.301-74.232c-.012-5.504-3.905-7.717-8.69-4.948l-53.4 30.831" opacity=".49"/><path d="m312.412 185.6c-4.785 2.757-8.643 9.454-8.632 14.957l.302 74.893c.023 5.503 3.904 7.716 8.689 4.959l53.4-30.831c4.785-2.757 8.655-9.454 8.632-14.958l-.301-74.892c-.012-5.503-3.905-7.716-8.69-4.947l-53.4 30.83" opacity=".5"/><path d="m313.292 185.461c-4.785 2.757-8.643 9.454-8.632 14.957l.301 75.553c.024 5.503 3.905 7.716 8.69 4.959l53.4-30.831c4.785-2.757 8.655-9.454 8.632-14.957l-.301-75.553c-.012-5.503-3.905-7.716-8.69-4.947l-53.4 30.83" opacity=".5"/><path d="m314.184 185.333c-4.785 2.758-8.643 9.454-8.631 14.958l.301 76.213c.023 5.503 3.905 7.716 8.69 4.959l53.4-30.831c4.785-2.757 8.655-9.454 8.631-14.957l-.301-76.213c-.011-5.504-3.904-7.717-8.689-4.948l-53.401 30.831" opacity=".51"/><path d="m315.065 185.194c-4.785 2.758-8.643 9.454-8.631 14.958l.301 76.873c.023 5.504 3.904 7.717 8.689 4.959l53.401-30.83c4.785-2.758 8.655-9.454 8.631-14.958l-.301-76.885c-.011-5.503-3.904-7.716-8.689-4.947z" opacity=".52"/><path d="m315.957 185.055c-4.785 2.758-8.643 9.454-8.632 14.958l.301 77.545c.024 5.504 3.905 7.717 8.69 4.959l53.4-30.83c4.785-2.758 8.655-9.454 8.632-14.958l-.301-77.545c-.012-5.504-3.905-7.717-8.69-4.948l-53.4 30.831" opacity=".53"/><path d="m316.838 184.928c-4.785 2.757-8.644 9.454-8.632 14.957l.301 78.206c.024 5.504 3.905 7.717 8.69 4.959l53.4-30.83c4.785-2.758 8.655-9.455 8.632-14.958l-.301-78.206c-.012-5.503-3.905-7.716-8.69-4.947l-53.4 30.83" opacity=".54"/><path d="m317.73 184.789c-4.785 2.757-8.643 9.454-8.632 14.957l.301 78.867c.024 5.503 3.905 7.716 8.69 4.959l53.4-30.831c4.785-2.757 8.655-9.454 8.632-14.958l-.301-78.866c-.012-5.503-3.905-7.716-8.69-4.947l-53.4 30.83" opacity=".55"/><path d="m318.61 184.65c-4.785 2.757-8.644 9.454-8.632 14.957l.301 79.527c.023 5.504 3.905 7.716 8.69 4.959l53.4-30.831c4.785-2.757 8.655-9.454 8.632-14.957l-.301-79.527c-.012-5.503-3.905-7.716-8.69-4.947l-53.4 30.83" opacity=".56"/><path d="m319.503 184.522c-4.785 2.758-8.643 9.455-8.632 14.958l.301 80.187c.024 5.504 3.905 7.717 8.69 4.959l53.4-30.831c4.785-2.757 8.655-9.454 8.632-14.957l-.302-80.187c-.011-5.504-3.904-7.717-8.689-4.948l-53.4 30.831" opacity=".57"/><path d="m320.383 184.383c-4.785 2.758-8.644 9.455-8.632 14.958l.301 80.848c.023 5.503 3.905 7.716 8.69 4.958l53.4-30.83c4.785-2.758 8.655-9.454 8.632-14.958l-.302-80.847c-.011-5.504-3.904-7.717-8.689-4.948l-53.4 30.831" opacity=".58"/><path d="m321.275 184.244c-4.785 2.758-8.643 9.454-8.631 14.958l.301 81.508c.023 5.503 3.904 7.716 8.689 4.959l53.401-30.831c4.785-2.757 8.654-9.454 8.631-14.957l-.301-81.508c-.012-5.504-3.904-7.717-8.69-4.948l-53.4 30.831" opacity=".59"/><path d="m322.155 184.117c-4.785 2.757-8.643 9.454-8.632 14.957l.302 82.169c.023 5.503 3.904 7.716 8.689 4.959l53.401-30.831c4.785-2.757 8.654-9.454 8.631-14.957l-.301-82.169c-.012-5.503-3.905-7.716-8.69-4.947l-53.4 30.83" opacity=".6"/><path d="m323.048 183.978c-4.785 2.757-8.644 9.454-8.632 14.957l.301 82.829c.023 5.504 3.905 7.717 8.69 4.959l53.4-30.83c4.785-2.758 8.655-9.455 8.632-14.958l-.301-82.829c-.012-5.503-3.905-7.716-8.69-4.947l-53.4 30.83" opacity=".61"/><path d="m323.928 183.85c-4.785 2.758-8.643 9.455-8.632 14.958l.302 83.489c.023 5.504 3.904 7.717 8.689 4.959l53.4-30.83c4.785-2.758 8.655-9.455 8.632-14.958l-.301-83.489c-.012-5.504-3.905-7.717-8.69-4.948l-53.4 30.831" opacity=".62"/><path d="m324.821 183.711c-4.785 2.758-8.644 9.455-8.632 14.958l.301 84.15c.023 5.503 3.905 7.716 8.69 4.958l53.4-30.83c4.785-2.758 8.655-9.454 8.632-14.958l-.302-84.149c-.011-5.504-3.904-7.717-8.689-4.948l-53.4 30.831" opacity=".63"/><path d="m325.7 183.572c-4.785 2.758-8.643 9.454-8.631 14.958l.301 84.81c.012 5.503 3.905 7.716 8.69 4.959l53.4-30.831c4.785-2.757 8.655-9.454 8.632-14.957l-.302-84.811c-.011-5.503-3.904-7.716-8.689-4.947l-53.401 30.831" opacity=".64"/><path d="m326.593 183.445c-4.785 2.757-8.643 9.454-8.632 14.957l.302 85.482c.011 5.504 3.904 7.717 8.689 4.959l53.4-30.83c4.785-2.758 8.655-9.455 8.632-14.958l-.301-85.482c-.012-5.503-3.905-7.716-8.69-4.947l-53.4 30.83" opacity=".65"/><path d="m327.473 183.306c-4.785 2.757-8.643 9.454-8.631 14.957l.301 86.143c.012 5.503 3.905 7.716 8.69 4.959l53.4-30.831c4.785-2.757 8.655-9.454 8.631-14.958l-.301-86.142c-.011-5.503-3.904-7.716-8.689-4.947l-53.401 30.83" opacity=".66"/><path d="m328.366 183.167c-4.785 2.757-8.643 9.454-8.632 14.957l.302 86.803c.011 5.504 3.904 7.717 8.689 4.959l53.4-30.831c4.785-2.757 8.655-9.454 8.632-14.957l-.301-86.803c-.012-5.503-3.905-7.716-8.69-4.947l-53.4 30.83" opacity=".67"/><path d="m329.246 183.039c-4.785 2.758-8.643 9.454-8.632 14.958l.302 87.463c.011 5.504 3.904 7.716 8.689 4.959l53.4-30.831c4.785-2.757 8.655-9.454 8.632-14.957l-.301-87.463c-.012-5.504-3.905-7.717-8.69-4.948l-53.4 30.831" opacity=".68"/><path d="m330.139 182.9c-4.785 2.758-8.644 9.454-8.632 14.958l.301 88.124c.012 5.503 3.905 7.716 8.69 4.958l53.4-30.83c4.785-2.758 8.655-9.454 8.632-14.958l-.302-88.124c-.011-5.503-3.904-7.716-8.689-4.947l-53.4 30.831" opacity=".69"/><path d="m331.018 182.761c-4.785 2.758-8.643 9.454-8.631 14.958l.301 88.784c.012 5.503 3.905 7.716 8.69 4.959l53.4-30.831c4.785-2.757 8.655-9.454 8.631-14.957l-.301-88.784c-.011-5.504-3.904-7.717-8.689-4.948l-53.401 30.831" opacity=".7"/><path d="m331.911 182.634c-4.785 2.757-8.643 9.454-8.631 14.957l.301 89.445c.012 5.503 3.905 7.716 8.69 4.959l53.4-30.831c4.785-2.757 8.655-9.454 8.632-14.957l-.302-89.445c-.011-5.503-3.904-7.716-8.689-4.947l-53.401 30.83" opacity=".71"/><path d="m332.791 182.495c-4.785 2.757-8.643 9.454-8.631 14.957l.301 90.105c.012 5.504 3.904 7.717 8.69 4.959l53.4-30.83c4.785-2.758 8.655-9.455 8.631-14.958l-.301-90.105c-.011-5.503-3.904-7.716-8.689-4.947l-53.401 30.83" opacity=".72"/><path d="m333.684 182.367c-4.785 2.758-8.643 9.455-8.632 14.958l.302 90.765c.011 5.504 3.904 7.717 8.689 4.959l53.4-30.83c4.785-2.758 8.655-9.455 8.632-14.958l-.301-90.765c-.012-5.504-3.905-7.717-8.69-4.948l-53.4 30.831" opacity=".73"/><path d="m334.564 182.228c-4.785 2.758-8.643 9.454-8.631 14.958l.301 91.426c.011 5.503 3.904 7.716 8.689 4.958l53.401-30.83c4.785-2.758 8.654-9.454 8.631-14.958l-.301-91.425c-.012-5.504-3.905-7.717-8.69-4.948l-53.4 30.831" opacity=".74"/><path d="m335.456 182.089c-4.785 2.758-8.643 9.455-8.632 14.958l.301 92.086c.012 5.503 3.905 7.716 8.69 4.959l53.4-30.831c4.785-2.757 8.655-9.454 8.632-14.957l-.301-92.086c-.012-5.504-3.905-7.717-8.69-4.948l-53.4 30.831" opacity=".75"/><path d="m336.337 181.962c-4.785 2.757-8.643 9.454-8.632 14.957l.301 92.747c.012 5.503 3.905 7.716 8.69 4.959l53.4-30.831c4.785-2.757 8.655-9.454 8.632-14.957l-.301-92.747c-.012-5.503-3.905-7.716-8.69-4.947l-53.4 30.83" opacity=".76"/><path d="m337.229 181.823c-4.785 2.757-8.643 9.454-8.631 14.957l.301 93.419c.012 5.503 3.904 7.716 8.689 4.959l53.401-30.831c4.785-2.757 8.655-9.454 8.631-14.957l-.301-93.407c-.011-5.504-3.904-7.717-8.689-4.948l-53.401 30.831" opacity=".77"/><path d="m338.109 181.684c-4.785 2.757-8.643 9.454-8.631 14.957l.301 94.079c.011 5.504 3.904 7.717 8.689 4.959l53.401-30.83c4.785-2.758 8.654-9.455 8.631-14.958l-.301-94.079c-.012-5.503-3.904-7.716-8.69-4.947l-53.4 30.83" opacity=".78"/><path d="m339.001 181.556c-4.785 2.758-8.643 9.454-8.631 14.958l.301 94.739c.011 5.504 3.904 7.716 8.689 4.959l53.401-30.831c4.785-2.757 8.655-9.454 8.631-14.957l-.301-94.74c-.011-5.503-3.904-7.716-8.689-4.947l-53.401 30.831" opacity=".79"/><path d="m339.882 181.417c-4.785 2.758-8.643 9.454-8.631 14.958l.301 95.4c.011 5.503 3.904 7.716 8.689 4.958l53.401-30.83c4.785-2.758 8.654-9.454 8.631-14.958l-.301-95.4c-.012-5.503-3.905-7.716-8.69-4.947l-53.4 30.831" opacity=".8"/><path d="m340.775 181.278c-4.785 2.758-8.643 9.454-8.632 14.958l.301 96.06c.012 5.503 3.905 7.716 8.69 4.959l53.4-30.831c4.785-2.757 8.655-9.454 8.632-14.957l-.301-96.061c-.012-5.503-3.905-7.716-8.69-4.947l-53.4 30.831" opacity=".81"/><path d="m341.655 181.151c-4.786 2.757-8.644 9.454-8.632 14.957l.301 96.721c.012 5.503 3.905 7.716 8.69 4.959l53.4-30.831c4.785-2.757 8.655-9.454 8.632-14.957l-.302-96.721c-.011-5.503-3.904-7.716-8.689-4.947l-53.4 30.83" opacity=".82"/><path d="m342.547 181.012c-4.785 2.757-8.644 9.454-8.632 14.957l.301 97.381c.012 5.504 3.905 7.717 8.69 4.959l53.4-30.83c4.785-2.758 8.655-9.455 8.632-14.958l-.302-97.381c-.011-5.503-3.904-7.716-8.689-4.947l-53.4 30.83" opacity=".83"/><path d="m343.427 180.884c-4.785 2.758-8.643 9.454-8.631 14.958l.301 98.041c.012 5.504 3.905 7.717 8.69 4.959l53.4-30.83c4.785-2.758 8.655-9.455 8.631-14.958l-.301-98.041c-.011-5.504-3.904-7.717-8.689-4.948l-53.401 30.831" opacity=".84"/><path d="m344.32 180.745c-4.785 2.758-8.643 9.454-8.631 14.958l.301 98.702c.011 5.503 3.904 7.716 8.689 4.958l53.401-30.83c4.785-2.758 8.654-9.454 8.631-14.958l-.301-98.701c-.012-5.504-3.905-7.717-8.69-4.948l-53.4 30.831" opacity=".85"/><path d="m345.2 180.606c-4.785 2.758-8.643 9.454-8.632 14.958l.302 99.362c.011 5.503 3.904 7.716 8.689 4.959l53.4-30.831c4.785-2.757 8.655-9.454 8.632-14.957l-.301-99.363c-.012-5.503-3.905-7.716-8.69-4.947l-53.4 30.831" opacity=".86"/><path d="m346.092 180.479c-4.785 2.757-8.643 9.454-8.632 14.957l.302 100.023c.011 5.503 3.904 7.716 8.689 4.959l53.4-30.831c4.786-2.757 8.655-9.454 8.632-14.957l-.301-100.023c-.012-5.503-3.905-7.716-8.69-4.947l-53.4 30.83" opacity=".87"/><path d="m346.973 180.34c-4.785 2.757-8.643 9.454-8.632 14.957l.302 100.683c.011 5.504 3.904 7.717 8.689 4.959l53.4-30.83c4.785-2.758 8.655-9.455 8.632-14.958l-.301-100.683c-.012-5.503-3.905-7.716-8.69-4.947l-53.4 30.83" opacity=".88"/><path d="m347.865 180.201c-4.786 2.757-8.644 9.454-8.632 14.957l.301 101.355c.012 5.504 3.905 7.717 8.69 4.959l53.4-30.83c4.785-2.758 8.655-9.455 8.632-14.958l-.302-101.343c-.011-5.504-3.904-7.717-8.689-4.948l-53.4 30.831" opacity=".89"/><path d="m348.745 180.073c-4.785 2.758-8.643 9.455-8.631 14.958l.301 102.015c.012 5.504 3.905 7.717 8.69 4.959l53.4-30.83c4.785-2.758 8.655-9.455 8.631-14.958l-.301-102.015c-.011-5.504-3.904-7.717-8.689-4.948l-53.401 30.831" opacity=".9"/><path d="m349.637 179.934c-4.785 2.758-8.643 9.454-8.631 14.958l.301 102.676c.012 5.503 3.905 7.716 8.69 4.959l53.4-30.831c4.785-2.758 8.655-9.454 8.631-14.958l-.301-102.675c-.011-5.504-3.904-7.717-8.689-4.948l-53.401 30.831" opacity=".91"/><path d="m350.518 179.795c-4.785 2.758-8.643 9.454-8.632 14.958l.301 103.336c.012 5.503 3.905 7.716 8.69 4.959l53.4-30.831c4.785-2.757 8.655-9.454 8.632-14.957l-.301-103.337c-.012-5.503-3.905-7.716-8.69-4.947l-53.4 30.831" opacity=".92"/><path d="m351.41 179.668c-4.785 2.757-8.643 9.454-8.632 14.957l.302 103.997c.011 5.503 3.904 7.716 8.689 4.959l53.4-30.831c4.786-2.757 8.655-9.454 8.632-14.957l-.301-103.997c-.012-5.503-3.905-7.716-8.69-4.947l-53.4 30.83" opacity=".93"/><path d="m352.291 179.529c-4.785 2.757-8.643 9.454-8.632 14.957l.301 104.657c.012 5.504 3.905 7.717 8.69 4.959l53.4-30.83c4.785-2.758 8.655-9.455 8.632-14.958l-.301-104.657c-.012-5.503-3.905-7.716-8.69-4.947l-53.4 30.83" opacity=".94"/><path d="m353.183 179.401c-4.785 2.758-8.643 9.454-8.632 14.958l.302 105.317c.011 5.504 3.904 7.717 8.689 4.959l53.4-30.83c4.785-2.758 8.655-9.455 8.632-14.958l-.301-105.317c-.012-5.504-3.905-7.717-8.69-4.948l-53.4 30.831" opacity=".95"/><path d="m354.063 179.262c-4.785 2.758-8.643 9.454-8.631 14.958l.301 105.978c.012 5.503 3.904 7.716 8.689 4.958l53.401-30.83c4.785-2.758 8.655-9.454 8.631-14.958l-.301-105.978c-.011-5.503-3.904-7.716-8.689-4.947l-53.401 30.831" opacity=".96"/><path d="m354.955 179.123c-4.785 2.758-8.643 9.454-8.631 14.958l.301 106.638c.012 5.503 3.905 7.716 8.69 4.959l53.4-30.831c4.785-2.757 8.655-9.454 8.631-14.957l-.301-106.639c-.011-5.503-3.904-7.716-8.689-4.947l-53.401 30.831" opacity=".97"/><path d="m355.836 178.996c-4.785 2.757-8.643 9.454-8.631 14.957l.301 107.299c.011 5.503 3.904 7.716 8.689 4.959l53.401-30.831c4.785-2.757 8.654-9.454 8.631-14.957l-.301-107.299c-.012-5.503-3.904-7.716-8.689-4.947l-53.401 30.83" opacity=".98"/><path d="m356.728 178.857c-4.785 2.757-8.643 9.454-8.631 14.957l.301 107.959c.012 5.504 3.904 7.717 8.69 4.959l53.4-30.83c4.785-2.758 8.654-9.455 8.631-14.958l-.301-107.959c-.012-5.503-3.904-7.716-8.69-4.947l-53.4 30.83" opacity=".99"/></g><path d="m357.609 178.718c-4.785 2.757-8.644 9.454-8.632 14.957l.301 108.62c.012 5.503 3.905 7.716 8.69 4.959l53.4-30.831c4.785-2.757 8.655-9.454 8.632-14.958l-.302-108.619c-.011-5.503-3.904-7.716-8.689-4.947l-53.4 30.83" fill="#1e2939"/></g><g fill="#fff"><path d="m365.766 251.71 39.694-22.917c1.193-.684 2.178-.139 2.178 1.228 0 1.379-.962 3.059-2.167 3.742l-39.682 22.917c-1.194.696-2.167.139-2.167-1.239 0-1.379.962-3.047 2.155-3.743z"/><path d="m365.766 264.629 39.694-22.918c1.193-.683 2.178-.139 2.178 1.229 0 1.378-.962 3.058-2.167 3.742l-39.682 22.917c-1.194.695-2.167.139-2.167-1.24 0-1.378.962-3.047 2.155-3.742z"/><path d="m365.766 278.671 39.694-22.917c1.193-.684 2.178-.14 2.178 1.228 0 1.378-.962 3.058-2.167 3.742l-39.682 22.917c-1.194.695-2.167.139-2.167-1.24 0-1.378.962-3.047 2.155-3.742z"/><path d="m395.356 192.042c.081-1.831-1.135-2.561-2.699-1.634l-1.298.73c0-4.82-2.584-7.102-5.955-5.098-3.372 2.005-6.303 7.578-6.743 12.652l-1.182.707c-1.564.938-2.92 1.912-2.989 5.017l.127 10.265c-.081 1.842 1.124 2.584 2.688 1.657l14.738-8.365c2.537-1.367 2.919-3.186 2.989-5.029l.313-10.891zm-8.736 15.259c-.023.452-.347 1.008-.741 1.239l-1.274.754c-.394.231-.684.046-.673-.406l.151-3.453c-.776-.069-1.263-.753-1.216-1.911.081-1.727 1.332-3.847 2.815-4.716 1.471-.88 2.607-.185 2.537 1.541-.046 1.159-.637 2.491-1.459 3.499l-.151 3.453zm-5.213-10.231c.324-3.244 2.294-6.349 3.858-7.832 2.352-2.236 3.812 0 3.846 3.036z"/><path d="m399.945 176.285 1.425-6.581-14.425 7.913 10.485 10.3 1.321-6.106c4.53 2.978 7.369 8.678 7.566 15.502.347 12.282-7.728 24.574-18.017 27.401l.151 5.098c12.64-3.476 22.581-18.584 22.141-33.669-.255-9.049-4.298-16.475-10.636-19.847z"/><path d="m359.984 210.046c.255 9.049 4.287 16.476 10.636 19.847l-1.425 6.581 14.425-7.913-10.486-10.3-1.32 6.106c-4.531-2.978-7.369-8.678-7.566-15.502-.348-12.282 7.728-24.574 18.016-27.401l-.15-5.098c-12.641 3.476-22.582 18.584-22.141 33.68z"/></g></g></svg>