<svg xmlns="http://www.w3.org/2000/svg" width="29.9" height="24.082" viewBox="0 0 29.9 24.082">
  <g id="disconnected-icon" transform="translate(0 -0.788)">
    <path id="Subtraction_6" data-name="Subtraction 6" d="M-6129.353,54.925h-1.87a.935.935,0,0,1-.934-.934v-.3l13.825-14.426a9.267,9.267,0,0,1,.938,2.578h5.793v3.738h-5.793a9.367,9.367,0,0,1-3.208,5.336,9.358,9.358,0,0,1-5.949,2.138h-1.868v.936A.935.935,0,0,1-6129.353,54.925Zm-2.8-3.4V47.657l11.055-11.536a9.393,9.393,0,0,1,1.928,1.856l-12.981,13.546Zm-.934-.338h-2.449l2.449-2.555v2.554Zm-4.526,0h-2.015a1.87,1.87,0,0,1-1.868-1.868,1.871,1.871,0,0,1,1.868-1.87h5.6l-3.582,3.737Zm5.46-5.7V33.434a.935.935,0,0,1,.934-.934h1.87a.935.935,0,0,1,.934.934v.934h1.868a9.246,9.246,0,0,1,4.132.961l-9.736,10.159Zm-.934-5.514h-6.542a1.871,1.871,0,0,1-1.868-1.87,1.87,1.87,0,0,1,1.868-1.868h6.542v3.737Z" transform="translate(6141.5 -31.712)" fill="#d3d2d2"/>
    <path id="Line_16" data-name="Line 16" d="M-.162,22.582a1.333,1.333,0,0,1-.926-.372,1.338,1.338,0,0,1-.04-1.892L19.387-1.088a1.338,1.338,0,0,1,1.892-.04,1.338,1.338,0,0,1,.04,1.892L.8,22.17A1.334,1.334,0,0,1-.162,22.582Z" transform="translate(4.088 2.288)" fill="#d3d2d2"/>
  </g>
</svg>
