<svg width="24" height="24" viewBox="0 0 24 24" fill="none" xmlns="http://www.w3.org/2000/svg">
<path d="M13.2842 0.250854V2.60067C18.4421 3.23513 22.096 7.92302 21.4616 13.0809C21.2022 15.1593 20.2573 17.0919 18.7762 18.5729C17.2952 20.0539 15.3626 20.9989 13.2842 21.2582V23.6081C19.7462 22.9031 24.3871 17.0991 23.6822 10.6488C23.0712 5.17373 18.7593 0.83831 13.2842 0.250854ZM10.9344 0.250854C8.63157 0.462338 6.45798 1.36702 4.67212 2.83566L6.35224 4.64502C7.66814 3.5876 9.25427 2.90615 10.9344 2.67117V0.321349M3.0155 4.56277C1.54115 6.34233 0.636413 8.52435 0.418945 10.825H2.76877C2.992 9.15667 3.64995 7.57054 4.69562 6.2429L3.0155 4.56277ZM0.430694 13.1749C0.665676 15.4777 1.57036 17.6513 3.02725 19.4371L4.69562 17.757C3.65799 16.4289 2.99653 14.8463 2.78051 13.1749H0.430694ZM6.30524 19.4841L4.67212 21.0938C6.45207 22.577 8.63082 23.5008 10.9344 23.7491V21.3992C9.26293 21.1832 7.68031 20.5218 6.35224 19.4841H6.30524ZM13.2842 13.1749V6.1254H10.9344V13.1749H13.2842ZM13.2842 17.8745V15.5247H10.9344V17.8745H13.2842Z" fill="#FF5D65"/>
</svg>
