<svg fill="none" height="43" viewBox="0 0 200 43" width="200" xmlns="http://www.w3.org/2000/svg" xmlns:xlink="http://www.w3.org/1999/xlink"><clipPath id="a"><path d="m0 0h200v42.6667h-200z"/></clipPath><g clip-path="url(#a)"><path d="m99.5154 17.0227c1.0016 0 1.9946.2687 2.8656.7653l3.883 2.2387c.733-.6024 1.173-1.4979 1.173-2.4667v-5.4626c0-1.1397-.611-2.18987-1.596-2.76788l-4.73-2.72721c-.497-.28494-1.042-.43147-1.5956-.43147s-1.099.14653-1.5956.43147l-4.7299 2.72721c-.9851.56987-1.5957 1.62008-1.5957 2.76788v5.4626c0 .9688.4396 1.8643 1.1723 2.4667l3.8833-2.2387c.8711-.5048 1.8561-.7653 2.8656-.7653z" fill="#f78f22"/><path d="m.056987.0570068h10.917113v30.9111932c0 3.061 2.1736 3.004 4.1193 3.004h15.3702v8.6864h-19.8803c-5.62543 0-10.5833-2.0597-10.5833-8.6294z" fill="#f78f22"/><path d="m35.5923.0570068h10.9171v42.6096932h-10.9171z" fill="#f78f22"/><g fill="#1e293a"><path d="m158.839.0570068h-10.917v42.6096932h10.917z"/><path d="m163.187.0570068v8.6863832h12.756v33.92331h10.918v-33.92331h13.139v-8.6863832z"/><path d="m107.363 24.8299s-.008-.0652-.016-.0977c-.049-.2036-.122-.4071-.212-.5943-.008-.0244-.024-.0407-.032-.0652-.277-.5617-.708-1.0339-1.262-1.3595l-4.73-2.7272c-.985-.5699-2.2061-.5699-3.1912 0l-4.7299 2.7272c-.5536.3175-.9851.7978-1.2619 1.3595-.0081.0245-.0244.0408-.0325.0652-.0896.1872-.1547.3907-.2117.5943 0 .0325-.0163.0651-.0163.0977-.0407.2116-.0733.4314-.0733.6512v5.4626c0 1.1397.6106 2.1899 1.5957 2.7679l4.7299 2.7272c.2442.1466.5047.2524.7734.3175.5373.1466 1.099.1466 1.6368 0 .268-.0732.529-.1791.773-.3175l4.73-2.7272c.985-.5698 1.595-1.62 1.595-2.7679v-5.4626c0-.2198-.032-.4396-.073-.6512z"/><path d="m135.336 20.5559c4.787-.5536 6.855-5.2347 6.855-9.0202 0-6.62672-3.957-11.4705755-14.149-11.4705755h-20.605v7.2861355c.049.03257.09.07327.138.10584.098.06512.188.13839.277.21166.09.07327.171.14654.253.21981.105.09769.211.19538.309.30121.024.02443.049.05699.073.08955.936 1.04204 1.49 2.39347 1.49 3.82627v5.4625c0 1.4817-.586 2.8901-1.587 3.9403.488.521.887 1.1397 1.156 1.8072.016.0489.032.0896.048.1384.041.114.082.228.122.342.033.1139.066.2198.09.3337.008.0407.024.0815.033.1222.089.3989.138.8059.138 1.2292v5.4626c0 1.905-.969 3.6879-2.54 4.738v6.9361h20.833c10.249 0 14.873-4.1193 14.873-12.7568.057-4.9009-3.346-8.6294-7.799-9.3051zm-16.933-12.25215h8.914c1.946 0 4.177.83852 4.177 4.17635 0 2.3934-1.449 4.0134-4.177 4.0134h-8.914v-8.19789zm9.411 26.12425h-9.411v-10.1354h9.411c3.346 0 4.453 2.5074 4.453 5.1776 0 3.6797-1.783 4.9578-4.453 4.9578z"/></g><path d="m89.0623 30.9356v-5.4626c0-1.4898.5943-2.9063 1.5957-3.9565-1.0095-1.0502-1.5957-2.4667-1.5957-3.9565v-5.4626c0-1.9049.9688-3.67967 2.5319-4.73799v-7.35941h-10.9497v25.009l-16.9251-25.009h-11.0881v42.6097h10.9741v-24.5612l16.9903 24.5612h10.9985v-6.9361c-1.5631-1.0583-2.5319-2.833-2.5319-4.738z" fill="#f78f22"/></g></svg>