<svg width="249" height="55" viewBox="0 0 249 55" fill="none" xmlns="http://www.w3.org/2000/svg">
<g clip-path="url(#clip0_379_1649)">
<path d="M16.2857 39.7368H12.6297L10.8018 42.891H14.4577L16.2857 39.7368Z" fill="#F79133"/>
<path d="M13.6343 35.167H9.97837L8.15039 38.3212H11.8064L13.6343 35.167Z" fill="#F79133"/>
<path d="M18.9332 35.167H15.2772L13.4492 38.3212H17.1052L18.9332 35.167Z" fill="#F79133"/>
<path d="M38.8856 0.757812H35.2297L16.1016 33.7511H19.7575L38.8856 0.757812Z" fill="#F79133"/>
<path d="M21.4005 33.7511H59.0653L62.6077 27.6399L47.0221 0.757812H40.5226L21.3945 33.7511H21.4005Z" fill="#F79133"/>
<path d="M7.33151 39.7368L7.30762 39.7786L9.1117 42.891H9.15949L10.9875 39.7368H7.33151Z" fill="#F79133"/>
<path d="M9.97897 44.3066L9.95508 44.3485L11.7592 47.4608H11.807L13.6349 44.3066H9.97897Z" fill="#F79133"/>
<path d="M52.948 44.3066H15.2772L13.4492 47.4608H51.114L52.942 44.3066H52.948Z" fill="#F79133"/>
<path d="M3.86076 33.7511L22.9888 0.757812H15.8561L0.270508 27.6399L3.81297 33.7511H3.86076Z" fill="#F79133"/>
<path d="M20.5751 35.167L18.7471 38.3212H56.4118L58.2398 35.167H20.5751Z" fill="#F79133"/>
<path d="M12.6303 48.8765L12.6064 48.9183L15.8562 54.5217H47.0275L50.3011 48.8765H12.6303Z" fill="#F79133"/>
<path d="M10.8018 33.7511H14.4577L33.5858 0.757812H29.9299L10.8018 33.7511Z" fill="#F79133"/>
<path d="M5.50391 33.7511H9.15987L28.288 0.757812H24.632L5.50391 33.7511Z" fill="#F79133"/>
<path d="M4.65527 35.2088L6.45936 38.3212H6.50715L8.33513 35.167H4.67917L4.65527 35.2088Z" fill="#F79133"/>
<path d="M17.9295 39.7368L16.1016 42.891H53.7663L55.5943 39.7368H17.9295Z" fill="#F79133"/>
<path d="M80.3369 9.46729H87.4696V40.0591H102.858V45.8059H80.3369V9.46729Z" fill="#111111"/>
<path d="M110.147 9.46729H117.28V45.8119H110.147V9.46729Z" fill="#111111"/>
<path d="M127.531 9.46729H136.982L152.287 36.672H152.4V9.46729H159.533V45.8119H150.477L134.777 17.735H134.664V45.8119H127.531V9.46729Z" fill="#111111"/>
<path d="M169.407 9.46729H184.198C185.71 9.46729 187.197 9.62858 188.667 9.95714C190.136 10.2857 191.451 10.8114 192.603 11.5462C193.756 12.2809 194.688 13.2308 195.405 14.3957C196.122 15.5606 196.48 16.9644 196.48 18.6072C196.48 20.6622 195.835 22.3528 194.557 23.6909C193.273 25.023 191.594 25.9848 189.521 26.5643V26.6658C192.048 26.9705 194.127 27.8666 195.746 29.3361C197.371 30.8057 198.177 32.777 198.177 35.2382C198.177 37.2215 197.741 38.8942 196.875 40.2443C196.009 41.5944 194.868 42.6816 193.452 43.506C192.036 44.3244 190.411 44.9158 188.583 45.2802C186.755 45.6386 184.891 45.8178 183.01 45.8178H169.407V9.46729ZM176.54 24.2524H182.054C184.431 24.2524 186.241 23.8223 187.49 22.9681C188.732 22.1138 189.36 20.8952 189.36 19.324C189.36 17.7529 188.715 16.5164 187.436 15.8354C186.152 15.1543 184.151 14.8079 181.438 14.8079H176.552V24.2524H176.54ZM176.54 40.3697H182.108C183.016 40.3697 183.995 40.31 185.053 40.1905C186.11 40.071 187.084 39.8261 187.968 39.4438C188.852 39.0674 189.593 38.5179 190.178 37.801C190.764 37.0841 191.056 36.1224 191.056 34.9276C191.056 33.01 190.339 31.6779 188.906 30.9252C187.472 30.1725 185.303 29.7961 182.394 29.7961H176.546V40.3697H176.54Z" fill="#111111"/>
<path d="M206.946 9.46729H214.079V45.8119H206.946V9.46729Z" fill="#111111"/>
<path d="M221.051 15.1125V9.46729H248.279V15.1125H238.118V45.8119H230.985V15.1125H221.051Z" fill="#111111"/>
</g>
<defs>
<clipPath id="clip0_379_1649">
<rect width="248.008" height="53.7642" fill="white" transform="translate(0.270508 0.757812)"/>
</clipPath>
</defs>
</svg>
