<svg width="315" height="296" viewBox="0 0 315 296" fill="none" xmlns="http://www.w3.org/2000/svg">
<g clip-path="url(#clip0_703_1039)">
<path d="M276.338 69.1102L272.804 71.2322L310.21 135.842L296.26 159.927L281.939 151.686L290.515 136.872L291.114 135.842L224.299 20.4674H90.6693L80.584 37.8766L84.18 39.9163L93.046 24.5879H195.614V41.07H189.435V45.1905H209.977L216.57 56.5632L220.166 54.5441L212.375 41.07H199.748V24.5879H221.923L260.239 90.7635L245.917 99.0046L225.333 63.4651L221.737 65.4841L224.237 69.7901L209.915 78.0311L200.43 61.6726H155.066V65.7932H198.053L237.423 133.782H218.327L205.617 111.819L202.021 113.838L214.751 135.842L201.897 158.052L187.575 149.811L195.656 135.842L177.758 104.938L187.306 88.456L196.854 104.918L200.45 102.898L188.505 82.2753H138.678V65.7932H144.733V61.6726H116.916L107.368 45.1905H179.102V41.07H102.594L77.6494 84.1707L63.3274 75.9296L79.0134 48.8372L75.4174 46.7975L70.5608 55.2034L56.2388 46.9624L81.1214 3.98527H233.847L267.637 62.3113L271.171 60.1892L236.224 -0.135254H78.724L43.7149 60.3335L47.2488 62.4555L54.1721 50.5266L68.4941 58.7677L24.4329 134.812L23.8543 135.842L71.3874 217.923L74.9834 215.883L67.2541 202.553L81.576 194.312L102.594 230.614H166.474V226.494H104.991L75.7894 176.1L72.1934 178.119L79.5094 190.748L65.1874 198.989L28.6283 135.842L61.2608 79.4939L75.5827 87.735L72.0694 93.7921L75.6654 95.8318L103.793 47.2508L113.341 63.7329L109.269 70.7584L112.865 72.798L116.916 65.7932H134.544V82.2753H126.464L95.4433 135.842L113.671 167.323L117.267 165.304L100.217 135.842L128.84 86.3958H183.731L174.183 102.878H161.266V106.998H174.183L181.499 119.628L167.198 127.869L164.635 123.481H150.334L143.162 135.842L150.334 148.204H164.635L165.854 146.123L162.238 144.083H152.71L147.936 135.842L152.71 127.601H162.258L167.032 135.842L166.991 135.924L170.587 137.964L171.806 135.842L169.264 131.454L183.566 123.213L190.902 135.842L174.183 164.686H140.786L124.067 135.842L140.786 106.998H150.933V102.878H138.388L119.293 135.842L137.19 166.746L127.663 183.228L122.434 174.225L118.838 176.264L126.464 189.409H155.418V205.891H116.916L76.3474 135.842L107.699 81.719L104.103 79.6793L72.7721 133.782H53.6762L70.4987 104.753L66.9028 102.713L47.7035 135.842L67.0268 169.198L70.6227 167.179L53.6762 137.902H72.7721L114.519 210.012H198.053L207.601 226.494H176.808V230.614H185.116V247.096H93.046L80.15 224.804L76.5541 226.844L90.6693 251.217H113.485V267.699H81.1214L4.75836 135.842L42.0822 71.3971L38.5482 69.2544L0.583706 134.812L-0.015625 135.842L78.724 271.819H152.318V267.699H117.619V251.217H201.546V247.096H189.249V230.614H212.375L242.858 177.954L257.18 186.195L244.284 208.487L247.88 210.506L272.205 168.497L268.609 166.458L259.247 182.631L244.925 174.39L267.265 135.842L257.159 118.392L253.563 120.431L262.491 135.842L211.176 224.433L201.628 207.951L209.523 194.333L205.927 192.314L198.053 205.891H159.551V189.409H164.242V185.288H131.238L140.786 168.806H176.58L185.508 153.375L199.83 161.616L186.128 185.288H174.576V189.409H188.505L218.327 137.902H237.423L211.093 183.393L214.689 185.412L243.395 135.842L211.982 81.616L226.304 73.3543L248.397 111.51L251.993 109.471L247.983 102.569L262.305 94.3278L286.341 135.842L273.775 157.537L277.371 159.576L279.872 155.27L294.194 163.511L253.646 233.519L239.365 225.196L242.713 219.427L239.117 217.408L221.923 247.096H211.879V251.217H224.299L237.299 228.76L251.579 237.083L233.847 267.699H162.651V271.819H236.224L314.385 136.872L314.984 135.842L276.338 69.1102Z" fill="#666666"/>
<path d="M290.309 53.4934L263.504 69.6046L229.962 11.7112L229.673 11.1962H85.2961L69.3828 38.6595L89.1607 49.8467L98.4194 33.8591H183.235V52.4014H150.933V52.3808H148.866V75.0849H150.933V75.0643H192.68L208.8 102.878L190.82 113.076L191.853 114.848L204.026 135.842L195.511 150.511L197.309 151.541L206.402 135.842L193.651 113.838L211.548 103.723L194.168 73.5191L193.878 73.0041H150.933V54.4617H183.235V54.4823H185.302V33.8591V31.7988V31.7782H183.235V31.7988H97.2207L88.3961 47.0447L72.1521 37.856L86.4947 13.2564H228.474L262.76 72.4684L291.363 55.2446L290.309 53.4934Z" fill="#F79133" stroke="#F79133" stroke-width="0.5"/>
</g>
<defs>
<clipPath id="clip0_703_1039">
<rect width="315" height="296" fill="white"/>
</clipPath>
</defs>
</svg>
