<?xml version="1.0" encoding="utf-8"?>
<!-- Generator: Adobe Illustrator 26.5.0, SVG Export Plug-In . SVG Version: 6.00 Build 0)  -->
<svg version="1.1" id="Layer_1" xmlns="http://www.w3.org/2000/svg" xmlns:xlink="http://www.w3.org/1999/xlink" x="0px" y="0px"
	 viewBox="0 0 841.89 595.28" style="enable-background:new 0 0 841.89 595.28;" xml:space="preserve">
<style type="text/css">
	.st0{fill:url(#SVGID_00000142141410393155900690000013648020749336303274_);}
	.st1{fill:url(#SVGID_00000060001460602425762930000010979036392031262646_);}
	.st2{fill:url(#SVGID_00000070091703983237049720000016983782616678472112_);}
	.st3{fill:url(#SVGID_00000135674710282575195080000008662776992672461993_);}
	.st4{fill:url(#SVGID_00000047031941998603750400000011584731668359708045_);}
	.st5{fill:url(#SVGID_00000156546457628199636180000002375265364454975421_);}
	
		.st6{clip-path:url(#SVGID_00000127029923462486144630000000953165697334675118_);fill:url(#SVGID_00000157265968371592442960000014519862178465648301_);}
	
		.st7{clip-path:url(#SVGID_00000097460219928715869060000017380944509699267766_);fill:url(#SVGID_00000069384766003959632170000014286642939449025971_);}
	
		.st8{clip-path:url(#SVGID_00000105407584074912486070000015243020697952239747_);fill:url(#SVGID_00000109017616704350920340000006461440757212539315_);}
	.st9{fill:#E6E7E8;}
</style>
<g>
	<g>
		<g>
			<g>
				<defs>
					<path id="SVGID_1_" d="M252.34,176.45c-7.26,1.39-11.81,5.42-13.63,12.08v43.53c14.67-1.18,29.76-2.3,45.24-3.35v-19.23h24.98
						v17.62c14.77-0.9,29.86-1.74,45.24-2.52v-15.1h24.91v13.92c14.84-0.66,29.92-1.26,45.24-1.8v-45.15H252.34z"/>
				</defs>
				<clipPath id="SVGID_00000110451038184128950000000006712712131538219149_">
					<use xlink:href="#SVGID_1_"  style="overflow:visible;"/>
				</clipPath>
			</g>
			<g>
				<defs>
					<path id="SVGID_00000021835691211204113320000015702626613205700023_" d="M729.13,176.45l-35.87,38.86L657,176.45h-54.99h-1.59
						H431.95v33.02h62.37v10.15c14.91-0.31,30-0.58,45.24-0.77v-9.39h62.45v-31.32l37.67,40.31c36,0.17,71.26,0.69,105.57,1.52
						l40.38-43.54H729.13z"/>
				</defs>
				<clipPath id="SVGID_00000118374808954635887570000005597430475304196015_">
					<use xlink:href="#SVGID_00000021835691211204113320000015702626613205700023_"  style="overflow:visible;"/>
				</clipPath>
			</g>
			<g>
				<defs>
					<path id="SVGID_00000167362171132865852830000002699059919963775905_" d="M71.78,176.45c-7.26,1.39-11.8,5.42-13.63,12.08v65.2
						c13.97-2.49,29.08-4.87,45.24-7.15v-37.1h79.96v27.59c14.45-1.45,29.41-2.83,44.86-4.13v-45.8
						c-2.39-5.95-6.82-9.51-13.33-10.67H71.78z"/>
				</defs>
				<clipPath id="SVGID_00000108287073600120161420000006817040862576285625_">
					<use xlink:href="#SVGID_00000167362171132865852830000002699059919963775905_"  style="overflow:visible;"/>
				</clipPath>
			</g>
		</g>
		<g>
			
				<linearGradient id="SVGID_00000012457667363720444670000005595233427625422779_" gradientUnits="userSpaceOnUse" x1="261.3306" y1="341.8177" x2="261.3306" y2="224.625">
				<stop  offset="0" style="stop-color:#FFFFFF"/>
				<stop  offset="1" style="stop-color:#000000"/>
			</linearGradient>
			<path style="fill:url(#SVGID_00000012457667363720444670000005595233427625422779_);" d="M238.71,307.05h45.24V228.7
				c-15.47,1.05-30.57,2.17-45.24,3.35V307.05z"/>
			
				<linearGradient id="SVGID_00000172431414800736811980000017592471811083112592_" gradientUnits="userSpaceOnUse" x1="331.5456" y1="341.8181" x2="331.5456" y2="224.6249">
				<stop  offset="0" style="stop-color:#FFFFFF"/>
				<stop  offset="1" style="stop-color:#000000"/>
			</linearGradient>
			<path style="fill:url(#SVGID_00000172431414800736811980000017592471811083112592_);" d="M308.93,307.05h45.24v-82.47
				c-15.38,0.77-30.47,1.61-45.24,2.51V307.05z"/>
			
				<linearGradient id="SVGID_00000027581973412963045840000012163837486281302675_" gradientUnits="userSpaceOnUse" x1="401.6865" y1="341.8175" x2="401.6865" y2="224.6262">
				<stop  offset="0" style="stop-color:#FFFFFF"/>
				<stop  offset="1" style="stop-color:#000000"/>
			</linearGradient>
			<path style="fill:url(#SVGID_00000027581973412963045840000012163837486281302675_);" d="M379.07,307.05h45.24V221.6
				c-15.31,0.53-30.4,1.13-45.24,1.8V307.05z"/>
			
				<linearGradient id="SVGID_00000031906993972154017710000011055445181973029813_" gradientUnits="userSpaceOnUse" x1="516.9449" y1="341.8177" x2="516.9449" y2="224.6251">
				<stop  offset="0" style="stop-color:#FFFFFF"/>
				<stop  offset="1" style="stop-color:#000000"/>
			</linearGradient>
			<path style="fill:url(#SVGID_00000031906993972154017710000011055445181973029813_);" d="M494.33,307.05h45.24v-88.19
				c-15.24,0.19-30.32,0.45-45.24,0.77V307.05z"/>
			
				<linearGradient id="SVGID_00000038394607617523360950000011345925729994500762_" gradientUnits="userSpaceOnUse" x1="693.2158" y1="341.8174" x2="693.2158" y2="224.6263">
				<stop  offset="0" style="stop-color:#FFFFFF"/>
				<stop  offset="1" style="stop-color:#000000"/>
			</linearGradient>
			<path style="fill:url(#SVGID_00000038394607617523360950000011345925729994500762_);" d="M726,242.42
				c-0.51-0.67-0.51-1.23,0-1.68l19.26-20.76c-34.31-0.83-69.58-1.35-105.57-1.52l20.82,22.28c0.51,0.67,0.51,1.23,0,1.68
				l-60.08,64.63H657l36.25-39.19l36.25,38.86h56.51L726,242.42z"/>
			
				<linearGradient id="SVGID_00000015342647768788792510000016969106364135688084_" gradientUnits="userSpaceOnUse" x1="143.1783" y1="341.8175" x2="143.1783" y2="224.6258">
				<stop  offset="0" style="stop-color:#FFFFFF"/>
				<stop  offset="1" style="stop-color:#000000"/>
			</linearGradient>
			<path style="fill:url(#SVGID_00000015342647768788792510000016969106364135688084_);" d="M183.35,274.03h-79.96v-27.46
				c-16.15,2.28-31.27,4.66-45.24,7.15v41.31c1.57,6.4,6.12,10.4,13.63,12.01h143.1c6.5-0.89,10.94-4.45,13.33-10.67v-63.45
				c-15.45,1.3-30.41,2.68-44.86,4.13V274.03z"/>
			<g>
				<defs>
					<path id="SVGID_00000090991304929582002340000009821662250309438121_" d="M252.34,176.45c-7.26,1.39-11.81,5.42-13.63,12.08
						v43.53c14.67-1.18,29.76-2.3,45.24-3.35v-19.23h24.98v17.62c14.77-0.9,29.86-1.74,45.24-2.52v-15.1h24.91v13.92
						c14.84-0.66,29.92-1.26,45.24-1.8v-45.15H252.34z"/>
				</defs>
				<clipPath id="SVGID_00000067915472732270097450000009937727322556962438_">
					<use xlink:href="#SVGID_00000090991304929582002340000009821662250309438121_"  style="overflow:visible;"/>
				</clipPath>
				
					<linearGradient id="SVGID_00000168822950326879114290000008384783711547348634_" gradientUnits="userSpaceOnUse" x1="64.3352" y1="565.6912" x2="66.0065" y2="565.6912" gradientTransform="matrix(0 -36.3397 -36.3397 0 20888.5566 2543.907)">
					<stop  offset="0" style="stop-color:#F1F0F0"/>
					<stop  offset="0.9624" style="stop-color:#909295"/>
					<stop  offset="1" style="stop-color:#909295"/>
				</linearGradient>
				
					<rect x="238.71" y="176.45" style="clip-path:url(#SVGID_00000067915472732270097450000009937727322556962438_);fill:url(#SVGID_00000168822950326879114290000008384783711547348634_);" width="185.59" height="55.61"/>
			</g>
			<g>
				<defs>
					<path id="SVGID_00000162321152296286926820000010424926028928298634_" d="M729.13,176.45l-35.87,38.86L657,176.45h-54.99h-1.59
						H431.95v33.02h62.37v10.15c14.91-0.31,30-0.58,45.24-0.77v-9.39h62.45v-31.32l37.67,40.31c36,0.17,71.26,0.69,105.57,1.52
						l40.38-43.54H729.13z"/>
				</defs>
				<clipPath id="SVGID_00000072256212688313172030000015302095990708470922_">
					<use xlink:href="#SVGID_00000162321152296286926820000010424926028928298634_"  style="overflow:visible;"/>
				</clipPath>
				
					<linearGradient id="SVGID_00000086661041792961632840000002054526989769007767_" gradientUnits="userSpaceOnUse" x1="64.3289" y1="562.62" x2="66.0003" y2="562.62" gradientTransform="matrix(0 -36.3397 -36.3397 0 21054.2344 2543.709)">
					<stop  offset="0" style="stop-color:#F1F0F0"/>
					<stop  offset="0.9624" style="stop-color:#909295"/>
					<stop  offset="1" style="stop-color:#909295"/>
				</linearGradient>
				
					<rect x="431.95" y="176.45" style="clip-path:url(#SVGID_00000072256212688313172030000015302095990708470922_);fill:url(#SVGID_00000086661041792961632840000002054526989769007767_);" width="353.68" height="43.54"/>
			</g>
			<g>
				<defs>
					<path id="SVGID_00000170255846337551138860000014454552403245130399_" d="M71.78,176.45c-7.26,1.39-11.8,5.42-13.63,12.08v65.2
						c13.97-2.49,29.08-4.87,45.24-7.15v-37.1h79.96v27.59c14.45-1.45,29.41-2.83,44.86-4.13v-45.8
						c-2.39-5.95-6.82-9.51-13.33-10.67H71.78z"/>
				</defs>
				<clipPath id="SVGID_00000105406869690896732190000018221053786947439756_">
					<use xlink:href="#SVGID_00000170255846337551138860000014454552403245130399_"  style="overflow:visible;"/>
				</clipPath>
				
					<linearGradient id="SVGID_00000078013087495024727870000010489245353043282356_" gradientUnits="userSpaceOnUse" x1="64.3382" y1="567.7776" x2="66.0101" y2="567.7776" gradientTransform="matrix(0 -36.3396 -36.3396 0 20775.9922 2544.0801)">
					<stop  offset="0" style="stop-color:#F1F0F0"/>
					<stop  offset="0.9624" style="stop-color:#909295"/>
					<stop  offset="1" style="stop-color:#909295"/>
				</linearGradient>
				
					<rect x="58.15" y="176.45" style="clip-path:url(#SVGID_00000105406869690896732190000018221053786947439756_);fill:url(#SVGID_00000078013087495024727870000010489245353043282356_);" width="170.06" height="77.28"/>
			</g>
		</g>
		<g>
			<g>
				<defs>
					<path id="SVGID_00000093150214792978845800000009646250197535502246_" d="M252.34,176.45c-7.26,1.39-11.81,5.42-13.63,12.08
						v43.53c14.67-1.18,29.76-2.3,45.24-3.35v-19.23h24.98v17.62c14.77-0.9,29.86-1.74,45.24-2.52v-15.1h24.91v13.92
						c14.84-0.66,29.92-1.26,45.24-1.8v-45.15H252.34z"/>
				</defs>
				<clipPath id="SVGID_00000057831421763272622000000001902062434696664477_">
					<use xlink:href="#SVGID_00000093150214792978845800000009646250197535502246_"  style="overflow:visible;"/>
				</clipPath>
			</g>
			<g>
				<defs>
					<path id="SVGID_00000121280973222246033300000000633542122394769828_" d="M729.13,176.45l-35.87,38.86L657,176.45h-54.99h-1.59
						H431.95v33.02h62.37v10.15c14.91-0.31,30-0.58,45.24-0.77v-9.39h62.45v-31.32l37.67,40.31c36,0.17,71.26,0.69,105.57,1.52
						l40.38-43.54H729.13z"/>
				</defs>
				<clipPath id="SVGID_00000013901297718789659200000003638537407539136397_">
					<use xlink:href="#SVGID_00000121280973222246033300000000633542122394769828_"  style="overflow:visible;"/>
				</clipPath>
			</g>
			<g>
				<defs>
					<path id="SVGID_00000114782382545595834950000002320926806331924926_" d="M71.78,176.45c-7.26,1.39-11.8,5.42-13.63,12.08v65.2
						c13.97-2.49,29.08-4.87,45.24-7.15v-37.1h79.96v27.59c14.45-1.45,29.41-2.83,44.86-4.13v-45.8
						c-2.39-5.95-6.82-9.51-13.33-10.67H71.78z"/>
				</defs>
				<clipPath id="SVGID_00000023998635041700618810000007012470421268831891_">
					<use xlink:href="#SVGID_00000114782382545595834950000002320926806331924926_"  style="overflow:visible;"/>
				</clipPath>
			</g>
		</g>
	</g>
	<g>
		<path class="st9" d="M569.41,396.16v-40.15c-0.74-3.41-2.87-5.55-6.4-6.4h-73.03v69.22h60.88L569.41,396.16z M511.11,401.32V367.1
			h37.17v34.22H511.11z"/>
		<path class="st9" d="M612.69,349.6h30.02v69.22h-48.45l14.23-17.5h13.09v-30.2l-39.13,47.7h-26.43L612.69,349.6z"/>
		<path class="st9" d="M755.99,349.6h30.02v69.22h-48.45l14.23-17.5h13.09v-30.2l-39.13,47.7h-26.43L755.99,349.6z"/>
		<g>
			<polygon class="st9" points="750.76,349.6 647.02,349.6 647.02,367.1 676.15,367.1 676.15,418.83 697.28,418.83 697.28,367.1 
				736.43,367.1 			"/>
		</g>
	</g>
	<path class="st9" d="M385.73,349.98h25.18h0.53l0.34,0.42l15.25,18.72l15.09-18.71l0.34-0.42h0.53h25.16h2.4l-1.52,1.87
		l-26.31,32.46l26.48,32.46l1.53,1.88h-2.41h-25.15h-0.53l-0.34-0.42l-15.26-18.72L411.8,418.4l-0.34,0.43h-0.54h-10.17h-1.14
		h-16.28h-48.3h-1.14v-1.15v-66.93v-1.15h1.14h20.25h1.14v1.15v48.86h42.51l12.42-15.3l-26.49-32.46l-1.53-1.87H385.73z
		 M114.98,394.52h21.81h1.14v1.15v22.02v1.15h-1.14h-21.81h-1.14v-1.15v-22.02v-1.15H114.98z M385.19,416.53l11.87-14.62h-41.78
		h-1.14v-1.15V351.9h-17.96v64.63H385.19z M135.66,396.81h-19.55v19.71h19.55V396.81z M57.02,349.6h20.24h1.14v1.15v42.94
		l35.53-43.67l0.34-0.42h0.54h25.3h2.41l-1.53,1.87L86.7,418.41l-0.34,0.42h-0.54H57.02h-1.14v-1.15v-66.93v-1.15H57.02z
		 M76.12,351.9H58.15v64.63h27.14l52.41-64.63h-22.36l-37.2,45.72l-2.02,2.48v-3.21V351.9z M147.03,349.6h70.15
		c1.69,0,3.11,0.64,4.26,1.69c1.23,1.13,2.14,2.75,2.78,4.54l0.06,0.19v0.19v39.79v0.18l-0.07,0.2c-0.99,2.78-2.73,4.7-5.21,5.77
		c-1.74,0.75-3.84,1.07-6.29,0.94l11.32,13.85l1.53,1.88h-2.4h-25.34h-0.53l-0.34-0.42l-12.93-15.79H176h-1.14v-1.15v-16.92v-1.15
		H176h25.93v-14.59h-33.51v48.86v1.15h-1.14h-20.25h-1.14v-1.15v-66.93v-1.15H147.03z M217.18,351.9h-69.02v64.63h17.97v-48.86
		v-1.15h1.14h35.8h1.13v1.15v16.89v1.15h-1.13h-25.93v14.62h7.41h0.54l0.34,0.42l12.92,15.78h22.39l-11.56-14.14l-1.92-2.36
		l2.98,0.5c3.27,0.55,5.89,0.39,7.87-0.46c1.82-0.79,3.13-2.2,3.9-4.24v-39.4c-0.51-1.38-1.2-2.6-2.1-3.42
		C219.17,352.31,218.26,351.9,217.18,351.9 M232.12,349.6h20.24h1.14v1.15v66.93v1.15h-1.14h-20.24h-1.14v-1.15v-66.93v-1.15H232.12
		z M251.23,351.9h-17.97v64.63h17.97V351.9z M261.09,349.6h20.25h1.14v1.15v48.86h43.19h1.14v1.15v16.92v1.15h-1.14h-64.58h-1.13
		v-1.15v-66.93v-1.15H261.09z M280.2,351.9h-17.97v64.63h62.3v-14.62h-43.19h-1.14v-1.15V351.9z"/>
</g>
</svg>
