<svg fill="none" height="17" viewBox="0 0 16 17" width="16" xmlns="http://www.w3.org/2000/svg"><path d="m8 .5c1.06087 0 2.0783.421427 2.8284 1.17157.7502.75015 1.1716 1.76756 1.1716 2.82843s-.4214 2.07828-1.1716 2.82843c-.7501.75014-1.76753 1.17157-2.8284 1.17157s-2.07828-.42143-2.82843-1.17157c-.75014-.75015-1.17157-1.76756-1.17157-2.82843s.42143-2.07828 1.17157-2.82843c.75015-.750143 1.76756-1.17157 2.82843-1.17157zm0 2c-.53043 0-1.03914.21071-1.41421.58579-.37508.37507-.58579.88378-.58579 1.41421s.21071 1.03914.58579 1.41421c.37507.37508.88378.58579 1.41421.58579s1.03914-.21071 1.41421-.58579c.37508-.37507.58579-.88378.58579-1.41421s-.21071-1.03914-.58579-1.41421c-.37507-.37508-.88378-.58579-1.41421-.58579zm0 7c2.67 0 8 1.33 8 4v3h-16v-3c0-2.67 5.33-4 8-4zm0 1.9c-2.97 0-6.1 1.46-6.1 2.1v1.1h12.2v-1.1c0-.64-3.13-2.1-6.1-2.1z" fill="#f79133"/></svg>