<svg width="81" height="76" viewBox="0 0 81 76" fill="none" xmlns="http://www.w3.org/2000/svg">
<path d="M6.4325 76H74.5676C75.6743 75.9998 76.7619 75.7127 77.7243 75.1668C78.6867 74.621 79.4908 73.8349 80.0582 72.8856C80.6256 71.9362 80.9368 70.856 80.9614 69.7505C80.986 68.645 80.7232 67.552 80.1986 66.5784L46.133 3.36158C43.7163 -1.12053 37.2838 -1.12053 34.8671 3.36158L0.801552 66.5784C0.276941 67.552 0.0140917 68.645 0.0386902 69.7505C0.0632887 70.856 0.374494 71.9362 0.941893 72.8856C1.50929 73.8349 2.31347 74.621 3.27585 75.1668C4.23823 75.7127 5.32588 75.9998 6.4325 76Z" fill="#FFC130"/>
<path d="M39.4441 25.8405L40.4996 50.6667L41.5534 25.8507C41.5599 25.692 41.5371 25.5336 41.4864 25.385C41.4357 25.2364 41.3581 25.1009 41.2585 24.9866C41.1588 24.8723 41.0391 24.7817 40.9068 24.7204C40.7744 24.659 40.6321 24.6281 40.4886 24.6297C40.3476 24.6312 40.2083 24.664 40.079 24.7261C39.9496 24.7882 39.8328 24.8783 39.7354 24.9911C39.638 25.104 39.5621 25.2373 39.5121 25.3832C39.462 25.5291 39.4389 25.6846 39.4441 25.8405Z" fill="black" stroke="black" stroke-width="5" stroke-linecap="round" stroke-linejoin="round"/>
<path d="M40.5012 63.6481C40.2302 63.6481 39.9652 63.5678 39.7399 63.4172C39.5145 63.2666 39.3389 63.0526 39.2352 62.8022C39.1315 62.5518 39.1043 62.2763 39.1572 62.0104C39.2101 61.7446 39.3406 61.5004 39.5322 61.3088C39.7239 61.1171 39.968 60.9866 40.2339 60.9337C40.4997 60.8809 40.7753 60.908 41.0256 61.0117C41.2761 61.1154 41.4901 61.2911 41.6407 61.5164C41.7912 61.7418 41.8716 62.0067 41.8716 62.2778C41.8716 62.6412 41.7272 62.9898 41.4702 63.2468C41.2132 63.5038 40.8647 63.6481 40.5012 63.6481Z" fill="black" stroke="black" stroke-width="5"/>
</svg>
