<?xml version="1.0" encoding="UTF-8"?>
<svg id="SvgjsSvg1013" xmlns="http://www.w3.org/2000/svg" xmlns:svgjs="http://svgjs.dev/svgjs" version="1.1" viewBox="0 0 250 250">
  <!-- Generator: Adobe Illustrator 29.4.0, SVG Export Plug-In . SVG Version: 2.1.0 Build 152)  -->
  <defs>
    <style>
      .st0 {
        fill: #f79133;
      }
    </style>
  </defs>
  <g id="SvgjsG1012">
    <polygon class="st0" points="64.2 173.8 49.6 173.8 42.2 186.6 56.9 186.6 64.2 173.8"/>
    <polygon class="st0" points="53.6 155.4 38.9 155.4 31.6 168.1 46.3 168.1 53.6 155.4"/>
    <polygon class="st0" points="74.8 155.4 60.2 155.4 52.9 168.1 67.5 168.1 74.8 155.4"/>
    <polygon class="st0" points="154.9 16.5 140.2 16.5 63.5 149.7 78.1 149.7 154.9 16.5"/>
    <polygon class="st0" points="84.7 149.7 235.8 149.7 250 125 187.5 16.5 161.4 16.5 84.7 149.7"/>
    <polygon class="st0" points="28.3 173.8 28.2 174 35.5 186.6 35.6 186.6 43 173.8 28.3 173.8"/>
    <polygon class="st0" points="38.9 192.3 38.8 192.4 46.1 205 46.3 205 53.6 192.3 38.9 192.3"/>
    <polygon class="st0" points="211.2 192.3 60.2 192.3 52.9 205 203.9 205 211.2 192.3"/>
    <polygon class="st0" points="14.4 149.7 91.1 16.5 62.5 16.5 0 125 14.2 149.7 14.4 149.7"/>
    <polygon class="st0" points="81.4 155.4 74.1 168.1 225.2 168.1 232.5 155.4 81.4 155.4"/>
    <polygon class="st0" points="49.6 210.7 49.5 210.9 62.5 233.5 187.5 233.5 200.6 210.7 49.6 210.7"/>
    <polygon class="st0" points="42.2 149.7 56.9 149.7 133.6 16.5 118.9 16.5 42.2 149.7"/>
    <polygon class="st0" points="21 149.7 35.6 149.7 112.3 16.5 97.7 16.5 21 149.7"/>
    <polygon class="st0" points="17.6 155.5 24.8 168.1 25 168.1 32.3 155.4 17.7 155.4 17.6 155.5"/>
    <polygon class="st0" points="70.8 173.8 63.5 186.6 214.5 186.6 221.9 173.8 70.8 173.8"/>
  </g>
</svg>