<svg width="13" height="14" viewBox="0 0 13 14" fill="none" xmlns="http://www.w3.org/2000/svg">
<path d="M2.33334 14C1.90556 14 1.53948 13.8478 1.23511 13.5434C0.930743 13.2391 0.778299 12.8727 0.77778 12.4444V2.33333C0.55741 2.33333 0.372818 2.25867 0.224003 2.10933C0.075188 1.96 0.0005212 1.77541 2.68199e-06 1.55556C-0.000515836 1.3357 0.0741509 1.15111 0.224003 1.00178C0.373855 0.852444 0.558447 0.777778 0.77778 0.777778H3.88889C3.88889 0.557407 3.96356 0.372815 4.11289 0.224C4.26222 0.0751853 4.44682 0.000518518 4.66667 0H7.77778C7.99815 0 8.183 0.0746667 8.33234 0.224C8.48167 0.373333 8.55608 0.557926 8.55556 0.777778H11.6667C11.887 0.777778 12.0719 0.852444 12.2212 1.00178C12.3706 1.15111 12.445 1.3357 12.4444 1.55556C12.4439 1.77541 12.3693 1.96026 12.2204 2.11011C12.0716 2.25996 11.887 2.33437 11.6667 2.33333V12.4444C11.6667 12.8722 11.5145 13.2386 11.2101 13.5434C10.9057 13.8483 10.5394 14.0005 10.1111 14H2.33334ZM10.1111 2.33333H2.33334V12.4444H10.1111V2.33333ZM4.66667 10.8889C4.88704 10.8889 5.07189 10.8142 5.22122 10.6649C5.37056 10.5156 5.44497 10.331 5.44445 10.1111V4.66667C5.44445 4.4463 5.36978 4.2617 5.22045 4.11289C5.07111 3.96407 4.88652 3.88941 4.66667 3.88889C4.44682 3.88837 4.26222 3.96304 4.11289 4.11289C3.96356 4.26274 3.88889 4.44733 3.88889 4.66667V10.1111C3.88889 10.3315 3.96356 10.5163 4.11289 10.6657C4.26222 10.815 4.44682 10.8894 4.66667 10.8889ZM7.77778 10.8889C7.99815 10.8889 8.183 10.8142 8.33234 10.6649C8.48167 10.5156 8.55608 10.331 8.55556 10.1111V4.66667C8.55556 4.4463 8.48089 4.2617 8.33156 4.11289C8.18222 3.96407 7.99763 3.88941 7.77778 3.88889C7.55793 3.88837 7.37334 3.96304 7.224 4.11289C7.07467 4.26274 7 4.44733 7 4.66667V10.1111C7 10.3315 7.07467 10.5163 7.224 10.6657C7.37334 10.815 7.55793 10.8894 7.77778 10.8889Z" fill="currentColor"/>
</svg>
