<svg width="31" height="31" viewBox="0 0 31 31" fill="none" xmlns="http://www.w3.org/2000/svg">
<path d="M15.0986 7.91994C14.8334 7.91994 14.5791 8.02529 14.3915 8.21283C14.204 8.40037 14.0986 8.65472 14.0986 8.91994C14.0986 9.18515 14.204 9.43951 14.3915 9.62704C14.5791 9.81458 14.8334 9.91994 15.0986 9.91994C15.3638 9.91994 15.6182 9.81458 15.8057 9.62704C15.9933 9.43951 16.0986 9.18515 16.0986 8.91994C16.0986 8.65472 15.9933 8.40037 15.8057 8.21283C15.6182 8.02529 15.3638 7.91994 15.0986 7.91994ZM15.0986 14.9199C14.8334 14.9199 14.5791 15.0253 14.3915 15.2128C14.204 15.4004 14.0986 15.6547 14.0986 15.9199C14.0986 16.1852 14.204 16.4395 14.3915 16.627C14.5791 16.8146 14.8334 16.9199 15.0986 16.9199C15.3638 16.9199 15.6182 16.8146 15.8057 16.627C15.9933 16.4395 16.0986 16.1852 16.0986 15.9199C16.0986 15.6547 15.9933 15.4004 15.8057 15.2128C15.6182 15.0253 15.3638 14.9199 15.0986 14.9199ZM15.0986 21.9199C14.8334 21.9199 14.5791 22.0253 14.3915 22.2128C14.204 22.4004 14.0986 22.6547 14.0986 22.9199C14.0986 23.1852 14.204 23.4395 14.3915 23.627C14.5791 23.8146 14.8334 23.9199 15.0986 23.9199C15.3638 23.9199 15.6182 23.8146 15.8057 23.627C15.9933 23.4395 16.0986 23.1852 16.0986 22.9199C16.0986 22.6547 15.9933 22.4004 15.8057 22.2128C15.6182 22.0253 15.3638 21.9199 15.0986 21.9199Z" stroke="white" stroke-width="2" stroke-linecap="round" stroke-linejoin="round"/>
</svg>
