<svg width="30" height="31" viewBox="0 0 30 31" fill="none" xmlns="http://www.w3.org/2000/svg">
<circle cx="14.9997" cy="15.9196" r="11.4997" fill="#FA4D56"/>
<path d="M15 4.41994C12.7255 4.41994 10.5021 5.0944 8.61095 6.35804C6.71978 7.62167 5.2458 9.41773 4.37539 11.5191C3.50498 13.6204 3.27724 15.9327 3.72097 18.1635C4.1647 20.3943 5.25997 22.4434 6.86828 24.0517C8.47658 25.66 10.5257 26.7552 12.7565 27.199C14.9872 27.6427 17.2995 27.415 19.4009 26.5445C21.5022 25.6741 23.2983 24.2002 24.5619 22.309C25.8255 20.4178 26.5 18.1944 26.5 15.9199C26.5 12.8699 25.2884 9.94488 23.1317 7.78821C20.9751 5.63154 18.05 4.41994 15 4.41994ZM15 25.7771C13.0504 25.7771 11.1447 25.199 9.52367 24.1158C7.90267 23.0327 6.63926 21.4933 5.89319 19.6921C5.14713 17.8909 4.95192 15.909 5.33226 13.9969C5.7126 12.0848 6.65141 10.3284 8.02995 8.94988C9.4085 7.57134 11.1649 6.63254 13.077 6.2522C14.9891 5.87186 16.971 6.06706 18.7722 6.81312C20.5733 7.55919 22.1128 8.8226 23.1959 10.4436C24.279 12.0646 24.8571 13.9704 24.8571 15.9199C24.8571 18.5342 23.8186 21.0414 21.9701 22.89C20.1215 24.7386 17.6143 25.7771 15 25.7771Z" fill="white"/>
<path d="M14.1783 9.34852H15.8211V18.3842H14.1783V9.34852ZM14.9997 20.8485C14.756 20.8485 14.5178 20.9208 14.3152 21.0562C14.1126 21.1916 13.9546 21.384 13.8614 21.6091C13.7681 21.8343 13.7437 22.082 13.7913 22.321C13.8388 22.5601 13.9561 22.7796 14.1285 22.9519C14.3008 23.1242 14.5203 23.2416 14.7593 23.2891C14.9984 23.3367 15.2461 23.3123 15.4712 23.219C15.6964 23.1258 15.8888 22.9678 16.0242 22.7652C16.1596 22.5626 16.2319 22.3244 16.2319 22.0807C16.2319 21.7539 16.102 21.4405 15.871 21.2094C15.6399 20.9783 15.3265 20.8485 14.9997 20.8485Z" fill="white"/>
</svg>
