<svg width="30" height="31" viewBox="0 0 30 31" fill="none" xmlns="http://www.w3.org/2000/svg">
<path d="M10.0198 14.0749H8.62984C8.15984 14.0749 7.69984 14.2649 7.35984 14.6049C7.01984 14.9449 6.83984 15.3949 6.83984 15.8749V25.4249C6.83984 25.8949 7.02984 26.3549 7.35984 26.6949C7.68984 27.0249 8.14984 27.2249 8.62984 27.2249H21.3698C21.8398 27.2249 22.2998 27.0349 22.6398 26.6949C22.9698 26.3649 23.1598 25.8949 23.1598 25.4249V15.8749C23.1598 15.3949 22.9698 14.9449 22.6398 14.6049C22.3098 14.2749 21.8498 14.0749 21.3698 14.0749H12.0098M12.0098 14.0749V9.59494C12.0098 8.79494 12.3198 8.04494 12.8798 7.48494C13.4398 6.92494 14.1898 6.61494 14.9898 6.61494C15.7898 6.61494 16.5298 6.92494 17.0998 7.48494C17.6598 8.04494 17.9698 8.79494 17.9698 9.59494V14.0749H19.9598V9.59494C19.9598 8.26494 19.4398 7.01494 18.4998 6.07494C17.5598 5.13494 16.3098 4.61494 14.9798 4.61494C13.6498 4.61494 12.3998 5.13494 11.4598 6.07494C10.5198 7.01494 9.99984 8.26494 9.99984 9.59494V14.0749M21.1698 16.0649V25.2149H8.82984V16.0649H21.1698Z" fill="white"/>
</svg>
