<svg width="31" height="31" viewBox="0 0 31 31" fill="none" xmlns="http://www.w3.org/2000/svg">
<path d="M20.74 9.50494C20.74 8.17494 20.22 6.92494 19.28 5.98494C18.34 5.05494 17.1 4.53494 15.77 4.53494C14.44 4.53494 13.19 5.05494 12.25 5.99494C11.31 6.93494 10.79 8.18494 10.79 9.51494V14.1549H12.78V9.51494C12.78 8.71494 13.09 7.96494 13.65 7.40494C14.22 6.84494 14.96 6.53494 15.76 6.53494C16.56 6.53494 17.3 6.84494 17.87 7.40494C18.43 7.96494 18.74 8.71494 18.74 9.51494" fill="white"/>
<path d="M10.7845 14.1549H9.39449C8.92449 14.1549 8.46449 14.3449 8.12449 14.6849C7.78449 15.0249 7.60449 15.4749 7.60449 15.9549V25.5049C7.60449 25.9749 7.79449 26.4349 8.12449 26.7749C8.45449 27.1049 8.91449 27.3049 9.39449 27.3049H22.1345C22.6045 27.3049 23.0645 27.1149 23.4045 26.7749C23.7345 26.4449 23.9245 25.9749 23.9245 25.5049V15.9549C23.9245 15.4749 23.7345 15.0249 23.4045 14.6849C23.0745 14.3549 22.6145 14.1549 22.1345 14.1549H12.7845M21.9245 16.1449V25.2949H9.58449V16.1449H21.9245Z" fill="white"/>
</svg>
